<svg width="345" height="29" viewBox="0 0 345 29" fill="none" xmlns="http://www.w3.org/2000/svg">
<path d="M0.372891 26V0.799998H4.15289V10.16H4.33289C4.62089 9.68 5.06489 9.2 5.66489 8.72C6.96089 7.76 8.43689 7.28 10.0929 7.28C12.3729 7.28 14.1369 7.94 15.3849 9.26C16.6569 10.58 17.2929 12.5 17.2929 15.02V26H13.5129V15.38C13.5129 13.772 13.1529 12.596 12.4329 11.852C11.7369 11.084 10.6569 10.7 9.19289 10.7C7.72889 10.7 6.51689 11.204 5.55689 12.212C4.62089 13.196 4.15289 14.492 4.15289 16.1V26H0.372891ZM23.0515 23.624C21.2515 21.776 20.3515 19.508 20.3515 16.82C20.3515 14.132 21.2515 11.876 23.0515 10.052C24.8755 8.204 27.0955 7.28 29.7115 7.28C32.3275 7.28 34.5355 8.204 36.3355 10.052C38.1595 11.876 39.0715 14.132 39.0715 16.82V18.08H24.1315C24.4195 19.592 25.0795 20.78 26.1115 21.644C27.1435 22.508 28.3435 22.94 29.7115 22.94C31.3915 22.94 32.7355 22.52 33.7435 21.68C34.1995 21.344 34.5955 20.924 34.9315 20.42H38.8915C38.3875 21.596 37.7515 22.592 36.9835 23.408C35.0155 25.376 32.5915 26.36 29.7115 26.36C27.0955 26.36 24.8755 25.448 23.0515 23.624ZM24.3115 15.02H35.1115C34.8955 13.82 34.3195 12.8 33.3835 11.96C32.4715 11.12 31.2475 10.7 29.7115 10.7C28.4155 10.7 27.2635 11.096 26.2555 11.888C25.2475 12.656 24.5995 13.7 24.3115 15.02ZM42.3143 26V0.799998H46.0943V22.58H50.2343V26H42.3143ZM52.7557 26V0.799998H56.5357V22.58H60.6757V26H52.7557ZM64.8531 23.624C63.0291 21.776 62.1171 19.508 62.1171 16.82C62.1171 14.132 63.0291 11.876 64.8531 10.052C66.7011 8.204 68.9691 7.28 71.6571 7.28C74.3451 7.28 76.6011 8.204 78.4251 10.052C80.2731 11.876 81.1971 14.132 81.1971 16.82C81.1971 19.508 80.2731 21.776 78.4251 23.624C76.6011 25.448 74.3451 26.36 71.6571 26.36C68.9691 26.36 66.7011 25.448 64.8531 23.624ZM67.6251 12.392C66.5931 13.496 66.0771 14.972 66.0771 16.82C66.0771 18.668 66.5931 20.156 67.6251 21.284C68.6571 22.388 70.0011 22.94 71.6571 22.94C73.3131 22.94 74.6571 22.388 75.6891 21.284C76.7211 20.156 77.2371 18.668 77.2371 16.82C77.2371 14.972 76.7211 13.496 75.6891 12.392C74.6571 11.264 73.3131 10.7 71.6571 10.7C70.0011 10.7 68.6571 11.264 67.6251 12.392ZM87.6715 24.236C85.0315 21.62 83.7115 18.368 83.7115 14.48C83.7115 10.592 85.0315 7.34 87.6715 4.724C90.3115 2.108 93.6115 0.799998 97.5715 0.799998C101.339 0.799998 104.411 1.904 106.787 4.112C109.163 6.32 110.351 8.816 110.351 11.6C110.351 14.216 109.571 16.316 108.011 17.9C106.451 19.46 104.387 20.24 101.819 20.24H99.5515V18.62H99.3715C99.2035 19.004 98.9515 19.34 98.6155 19.628C97.9675 20.276 97.0795 20.6 95.9515 20.6C94.5595 20.6 93.3715 20.036 92.3875 18.908C91.4035 17.78 90.9115 16.304 90.9115 14.48C90.9115 12.656 91.4035 11.18 92.3875 10.052C93.3715 8.924 94.5595 8.36 95.9515 8.36C97.0555 8.36 97.9435 8.696 98.6155 9.368C98.9515 9.656 99.2035 9.98 99.3715 10.34H99.5515V8.72H102.971V17.18C104.123 17.18 105.071 16.7 105.815 15.74C106.559 14.78 106.931 13.4 106.931 11.6C106.931 9.56 106.091 7.76 104.411 6.2C102.755 4.64 100.475 3.86 97.5715 3.86C94.4995 3.86 91.9915 4.844 90.0475 6.812C88.1035 8.78 87.1315 11.336 87.1315 14.48C87.1315 17.624 88.1035 20.18 90.0475 22.148C91.9915 24.116 94.4995 25.1 97.5715 25.1C99.2035 25.1 100.775 24.8 102.287 24.2C102.911 23.96 103.559 23.648 104.231 23.264V26.54C103.799 26.78 103.163 27.056 102.323 27.368C100.739 27.896 99.1555 28.16 97.5715 28.16C93.6115 28.16 90.3115 26.852 87.6715 24.236ZM94.5115 14.48C94.5115 15.344 94.7395 16.04 95.1955 16.568C95.6755 17.096 96.2875 17.36 97.0315 17.36C97.7755 17.36 98.3755 17.108 98.8315 16.604C99.3115 16.076 99.5515 15.368 99.5515 14.48C99.5515 13.592 99.3115 12.896 98.8315 12.392C98.3755 11.864 97.7755 11.6 97.0315 11.6C96.2875 11.6 95.6755 11.864 95.1955 12.392C94.7395 12.896 94.5115 13.592 94.5115 14.48ZM113.576 18.62V7.64H117.356V18.26C117.356 19.868 117.704 21.056 118.4 21.824C119.12 22.568 120.212 22.94 121.676 22.94C123.14 22.94 124.34 22.448 125.276 21.464C126.236 20.456 126.716 19.148 126.716 17.54V7.64H130.496V26H126.716V23.48H126.536C126.248 23.96 125.804 24.44 125.204 24.92C123.908 25.88 122.432 26.36 120.776 26.36C118.496 26.36 116.72 25.7 115.448 24.38C114.2 23.06 113.576 21.14 113.576 18.62ZM136.178 23.732C134.546 21.956 133.73 19.652 133.73 16.82C133.73 13.988 134.546 11.696 136.178 9.944C137.834 8.168 139.898 7.28 142.37 7.28C143.93 7.28 145.358 7.736 146.654 8.648C147.206 9.032 147.698 9.476 148.13 9.98H148.31V7.64H152.09V26H148.31V23.48H148.13C147.77 23.984 147.278 24.464 146.654 24.92C145.358 25.88 143.93 26.36 142.37 26.36C139.898 26.36 137.834 25.484 136.178 23.732ZM139.13 12.284C138.17 13.34 137.69 14.852 137.69 16.82C137.69 18.788 138.17 20.3 139.13 21.356C140.09 22.412 141.41 22.94 143.09 22.94C144.674 22.94 145.934 22.412 146.87 21.356C147.83 20.276 148.31 18.764 148.31 16.82C148.31 14.876 147.83 13.376 146.87 12.32C145.934 11.24 144.674 10.7 143.09 10.7C141.41 10.7 140.09 11.228 139.13 12.284ZM154.416 26L159.996 16.82L154.596 7.64H158.916L163.056 15.02H163.956L168.096 7.64H172.416L167.016 16.82L172.596 26H168.276L163.956 18.44H163.056L158.736 26H154.416ZM175.841 23.624C174.041 21.776 173.141 19.508 173.141 16.82C173.141 14.132 174.041 11.876 175.841 10.052C177.665 8.204 179.885 7.28 182.501 7.28C185.117 7.28 187.325 8.204 189.125 10.052C190.949 11.876 191.861 14.132 191.861 16.82V18.08H176.921C177.209 19.592 177.869 20.78 178.901 21.644C179.933 22.508 181.133 22.94 182.501 22.94C184.181 22.94 185.525 22.52 186.533 21.68C186.989 21.344 187.385 20.924 187.721 20.42H191.681C191.177 21.596 190.541 22.592 189.773 23.408C187.805 25.376 185.381 26.36 182.501 26.36C179.885 26.36 177.665 25.448 175.841 23.624ZM177.101 15.02H187.901C187.685 13.82 187.109 12.8 186.173 11.96C185.261 11.12 184.037 10.7 182.501 10.7C181.205 10.7 180.053 11.096 179.045 11.888C178.037 12.656 177.389 13.7 177.101 15.02ZM195.103 26V0.799998H198.883V22.58H203.023V26H195.103ZM206.913 23.732C205.281 21.956 204.465 19.652 204.465 16.82C204.465 13.988 205.281 11.696 206.913 9.944C208.569 8.168 210.633 7.28 213.105 7.28C214.665 7.28 216.093 7.736 217.389 8.648C217.941 9.032 218.433 9.476 218.865 9.98H219.045V7.64H222.825V26H219.045V23.48H218.865C218.505 23.984 218.013 24.464 217.389 24.92C216.093 25.88 214.665 26.36 213.105 26.36C210.633 26.36 208.569 25.484 206.913 23.732ZM209.865 12.284C208.905 13.34 208.425 14.852 208.425 16.82C208.425 18.788 208.905 20.3 209.865 21.356C210.825 22.412 212.145 22.94 213.825 22.94C215.409 22.94 216.669 22.412 217.605 21.356C218.565 20.276 219.045 18.764 219.045 16.82C219.045 14.876 218.565 13.376 217.605 12.32C216.669 11.24 215.409 10.7 213.825 10.7C212.145 10.7 210.825 11.228 209.865 12.284ZM227.131 26V0.799998H230.911V9.98H231.091C231.523 9.476 232.015 9.032 232.567 8.648C233.863 7.736 235.291 7.28 236.851 7.28C239.323 7.28 241.375 8.168 243.007 9.944C244.663 11.696 245.491 13.988 245.491 16.82C245.491 19.652 244.663 21.956 243.007 23.732C241.375 25.484 239.323 26.36 236.851 26.36C235.267 26.36 233.839 25.916 232.567 25.028C231.991 24.62 231.499 24.164 231.091 23.66H230.911V26H227.131ZM232.315 12.32C231.379 13.376 230.911 14.876 230.911 16.82C230.911 18.764 231.379 20.276 232.315 21.356C233.275 22.412 234.547 22.94 236.131 22.94C237.811 22.94 239.131 22.412 240.091 21.356C241.051 20.3 241.531 18.788 241.531 16.82C241.531 14.852 241.051 13.34 240.091 12.284C239.131 11.228 237.811 10.7 236.131 10.7C234.547 10.7 233.275 11.24 232.315 12.32ZM247.457 20.24H251.597C251.765 20.72 252.065 21.176 252.497 21.608C253.385 22.496 254.585 22.94 256.097 22.94C257.417 22.94 258.377 22.736 258.977 22.328C259.577 21.92 259.877 21.404 259.877 20.78C259.877 20.564 259.829 20.372 259.733 20.204C259.637 20.012 259.469 19.844 259.229 19.7C258.989 19.556 258.761 19.436 258.545 19.34C258.329 19.22 258.005 19.112 257.573 19.016C257.141 18.896 256.793 18.812 256.529 18.764C256.265 18.692 255.857 18.596 255.305 18.476C254.777 18.356 254.381 18.272 254.117 18.224C250.277 17.36 248.357 15.512 248.357 12.68C248.357 11.24 249.017 9.98 250.337 8.9C251.657 7.82 253.397 7.28 255.557 7.28C258.557 7.28 260.801 8.24 262.289 10.16C262.961 11 263.417 11.96 263.657 13.04H259.697C259.505 12.56 259.241 12.176 258.905 11.888C258.065 11.096 256.949 10.7 255.557 10.7C254.477 10.7 253.661 10.892 253.109 11.276C252.581 11.66 252.317 12.14 252.317 12.716C252.317 12.932 252.365 13.136 252.461 13.328C252.557 13.496 252.725 13.652 252.965 13.796C253.205 13.94 253.433 14.06 253.649 14.156C253.889 14.252 254.213 14.36 254.621 14.48C255.029 14.576 255.377 14.66 255.665 14.732C255.953 14.78 256.349 14.864 256.853 14.984C257.381 15.08 257.789 15.164 258.077 15.236C261.917 16.1 263.837 17.948 263.837 20.78C263.837 22.316 263.141 23.636 261.749 24.74C260.381 25.82 258.497 26.36 256.097 26.36C252.977 26.36 250.589 25.34 248.933 23.3C248.189 22.364 247.697 21.344 247.457 20.24ZM267.068 25.82C266.588 25.34 266.348 24.74 266.348 24.02C266.348 23.3 266.588 22.7 267.068 22.22C267.548 21.74 268.148 21.5 268.868 21.5C269.588 21.5 270.188 21.74 270.668 22.22C271.148 22.7 271.388 23.3 271.388 24.02C271.388 24.74 271.148 25.34 270.668 25.82C270.188 26.3 269.588 26.54 268.868 26.54C268.148 26.54 267.548 26.3 267.068 25.82ZM276.526 23.66C274.774 21.86 273.898 19.58 273.898 16.82C273.898 14.06 274.774 11.78 276.526 9.98C278.278 8.18 280.462 7.28 283.078 7.28C286.006 7.28 288.394 8.396 290.242 10.628C291.034 11.66 291.586 12.764 291.898 13.94H287.938C287.77 13.34 287.458 12.8 287.002 12.32C286.066 11.24 284.758 10.7 283.078 10.7C281.59 10.7 280.342 11.264 279.334 12.392C278.35 13.52 277.858 14.996 277.858 16.82C277.858 18.644 278.35 20.12 279.334 21.248C280.342 22.376 281.59 22.94 283.078 22.94C284.806 22.94 286.162 22.4 287.146 21.32C287.578 20.84 287.902 20.3 288.118 19.7H291.898C291.586 20.924 291.034 22.04 290.242 23.048C288.418 25.256 286.03 26.36 283.078 26.36C280.462 26.36 278.278 25.46 276.526 23.66ZM296.603 23.624C294.779 21.776 293.867 19.508 293.867 16.82C293.867 14.132 294.779 11.876 296.603 10.052C298.451 8.204 300.719 7.28 303.407 7.28C306.095 7.28 308.351 8.204 310.175 10.052C312.023 11.876 312.947 14.132 312.947 16.82C312.947 19.508 312.023 21.776 310.175 23.624C308.351 25.448 306.095 26.36 303.407 26.36C300.719 26.36 298.451 25.448 296.603 23.624ZM299.375 12.392C298.343 13.496 297.827 14.972 297.827 16.82C297.827 18.668 298.343 20.156 299.375 21.284C300.407 22.388 301.751 22.94 303.407 22.94C305.063 22.94 306.407 22.388 307.439 21.284C308.471 20.156 308.987 18.668 308.987 16.82C308.987 14.972 308.471 13.496 307.439 12.392C306.407 11.264 305.063 10.7 303.407 10.7C301.751 10.7 300.407 11.264 299.375 12.392ZM316.181 26V7.64H319.961V10.16H320.141C320.453 9.632 320.861 9.152 321.365 8.72C322.517 7.76 323.909 7.28 325.541 7.28C327.485 7.28 329.057 7.856 330.257 9.008C330.761 9.488 331.169 10.052 331.481 10.7H331.661C331.997 10.076 332.465 9.512 333.065 9.008C334.361 7.856 335.993 7.28 337.961 7.28C340.097 7.28 341.765 7.952 342.965 9.296C344.189 10.616 344.801 12.524 344.801 15.02V26H341.021V15.2C341.021 12.2 339.701 10.7 337.061 10.7C335.789 10.7 334.685 11.204 333.749 12.212C332.837 13.196 332.381 14.432 332.381 15.92V26H328.601V15.2C328.601 12.2 327.281 10.7 324.641 10.7C323.369 10.7 322.265 11.204 321.329 12.212C320.417 13.196 319.961 14.432 319.961 15.92V26H316.181Z" fill="black"/>
</svg>
