<svg width="1428" height="204" viewBox="0 0 1428 204" fill="none" xmlns="http://www.w3.org/2000/svg">
<g opacity="0.1">
<mask id="path-1-outside-1_2_356" maskUnits="userSpaceOnUse" x="-1" y="-1" width="1430" height="206" fill="black">
<rect fill="white" x="-1" y="-1" width="1430" height="206"/>
<path d="M0.85 136.35H52.91C54.554 140.917 57.02 144.844 60.308 148.132C67.98 155.804 78.7573 159.64 92.64 159.64C102.321 159.64 109.537 158.087 114.286 154.982C119.035 151.877 121.41 147.949 121.41 143.2C121.41 141.191 120.862 139.364 119.766 137.72C118.853 135.893 117.209 134.249 114.834 132.788C112.642 131.327 110.45 130.139 108.258 129.226C106.066 128.13 102.869 127.034 98.668 125.938C94.6493 124.659 91.27 123.655 88.53 122.924C85.79 122.193 81.7713 121.189 76.474 119.91C71.3593 118.631 67.432 117.627 64.692 116.896C47.3387 112.147 33.456 105.571 23.044 97.168C12.8147 88.7653 7.7 76.7093 7.7 61C7.7 44.3773 14.824 30.2207 29.072 18.53C43.5027 6.65666 62.8653 0.719992 87.16 0.719992C118.213 0.719992 141.412 10.7667 156.756 30.86C163.515 39.628 168.173 49.6747 170.73 61H118.67C117.574 58.0773 115.747 55.3373 113.19 52.78C107.345 47.3 98.668 44.56 87.16 44.56C78.2093 44.56 71.6333 45.93 67.432 48.67C63.2307 51.2273 61.13 54.424 61.13 58.26C61.13 63.3747 64.144 67.4847 70.172 70.59C76.3827 73.5127 85.4247 76.344 97.298 79.084C104.239 80.728 109.171 82.0067 112.094 82.92C115.199 83.6507 120.04 85.112 126.616 87.304C133.375 89.3133 138.489 91.2313 141.96 93.058C145.431 94.8847 149.541 97.442 154.29 100.73C159.222 103.835 162.875 107.215 165.25 110.868C167.807 114.339 169.999 118.631 171.826 123.746C173.835 128.861 174.84 134.432 174.84 140.46C174.84 157.996 167.625 172.883 153.194 185.122C138.763 197.361 118.579 203.48 92.64 203.48C60.1253 203.48 35.1 192.337 17.564 170.052C10.0747 160.371 4.50333 149.137 0.85 136.35ZM200.988 198V6.19999H348.948V52.78H251.678V81.55H329.768V122.65H251.678V151.42H348.948V198H200.988ZM377.589 198V6.19999H473.489C496.323 6.19999 514.772 12.6847 528.837 25.654C543.085 38.4407 550.209 54.3327 550.209 73.33C550.209 97.99 537.423 117.17 511.849 130.87L551.579 198H496.779L462.529 140.46H428.279V198H377.589ZM428.279 93.88H472.119C479.974 93.88 486.276 91.8707 491.025 87.852C495.775 83.8333 498.149 78.9927 498.149 73.33C498.149 67.6673 495.775 62.8267 491.025 58.808C486.276 54.7893 479.974 52.78 472.119 52.78H428.279V93.88ZM562.636 6.19999H614.696L650.316 151.42H668.126L703.746 6.19999H755.806L706.486 198H611.956L562.636 6.19999ZM774.943 198V6.19999H825.633V198H774.943ZM883.017 174.71C863.106 155.347 853.151 131.144 853.151 102.1C853.151 73.056 863.106 48.944 883.017 29.764C903.11 10.4013 928.775 0.719992 960.011 0.719992C994.535 0.719992 1021.66 13.324 1041.39 38.532C1050.16 50.04 1056.37 62.5527 1060.02 76.07H1007.96C1005.22 70.4073 1001.84 65.658 997.823 61.822C988.141 52.1407 975.537 47.3 960.011 47.3C944.119 47.3 931.241 52.3233 921.377 62.37C911.513 72.4167 906.581 85.66 906.581 102.1C906.581 118.54 911.513 131.783 921.377 141.83C931.241 151.877 944.119 156.9 960.011 156.9C977.181 156.9 990.516 151.42 1000.01 140.46C1004.4 135.528 1007.5 130.048 1009.33 124.02H1061.39C1057.37 138.816 1050.89 152.059 1041.94 163.75C1022.39 190.237 995.083 203.48 960.011 203.48C928.775 203.48 903.11 193.89 883.017 174.71ZM1087.47 198V6.19999H1235.43V52.78H1138.16V81.55H1216.25V122.65H1138.16V151.42H1235.43V198H1087.47ZM1253.12 136.35H1305.18C1306.82 140.917 1309.29 144.844 1312.57 148.132C1320.25 155.804 1331.02 159.64 1344.91 159.64C1354.59 159.64 1361.8 158.087 1366.55 154.982C1371.3 151.877 1373.68 147.949 1373.68 143.2C1373.68 141.191 1373.13 139.364 1372.03 137.72C1371.12 135.893 1369.47 134.249 1367.1 132.788C1364.91 131.327 1362.72 130.139 1360.52 129.226C1358.33 128.13 1355.13 127.034 1350.93 125.938C1346.91 124.659 1343.54 123.655 1340.8 122.924C1338.06 122.193 1334.04 121.189 1328.74 119.91C1323.62 118.631 1319.7 117.627 1316.96 116.896C1299.6 112.147 1285.72 105.571 1275.31 97.168C1265.08 88.7653 1259.97 76.7093 1259.97 61C1259.97 44.3773 1267.09 30.2207 1281.34 18.53C1295.77 6.65666 1315.13 0.719992 1339.43 0.719992C1370.48 0.719992 1393.68 10.7667 1409.02 30.86C1415.78 39.628 1420.44 49.6747 1423 61H1370.94C1369.84 58.0773 1368.01 55.3373 1365.46 52.78C1359.61 47.3 1350.93 44.56 1339.43 44.56C1330.47 44.56 1323.9 45.93 1319.7 48.67C1315.5 51.2273 1313.4 54.424 1313.4 58.26C1313.4 63.3747 1316.41 67.4847 1322.44 70.59C1328.65 73.5127 1337.69 76.344 1349.56 79.084C1356.5 80.728 1361.44 82.0067 1364.36 82.92C1367.46 83.6507 1372.31 85.112 1378.88 87.304C1385.64 89.3133 1390.75 91.2313 1394.23 93.058C1397.7 94.8847 1401.81 97.442 1406.56 100.73C1411.49 103.835 1415.14 107.215 1417.52 110.868C1420.07 114.339 1422.26 118.631 1424.09 123.746C1426.1 128.861 1427.11 134.432 1427.11 140.46C1427.11 157.996 1419.89 172.883 1405.46 185.122C1391.03 197.361 1370.84 203.48 1344.91 203.48C1312.39 203.48 1287.37 192.337 1269.83 170.052C1262.34 160.371 1256.77 149.137 1253.12 136.35Z"/>
</mask>
<path d="M0.85 136.35V135.35H-0.47573L-0.111524 136.625L0.85 136.35ZM52.91 136.35L53.8509 136.011L53.6128 135.35H52.91V136.35ZM60.308 148.132L61.0151 147.425L60.308 148.132ZM114.286 154.982L113.739 154.145L114.286 154.982ZM119.766 137.72L118.872 138.167L118.899 138.223L118.934 138.275L119.766 137.72ZM114.834 132.788L114.279 133.62L114.294 133.63L114.31 133.64L114.834 132.788ZM108.258 129.226L107.811 130.12L107.842 130.136L107.873 130.149L108.258 129.226ZM98.668 125.938L98.3648 126.891L98.39 126.899L98.4156 126.906L98.668 125.938ZM88.53 122.924L88.7877 121.958L88.53 122.924ZM76.474 119.91L76.2315 120.88L76.2394 120.882L76.474 119.91ZM64.692 116.896L64.428 117.861L64.4343 117.862L64.692 116.896ZM23.044 97.168L22.4092 97.9408L22.416 97.9462L23.044 97.168ZM29.072 18.53L29.7063 19.3031L29.7074 19.3022L29.072 18.53ZM156.756 30.86L155.961 31.4669L155.964 31.4705L156.756 30.86ZM170.73 61V62H171.981L171.705 60.7797L170.73 61ZM118.67 61L117.734 61.3511L117.977 62H118.67V61ZM113.19 52.78L113.897 52.0729L113.886 52.0615L113.874 52.0505L113.19 52.78ZM67.432 48.67L67.952 49.5242L67.9652 49.5161L67.9783 49.5076L67.432 48.67ZM70.172 70.59L69.7141 71.479L69.73 71.4872L69.7462 71.4948L70.172 70.59ZM97.298 79.084L97.5285 78.1109L97.5229 78.1096L97.298 79.084ZM112.094 82.92L111.796 83.8745L111.83 83.8852L111.865 83.8934L112.094 82.92ZM126.616 87.304L126.3 88.2527L126.315 88.2579L126.331 88.2625L126.616 87.304ZM154.29 100.73L153.721 101.552L153.739 101.565L153.757 101.576L154.29 100.73ZM165.25 110.868L164.412 111.413L164.428 111.438L164.445 111.461L165.25 110.868ZM171.826 123.746L170.884 124.082L170.89 124.097L170.895 124.112L171.826 123.746ZM153.194 185.122L153.841 185.885L153.194 185.122ZM17.564 170.052L16.773 170.664L16.7781 170.67L17.564 170.052ZM0.85 137.35H52.91V135.35H0.85V137.35ZM51.9691 136.689C53.6607 141.388 56.2042 145.442 59.6009 148.839L61.0151 147.425C57.8358 144.246 55.4473 140.446 53.8509 136.011L51.9691 136.689ZM59.6009 148.839C67.509 156.747 78.5698 160.64 92.64 160.64V158.64C78.9449 158.64 68.451 154.861 61.0151 147.425L59.6009 148.839ZM92.64 160.64C102.394 160.64 109.843 159.082 114.833 155.819L113.739 154.145C109.231 157.093 102.249 158.64 92.64 158.64V160.64ZM114.833 155.819C119.802 152.57 122.41 148.356 122.41 143.2H120.41C120.41 147.542 118.269 151.183 113.739 154.145L114.833 155.819ZM122.41 143.2C122.41 140.997 121.806 138.977 120.598 137.165L118.934 138.275C119.918 139.751 120.41 141.385 120.41 143.2H122.41ZM120.66 137.273C119.639 135.229 117.836 133.461 115.358 131.936L114.31 133.64C116.582 135.038 118.067 136.558 118.872 138.167L120.66 137.273ZM115.389 131.956C113.149 130.463 110.9 129.244 108.643 128.303L107.873 130.149C110 131.035 112.135 132.191 114.279 133.62L115.389 131.956ZM108.705 128.332C106.421 127.189 103.146 126.073 98.9204 124.97L98.4156 126.906C102.593 127.995 105.711 129.071 107.811 130.12L108.705 128.332ZM98.9712 124.985C94.944 123.704 91.5484 122.694 88.7877 121.958L88.2723 123.89C90.9917 124.615 94.3547 125.615 98.3648 126.891L98.9712 124.985ZM88.7877 121.958C86.0359 121.224 82.0081 120.217 76.7086 118.938L76.2394 120.882C81.5346 122.16 85.5441 123.163 88.2723 123.89L88.7877 121.958ZM76.7165 118.94C71.6034 117.662 67.6821 116.658 64.9497 115.93L64.4343 117.862C67.1819 118.595 71.1152 119.601 76.2315 120.88L76.7165 118.94ZM64.956 115.931C47.6922 111.207 33.9467 104.682 23.672 96.3898L22.416 97.9462C32.9653 106.46 46.9851 113.087 64.428 117.861L64.956 115.931ZM23.6787 96.3953C13.7246 88.2187 8.7 76.4721 8.7 61H6.7C6.7 76.9466 11.9047 89.312 22.4093 97.9407L23.6787 96.3953ZM8.7 61C8.7 44.7118 15.6613 30.8272 29.7063 19.3031L28.4377 17.7569C13.9867 29.6141 6.7 44.0428 6.7 61H8.7ZM29.7074 19.3022C43.9113 7.61544 63.0266 1.71999 87.16 1.71999V-0.280006C62.704 -0.280006 43.0941 5.69788 28.4366 17.7578L29.7074 19.3022ZM87.16 1.71999C117.981 1.71999 140.85 11.6781 155.961 31.4669L157.551 30.2531C141.974 9.85525 118.446 -0.280006 87.16 -0.280006V1.71999ZM155.964 31.4705C162.63 40.1177 167.228 50.0297 169.755 61.2203L171.705 60.7797C169.118 49.3196 164.4 39.1383 157.548 30.2495L155.964 31.4705ZM170.73 60H118.67V62H170.73V60ZM119.606 60.6489C118.453 57.573 116.539 54.7152 113.897 52.0729L112.483 53.4871C114.955 55.9594 116.695 58.5817 117.734 61.3511L119.606 60.6489ZM113.874 52.0505C107.776 46.3336 98.8117 43.56 87.16 43.56V45.56C98.5243 45.56 106.913 48.2664 112.506 53.5095L113.874 52.0505ZM87.16 43.56C78.1478 43.56 71.3331 44.9319 66.8857 47.8324L67.9783 49.5076C71.9336 46.9281 78.2709 45.56 87.16 45.56V43.56ZM66.9121 47.8158C62.5088 50.4961 60.13 53.9755 60.13 58.26H62.13C62.13 54.8725 63.9526 51.9586 67.952 49.5242L66.9121 47.8158ZM60.13 58.26C60.13 63.8727 63.4796 68.2673 69.7141 71.479L70.63 69.701C64.8084 66.702 62.13 62.8766 62.13 58.26H60.13ZM69.7462 71.4948C76.0524 74.4624 85.175 77.3127 97.0731 80.0584L97.5229 78.1096C85.6743 75.3753 76.713 72.5629 70.5978 69.6852L69.7462 71.4948ZM97.0675 80.0571C104.008 81.7009 108.91 82.9726 111.796 83.8745L112.392 81.9655C109.433 81.0407 104.471 79.7551 97.5285 78.1109L97.0675 80.0571ZM111.865 83.8934C114.923 84.613 119.727 86.0619 126.3 88.2527L126.932 86.3553C120.353 84.1621 115.476 82.6884 112.323 81.9466L111.865 83.8934ZM126.331 88.2625C133.068 90.2655 138.11 92.1616 141.494 93.9429L142.426 92.1731C138.869 90.3011 133.681 88.3612 126.901 86.3455L126.331 88.2625ZM141.494 93.9429C144.917 95.7443 148.991 98.2775 153.721 101.552L154.859 99.9078C150.091 96.6065 145.945 94.0251 142.426 92.1731L141.494 93.9429ZM153.757 101.576C158.606 104.629 162.138 107.915 164.412 111.413L166.088 110.323C163.613 106.515 159.838 103.041 154.823 99.8838L153.757 101.576ZM164.445 111.461C166.932 114.836 169.082 119.037 170.884 124.082L172.768 123.41C170.916 118.226 168.683 113.841 166.055 110.275L164.445 111.461ZM170.895 124.112C172.855 129.099 173.84 134.545 173.84 140.46H175.84C175.84 134.319 174.816 128.622 172.757 123.38L170.895 124.112ZM173.84 140.46C173.84 157.677 166.774 172.294 152.547 184.359L153.841 185.885C168.475 173.473 175.84 158.315 175.84 140.46H173.84ZM152.547 184.359C138.354 196.396 118.43 202.48 92.64 202.48V204.48C118.728 204.48 139.172 198.325 153.841 185.885L152.547 184.359ZM92.64 202.48C60.3811 202.48 35.6669 191.441 18.3499 169.434L16.7781 170.67C34.5331 193.234 59.8695 204.48 92.64 204.48V202.48ZM18.355 169.44C10.9499 159.868 5.43298 148.75 1.81152 136.075L-0.111524 136.625C3.57369 149.523 9.19946 160.874 16.773 170.664L18.355 169.44ZM200.988 198H199.988V199H200.988V198ZM200.988 6.19999V5.19999H199.988V6.19999H200.988ZM348.948 6.19999H349.948V5.19999H348.948V6.19999ZM348.948 52.78V53.78H349.948V52.78H348.948ZM251.678 52.78V51.78H250.678V52.78H251.678ZM251.678 81.55H250.678V82.55H251.678V81.55ZM329.768 81.55H330.768V80.55H329.768V81.55ZM329.768 122.65V123.65H330.768V122.65H329.768ZM251.678 122.65V121.65H250.678V122.65H251.678ZM251.678 151.42H250.678V152.42H251.678V151.42ZM348.948 151.42H349.948V150.42H348.948V151.42ZM348.948 198V199H349.948V198H348.948ZM201.988 198V6.19999H199.988V198H201.988ZM200.988 7.19999H348.948V5.19999H200.988V7.19999ZM347.948 6.19999V52.78H349.948V6.19999H347.948ZM348.948 51.78H251.678V53.78H348.948V51.78ZM250.678 52.78V81.55H252.678V52.78H250.678ZM251.678 82.55H329.768V80.55H251.678V82.55ZM328.768 81.55V122.65H330.768V81.55H328.768ZM329.768 121.65H251.678V123.65H329.768V121.65ZM250.678 122.65V151.42H252.678V122.65H250.678ZM251.678 152.42H348.948V150.42H251.678V152.42ZM347.948 151.42V198H349.948V151.42H347.948ZM348.948 197H200.988V199H348.948V197ZM377.589 198H376.589V199H377.589V198ZM377.589 6.19999V5.19999H376.589V6.19999H377.589ZM528.837 25.654L528.159 26.3892L528.169 26.3982L528.837 25.654ZM511.849 130.87L511.377 129.989L510.457 130.481L510.989 131.379L511.849 130.87ZM551.579 198V199H553.333L552.44 197.491L551.579 198ZM496.779 198L495.92 198.511L496.211 199H496.779V198ZM462.529 140.46L463.389 139.949L463.098 139.46H462.529V140.46ZM428.279 140.46V139.46H427.279V140.46H428.279ZM428.279 198V199H429.279V198H428.279ZM428.279 93.88H427.279V94.88H428.279V93.88ZM491.025 87.852L491.671 88.6154L491.025 87.852ZM491.025 58.808L491.671 58.0446L491.025 58.808ZM428.279 52.78V51.78H427.279V52.78H428.279ZM378.589 198V6.19999H376.589V198H378.589ZM377.589 7.19999H473.489V5.19999H377.589V7.19999ZM473.489 7.19999C496.123 7.19999 514.313 13.6221 528.159 26.3892L529.515 24.9188C515.231 11.7473 496.522 5.19999 473.489 5.19999V7.19999ZM528.169 26.3982C542.208 38.9969 549.209 54.6191 549.209 73.33H551.209C551.209 54.0462 543.963 37.8844 529.505 24.9098L528.169 26.3982ZM549.209 73.33C549.209 97.549 536.695 116.426 511.377 129.989L512.322 131.751C538.151 117.914 551.209 98.4309 551.209 73.33H549.209ZM510.989 131.379L550.719 198.509L552.44 197.491L512.71 130.361L510.989 131.379ZM551.579 197H496.779V199H551.579V197ZM497.639 197.489L463.389 139.949L461.67 140.971L495.92 198.511L497.639 197.489ZM462.529 139.46H428.279V141.46H462.529V139.46ZM427.279 140.46V198H429.279V140.46H427.279ZM428.279 197H377.589V199H428.279V197ZM428.279 94.88H472.119V92.88H428.279V94.88ZM472.119 94.88C480.147 94.88 486.698 92.8235 491.671 88.6154L490.379 87.0886C485.854 90.9178 479.801 92.88 472.119 92.88V94.88ZM491.671 88.6154C496.62 84.4279 499.149 79.3181 499.149 73.33H497.149C497.149 78.6672 494.929 83.2388 490.379 87.0886L491.671 88.6154ZM499.149 73.33C499.149 67.3419 496.62 62.2321 491.671 58.0446L490.379 59.5714C494.929 63.4212 497.149 67.9928 497.149 73.33H499.149ZM491.671 58.0446C486.698 53.8365 480.147 51.78 472.119 51.78V53.78C479.801 53.78 485.854 55.7422 490.379 59.5714L491.671 58.0446ZM472.119 51.78H428.279V53.78H472.119V51.78ZM427.279 52.78V93.88H429.279V52.78H427.279ZM562.636 6.19999V5.19999H561.346L561.667 6.44903L562.636 6.19999ZM614.696 6.19999L615.667 5.96177L615.48 5.19999H614.696V6.19999ZM650.316 151.42L649.344 151.658L649.531 152.42H650.316V151.42ZM668.126 151.42V152.42H668.91L669.097 151.658L668.126 151.42ZM703.746 6.19999V5.19999H702.961L702.774 5.96177L703.746 6.19999ZM755.806 6.19999L756.774 6.44903L757.095 5.19999H755.806V6.19999ZM706.486 198V199H707.261L707.454 198.249L706.486 198ZM611.956 198L610.987 198.249L611.18 199H611.956V198ZM562.636 7.19999H614.696V5.19999H562.636V7.19999ZM613.724 6.43821L649.344 151.658L651.287 151.182L615.667 5.96177L613.724 6.43821ZM650.316 152.42H668.126V150.42H650.316V152.42ZM669.097 151.658L704.717 6.43821L702.774 5.96177L667.154 151.182L669.097 151.658ZM703.746 7.19999H755.806V5.19999H703.746V7.19999ZM754.837 5.95094L705.517 197.751L707.454 198.249L756.774 6.44903L754.837 5.95094ZM706.486 197H611.956V199H706.486V197ZM612.924 197.751L563.604 5.95094L561.667 6.44903L610.987 198.249L612.924 197.751ZM774.943 198H773.943V199H774.943V198ZM774.943 6.19999V5.19999H773.943V6.19999H774.943ZM825.633 6.19999H826.633V5.19999H825.633V6.19999ZM825.633 198V199H826.633V198H825.633ZM775.943 198V6.19999H773.943V198H775.943ZM774.943 7.19999H825.633V5.19999H774.943V7.19999ZM824.633 6.19999V198H826.633V6.19999H824.633ZM825.633 197H774.943V199H825.633V197ZM883.017 174.71L882.319 175.427L882.326 175.433L883.017 174.71ZM883.017 29.764L883.71 30.4842L883.71 30.4841L883.017 29.764ZM1041.39 38.532L1042.18 37.9259L1042.18 37.9157L1041.39 38.532ZM1060.02 76.07V77.07H1061.33L1060.99 75.8091L1060.02 76.07ZM1007.96 76.07L1007.06 76.5056L1007.33 77.07H1007.96V76.07ZM997.823 61.822L997.115 62.5291L997.124 62.5373L997.132 62.5454L997.823 61.822ZM921.377 62.37L920.663 61.6694L921.377 62.37ZM921.377 141.83L920.663 142.531L921.377 141.83ZM1000.01 140.46L999.267 139.796L999.259 139.805L1000.01 140.46ZM1009.33 124.02V123.02H1008.59L1008.37 123.73L1009.33 124.02ZM1061.39 124.02L1062.36 124.282L1062.7 123.02H1061.39V124.02ZM1041.94 163.75L1041.14 163.142L1041.14 163.149L1041.13 163.156L1041.94 163.75ZM883.714 173.993C864.006 154.828 854.151 130.888 854.151 102.1H852.151C852.151 131.4 862.205 155.867 882.319 175.427L883.714 173.993ZM854.151 102.1C854.151 73.3123 864.006 49.4653 883.71 30.4842L882.323 29.0438C862.206 48.4227 852.151 72.7997 852.151 102.1H854.151ZM883.71 30.4841C903.595 11.323 929 1.71999 960.011 1.71999V-0.280006C928.549 -0.280006 902.625 9.47964 882.323 29.0439L883.71 30.4841ZM960.011 1.71999C994.255 1.71999 1021.08 14.2036 1040.6 39.1483L1042.18 37.9157C1022.24 12.4444 994.814 -0.280006 960.011 -0.280006V1.71999ZM1040.59 39.138C1049.29 50.5466 1055.44 62.9427 1059.06 76.3309L1060.99 75.8091C1057.3 62.1626 1051.03 49.5334 1042.18 37.9259L1040.59 39.138ZM1060.02 75.07H1007.96V77.07H1060.02V75.07ZM1008.86 75.6344C1006.08 69.8782 1002.63 65.0274 998.513 61.0986L997.132 62.5454C1001.05 66.2886 1004.37 70.9365 1007.06 76.5056L1008.86 75.6344ZM998.53 61.1149C988.635 51.2203 975.764 46.3 960.011 46.3V48.3C975.311 48.3 987.647 53.061 997.115 62.5291L998.53 61.1149ZM960.011 46.3C943.888 46.3 930.74 51.4058 920.663 61.6694L922.09 63.0706C931.741 53.2408 944.349 48.3 960.011 48.3V46.3ZM920.663 61.6694C910.585 71.9343 905.581 85.4452 905.581 102.1H907.581C907.581 85.8747 912.44 72.899 922.09 63.0706L920.663 61.6694ZM905.581 102.1C905.581 118.755 910.585 132.266 920.663 142.531L922.09 141.129C912.44 131.301 907.581 118.325 907.581 102.1H905.581ZM920.663 142.531C930.74 152.794 943.888 157.9 960.011 157.9V155.9C944.349 155.9 931.741 150.959 922.09 141.129L920.663 142.531ZM960.011 157.9C977.413 157.9 991.046 152.335 1000.77 141.115L999.259 139.805C989.985 150.505 976.95 155.9 960.011 155.9V157.9ZM1000.76 141.124C1005.24 136.089 1008.42 130.483 1010.29 124.31L1008.37 123.73C1006.59 129.613 1003.56 134.967 999.267 139.796L1000.76 141.124ZM1009.33 125.02H1061.39V123.02H1009.33V125.02ZM1060.43 123.758C1056.44 138.434 1050.01 151.559 1041.14 163.142L1042.73 164.358C1051.76 152.56 1058.3 139.198 1062.36 124.282L1060.43 123.758ZM1041.13 163.156C1021.79 189.369 994.789 202.48 960.011 202.48V204.48C995.376 204.48 1022.99 191.105 1042.74 164.344L1041.13 163.156ZM960.011 202.48C928.997 202.48 903.591 192.966 883.707 173.987L882.326 175.433C902.629 194.814 928.552 204.48 960.011 204.48V202.48ZM1087.47 198H1086.47V199H1087.47V198ZM1087.47 6.19999V5.19999H1086.47V6.19999H1087.47ZM1235.43 6.19999H1236.43V5.19999H1235.43V6.19999ZM1235.43 52.78V53.78H1236.43V52.78H1235.43ZM1138.16 52.78V51.78H1137.16V52.78H1138.16ZM1138.16 81.55H1137.16V82.55H1138.16V81.55ZM1216.25 81.55H1217.25V80.55H1216.25V81.55ZM1216.25 122.65V123.65H1217.25V122.65H1216.25ZM1138.16 122.65V121.65H1137.16V122.65H1138.16ZM1138.16 151.42H1137.16V152.42H1138.16V151.42ZM1235.43 151.42H1236.43V150.42H1235.43V151.42ZM1235.43 198V199H1236.43V198H1235.43ZM1088.47 198V6.19999H1086.47V198H1088.47ZM1087.47 7.19999H1235.43V5.19999H1087.47V7.19999ZM1234.43 6.19999V52.78H1236.43V6.19999H1234.43ZM1235.43 51.78H1138.16V53.78H1235.43V51.78ZM1137.16 52.78V81.55H1139.16V52.78H1137.16ZM1138.16 82.55H1216.25V80.55H1138.16V82.55ZM1215.25 81.55V122.65H1217.25V81.55H1215.25ZM1216.25 121.65H1138.16V123.65H1216.25V121.65ZM1137.16 122.65V151.42H1139.16V122.65H1137.16ZM1138.16 152.42H1235.43V150.42H1138.16V152.42ZM1234.43 151.42V198H1236.43V151.42H1234.43ZM1235.43 197H1087.47V199H1235.43V197ZM1253.12 136.35V135.35H1251.79L1252.15 136.625L1253.12 136.35ZM1305.18 136.35L1306.12 136.011L1305.88 135.35H1305.18V136.35ZM1312.57 148.132L1313.28 147.425L1312.57 148.132ZM1366.55 154.982L1366 154.145L1366.55 154.982ZM1372.03 137.72L1371.14 138.167L1371.17 138.223L1371.2 138.275L1372.03 137.72ZM1367.1 132.788L1366.54 133.62L1366.56 133.63L1366.58 133.64L1367.1 132.788ZM1360.52 129.226L1360.08 130.12L1360.11 130.136L1360.14 130.149L1360.52 129.226ZM1350.93 125.938L1350.63 126.891L1350.66 126.899L1350.68 126.906L1350.93 125.938ZM1340.8 122.924L1341.05 121.958L1340.8 122.924ZM1328.74 119.91L1328.5 120.88L1328.51 120.882L1328.74 119.91ZM1316.96 116.896L1316.69 117.861L1316.7 117.862L1316.96 116.896ZM1275.31 97.168L1274.67 97.9408L1274.68 97.9462L1275.31 97.168ZM1281.34 18.53L1281.97 19.3031L1281.97 19.3022L1281.34 18.53ZM1409.02 30.86L1408.23 31.4669L1408.23 31.4705L1409.02 30.86ZM1423 61V62H1424.25L1423.97 60.7797L1423 61ZM1370.94 61L1370 61.3511L1370.24 62H1370.94V61ZM1365.46 52.78L1366.16 52.0729L1366.15 52.0615L1366.14 52.0505L1365.46 52.78ZM1319.7 48.67L1320.22 49.5242L1320.23 49.5161L1320.24 49.5076L1319.7 48.67ZM1322.44 70.59L1321.98 71.479L1322 71.4872L1322.01 71.4948L1322.44 70.59ZM1349.56 79.084L1349.79 78.1109L1349.79 78.1096L1349.56 79.084ZM1364.36 82.92L1364.06 83.8745L1364.1 83.8852L1364.13 83.8934L1364.36 82.92ZM1378.88 87.304L1378.57 88.2527L1378.58 88.2579L1378.6 88.2625L1378.88 87.304ZM1406.56 100.73L1405.99 101.552L1406 101.565L1406.02 101.576L1406.56 100.73ZM1417.52 110.868L1416.68 111.413L1416.69 111.438L1416.71 111.461L1417.52 110.868ZM1424.09 123.746L1423.15 124.082L1423.16 124.097L1423.16 124.112L1424.09 123.746ZM1405.46 185.122L1406.11 185.885L1405.46 185.122ZM1269.83 170.052L1269.04 170.664L1269.04 170.67L1269.83 170.052ZM1253.12 137.35H1305.18V135.35H1253.12V137.35ZM1304.23 136.689C1305.93 141.388 1308.47 145.442 1311.87 148.839L1313.28 147.425C1310.1 144.246 1307.71 140.446 1306.12 136.011L1304.23 136.689ZM1311.87 148.839C1319.77 156.747 1330.84 160.64 1344.91 160.64V158.64C1331.21 158.64 1320.72 154.861 1313.28 147.425L1311.87 148.839ZM1344.91 160.64C1354.66 160.64 1362.11 159.082 1367.1 155.819L1366 154.145C1361.5 157.093 1354.51 158.64 1344.91 158.64V160.64ZM1367.1 155.819C1372.07 152.57 1374.68 148.356 1374.68 143.2H1372.68C1372.68 147.542 1370.53 151.183 1366 154.145L1367.1 155.819ZM1374.68 143.2C1374.68 140.997 1374.07 138.977 1372.86 137.165L1371.2 138.275C1372.18 139.751 1372.68 141.385 1372.68 143.2H1374.68ZM1372.93 137.273C1371.9 135.229 1370.1 133.461 1367.62 131.936L1366.58 133.64C1368.85 135.038 1370.33 136.558 1371.14 138.167L1372.93 137.273ZM1367.65 131.956C1365.41 130.463 1363.17 129.244 1360.91 128.303L1360.14 130.149C1362.27 131.035 1364.4 132.191 1366.54 133.62L1367.65 131.956ZM1360.97 128.332C1358.69 127.189 1355.41 126.073 1351.19 124.97L1350.68 126.906C1354.86 127.995 1357.98 129.071 1360.08 130.12L1360.97 128.332ZM1351.24 124.985C1347.21 123.704 1343.81 122.694 1341.05 121.958L1340.54 123.89C1343.26 124.615 1346.62 125.615 1350.63 126.891L1351.24 124.985ZM1341.05 121.958C1338.3 121.224 1334.27 120.217 1328.97 118.938L1328.51 120.882C1333.8 122.16 1337.81 123.163 1340.54 123.89L1341.05 121.958ZM1328.98 118.94C1323.87 117.662 1319.95 116.658 1317.22 115.93L1316.7 117.862C1319.45 118.595 1323.38 119.601 1328.5 120.88L1328.98 118.94ZM1317.22 115.931C1299.96 111.207 1286.21 104.682 1275.94 96.3898L1274.68 97.9462C1285.23 106.46 1299.25 113.087 1316.69 117.861L1317.22 115.931ZM1275.94 96.3953C1265.99 88.2187 1260.97 76.4721 1260.97 61H1258.97C1258.97 76.9466 1264.17 89.312 1274.67 97.9407L1275.94 96.3953ZM1260.97 61C1260.97 44.7118 1267.93 30.8272 1281.97 19.3031L1280.7 17.7569C1266.25 29.6141 1258.97 44.0428 1258.97 61H1260.97ZM1281.97 19.3022C1296.18 7.61544 1315.29 1.71999 1339.43 1.71999V-0.280006C1314.97 -0.280006 1295.36 5.69788 1280.7 17.7578L1281.97 19.3022ZM1339.43 1.71999C1370.25 1.71999 1393.12 11.6781 1408.23 31.4669L1409.82 30.2531C1394.24 9.85525 1370.71 -0.280006 1339.43 -0.280006V1.71999ZM1408.23 31.4705C1414.9 40.1177 1419.49 50.0297 1422.02 61.2203L1423.97 60.7797C1421.38 49.3196 1416.67 39.1383 1409.81 30.2495L1408.23 31.4705ZM1423 60H1370.94V62H1423V60ZM1371.87 60.6489C1370.72 57.573 1368.81 54.7152 1366.16 52.0729L1364.75 53.4871C1367.22 55.9594 1368.96 58.5817 1370 61.3511L1371.87 60.6489ZM1366.14 52.0505C1360.04 46.3336 1351.08 43.56 1339.43 43.56V45.56C1350.79 45.56 1359.18 48.2664 1364.77 53.5095L1366.14 52.0505ZM1339.43 43.56C1330.41 43.56 1323.6 44.9319 1319.15 47.8324L1320.24 49.5076C1324.2 46.9281 1330.54 45.56 1339.43 45.56V43.56ZM1319.18 47.8158C1314.77 50.4961 1312.4 53.9755 1312.4 58.26H1314.4C1314.4 54.8725 1316.22 51.9586 1320.22 49.5242L1319.18 47.8158ZM1312.4 58.26C1312.4 63.8727 1315.75 68.2673 1321.98 71.479L1322.9 69.701C1317.07 66.702 1314.4 62.8766 1314.4 58.26H1312.4ZM1322.01 71.4948C1328.32 74.4624 1337.44 77.3127 1349.34 80.0584L1349.79 78.1096C1337.94 75.3753 1328.98 72.5629 1322.86 69.6852L1322.01 71.4948ZM1349.33 80.0571C1356.27 81.7009 1361.18 82.9726 1364.06 83.8745L1364.66 81.9655C1361.7 81.0407 1356.74 79.7551 1349.79 78.1109L1349.33 80.0571ZM1364.13 83.8934C1367.19 84.613 1371.99 86.0619 1378.57 88.2527L1379.2 86.3553C1372.62 84.1621 1367.74 82.6884 1364.59 81.9466L1364.13 83.8934ZM1378.6 88.2625C1385.33 90.2655 1390.38 92.1616 1393.76 93.9429L1394.69 92.1731C1391.13 90.3011 1385.95 88.3612 1379.17 86.3455L1378.6 88.2625ZM1393.76 93.9429C1397.18 95.7443 1401.26 98.2775 1405.99 101.552L1407.12 99.9078C1402.36 96.6065 1398.21 94.0251 1394.69 92.1731L1393.76 93.9429ZM1406.02 101.576C1410.87 104.629 1414.4 107.915 1416.68 111.413L1418.35 110.323C1415.88 106.515 1412.1 103.041 1407.09 99.8838L1406.02 101.576ZM1416.71 111.461C1419.2 114.836 1421.35 119.037 1423.15 124.082L1425.03 123.41C1423.18 118.226 1420.95 113.841 1418.32 110.275L1416.71 111.461ZM1423.16 124.112C1425.12 129.099 1426.11 134.545 1426.11 140.46H1428.11C1428.11 134.319 1427.08 128.622 1425.02 123.38L1423.16 124.112ZM1426.11 140.46C1426.11 157.677 1419.04 172.294 1404.81 184.359L1406.11 185.885C1420.74 173.473 1428.11 158.315 1428.11 140.46H1426.11ZM1404.81 184.359C1390.62 196.396 1370.7 202.48 1344.91 202.48V204.48C1370.99 204.48 1391.44 198.325 1406.11 185.885L1404.81 184.359ZM1344.91 202.48C1312.65 202.48 1287.93 191.441 1270.62 169.434L1269.04 170.67C1286.8 193.234 1312.14 204.48 1344.91 204.48V202.48ZM1270.62 169.44C1263.22 159.868 1257.7 148.75 1254.08 136.075L1252.15 136.625C1255.84 149.523 1261.47 160.874 1269.04 170.664L1270.62 169.44Z" fill="black" mask="url(#path-1-outside-1_2_356)"/>
</g>
</svg>
