<svg width="900" height="214" viewBox="0 0 900 214" fill="none" xmlns="http://www.w3.org/2000/svg">
<path d="M2.89844 97.5391H1.57031V86.1172H7.9375V87.2969H2.89844V91.4766H7.63281V92.6562H2.89844V97.5391ZM13.2578 97.6953C11.9922 97.6953 10.9922 97.3099 10.2578 96.5391C9.52865 95.7682 9.16406 94.6979 9.16406 93.3281C9.16406 91.9479 9.5026 90.8516 10.1797 90.0391C10.862 89.2266 11.776 88.8203 12.9219 88.8203C13.9948 88.8203 14.8438 89.1745 15.4688 89.8828C16.0938 90.5859 16.4062 91.5156 16.4062 92.6719V93.4922H10.5078C10.5339 94.4974 10.7865 95.2604 11.2656 95.7812C11.75 96.3021 12.4297 96.5625 13.3047 96.5625C14.2266 96.5625 15.138 96.3698 16.0391 95.9844V97.1406C15.5807 97.3385 15.1458 97.4792 14.7344 97.5625C14.3281 97.651 13.8359 97.6953 13.2578 97.6953ZM12.9062 89.9062C12.2188 89.9062 11.6693 90.1302 11.2578 90.5781C10.8516 91.026 10.612 91.6458 10.5391 92.4375H15.0156C15.0156 91.6198 14.8333 90.9948 14.4688 90.5625C14.1042 90.125 13.5833 89.9062 12.9062 89.9062ZM23.8906 97.5391L23.6328 96.3203H23.5703C23.1432 96.8568 22.7161 97.2214 22.2891 97.4141C21.8672 97.6016 21.3385 97.6953 20.7031 97.6953C19.8542 97.6953 19.1875 97.4766 18.7031 97.0391C18.224 96.6016 17.9844 95.9792 17.9844 95.1719C17.9844 93.4427 19.3672 92.5365 22.1328 92.4531L23.5859 92.4062V91.875C23.5859 91.2031 23.4401 90.7083 23.1484 90.3906C22.862 90.0677 22.401 89.9062 21.7656 89.9062C21.0521 89.9062 20.2448 90.125 19.3438 90.5625L18.9453 89.5703C19.3672 89.3411 19.8281 89.1615 20.3281 89.0312C20.8333 88.901 21.3385 88.8359 21.8438 88.8359C22.8646 88.8359 23.6198 89.0625 24.1094 89.5156C24.6042 89.9688 24.8516 90.6953 24.8516 91.6953V97.5391H23.8906ZM20.9609 96.625C21.7682 96.625 22.401 96.4036 22.8594 95.9609C23.3229 95.5182 23.5547 94.8984 23.5547 94.1016V93.3281L22.2578 93.3828C21.2266 93.4193 20.4818 93.5807 20.0234 93.8672C19.5703 94.1484 19.3438 94.5885 19.3438 95.1875C19.3438 95.6562 19.4844 96.013 19.7656 96.2578C20.0521 96.5026 20.4505 96.625 20.9609 96.625ZM30.2969 96.625C30.526 96.625 30.7474 96.6094 30.9609 96.5781C31.1745 96.5417 31.3438 96.5052 31.4688 96.4688V97.4609C31.3281 97.5286 31.1198 97.5833 30.8438 97.625C30.5729 97.6719 30.3281 97.6953 30.1094 97.6953C28.4531 97.6953 27.625 96.8229 27.625 95.0781V89.9844H26.3984V89.3594L27.625 88.8203L28.1719 86.9922H28.9219V88.9766H31.4062V89.9844H28.9219V95.0234C28.9219 95.5391 29.0443 95.9349 29.2891 96.2109C29.5339 96.487 29.8698 96.625 30.2969 96.625ZM34.4062 88.9766V94.5312C34.4062 95.2292 34.5651 95.75 34.8828 96.0938C35.2005 96.4375 35.6979 96.6094 36.375 96.6094C37.2708 96.6094 37.9245 96.3646 38.3359 95.875C38.7526 95.3854 38.9609 94.5859 38.9609 93.4766V88.9766H40.2578V97.5391H39.1875L39 96.3906H38.9297C38.6641 96.8125 38.2943 97.1354 37.8203 97.3594C37.3516 97.5833 36.8151 97.6953 36.2109 97.6953C35.1693 97.6953 34.388 97.4479 33.8672 96.9531C33.3516 96.4583 33.0938 95.6667 33.0938 94.5781V88.9766H34.4062ZM46.9219 88.8203C47.3021 88.8203 47.6432 88.8516 47.9453 88.9141L47.7656 90.1172C47.4115 90.0391 47.099 90 46.8281 90C46.1354 90 45.5417 90.2812 45.0469 90.8438C44.5573 91.4062 44.3125 92.1068 44.3125 92.9453V97.5391H43.0156V88.9766H44.0859L44.2344 90.5625H44.2969C44.6146 90.0052 44.9974 89.5755 45.4453 89.2734C45.8932 88.9714 46.3854 88.8203 46.9219 88.8203ZM53.1641 97.6953C51.8984 97.6953 50.8984 97.3099 50.1641 96.5391C49.4349 95.7682 49.0703 94.6979 49.0703 93.3281C49.0703 91.9479 49.4089 90.8516 50.0859 90.0391C50.7682 89.2266 51.6823 88.8203 52.8281 88.8203C53.901 88.8203 54.75 89.1745 55.375 89.8828C56 90.5859 56.3125 91.5156 56.3125 92.6719V93.4922H50.4141C50.4401 94.4974 50.6927 95.2604 51.1719 95.7812C51.6562 96.3021 52.3359 96.5625 53.2109 96.5625C54.1328 96.5625 55.0443 96.3698 55.9453 95.9844V97.1406C55.487 97.3385 55.0521 97.4792 54.6406 97.5625C54.2344 97.651 53.7422 97.6953 53.1641 97.6953ZM52.8125 89.9062C52.125 89.9062 51.5755 90.1302 51.1641 90.5781C50.7578 91.026 50.5182 91.6458 50.4453 92.4375H54.9219C54.9219 91.6198 54.7396 90.9948 54.375 90.5625C54.0104 90.125 53.4896 89.9062 52.8125 89.9062ZM64.0547 95.2031C64.0547 96 63.7578 96.6146 63.1641 97.0469C62.5703 97.4792 61.737 97.6953 60.6641 97.6953C59.5286 97.6953 58.6432 97.5156 58.0078 97.1562V95.9531C58.4193 96.1615 58.8594 96.3255 59.3281 96.4453C59.8021 96.5651 60.2578 96.625 60.6953 96.625C61.3724 96.625 61.8932 96.5182 62.2578 96.3047C62.6224 96.0859 62.8047 95.7552 62.8047 95.3125C62.8047 94.9792 62.6589 94.6953 62.3672 94.4609C62.0807 94.2214 61.5182 93.9401 60.6797 93.6172C59.8828 93.3203 59.3151 93.0625 58.9766 92.8438C58.6432 92.6198 58.3932 92.3672 58.2266 92.0859C58.0651 91.8047 57.9844 91.4688 57.9844 91.0781C57.9844 90.3802 58.2682 89.8307 58.8359 89.4297C59.4036 89.0234 60.1823 88.8203 61.1719 88.8203C62.0938 88.8203 62.9948 89.0078 63.875 89.3828L63.4141 90.4375C62.5547 90.0833 61.776 89.9062 61.0781 89.9062C60.4635 89.9062 60 90.0026 59.6875 90.1953C59.375 90.388 59.2188 90.6536 59.2188 90.9922C59.2188 91.2214 59.276 91.4167 59.3906 91.5781C59.5104 91.7396 59.7005 91.8932 59.9609 92.0391C60.2214 92.1849 60.7214 92.3958 61.4609 92.6719C62.4766 93.0417 63.1615 93.4141 63.5156 93.7891C63.875 94.1641 64.0547 94.6354 64.0547 95.2031Z" fill="#717082"/>
<path d="M8.8125 123.445C8.8125 124.602 8.41667 125.492 7.625 126.117C6.83854 126.737 5.71094 127.047 4.24219 127.047H2.89844V131.539H1.57031V120.117H4.53125C7.38542 120.117 8.8125 121.227 8.8125 123.445ZM2.89844 125.906H4.09375C5.27083 125.906 6.1224 125.716 6.64844 125.336C7.17448 124.956 7.4375 124.346 7.4375 123.508C7.4375 122.753 7.1901 122.19 6.69531 121.82C6.20052 121.451 5.42969 121.266 4.38281 121.266H2.89844V125.906ZM14.9219 122.82C15.3021 122.82 15.6432 122.852 15.9453 122.914L15.7656 124.117C15.4115 124.039 15.099 124 14.8281 124C14.1354 124 13.5417 124.281 13.0469 124.844C12.5573 125.406 12.3125 126.107 12.3125 126.945V131.539H11.0156V122.977H12.0859L12.2344 124.562H12.2969C12.6146 124.005 12.9974 123.576 13.4453 123.273C13.8932 122.971 14.3854 122.82 14.9219 122.82ZM18.8438 131.539H17.5469V122.977H18.8438V131.539ZM17.4375 120.656C17.4375 120.359 17.5104 120.143 17.6562 120.008C17.8021 119.867 17.9844 119.797 18.2031 119.797C18.4115 119.797 18.5911 119.867 18.7422 120.008C18.8932 120.148 18.9688 120.365 18.9688 120.656C18.9688 120.948 18.8932 121.167 18.7422 121.312C18.5911 121.453 18.4115 121.523 18.2031 121.523C17.9844 121.523 17.8021 121.453 17.6562 121.312C17.5104 121.167 17.4375 120.948 17.4375 120.656ZM25.0156 131.695C23.776 131.695 22.8151 131.315 22.1328 130.555C21.4557 129.789 21.1172 128.708 21.1172 127.312C21.1172 125.88 21.4609 124.773 22.1484 123.992C22.8411 123.211 23.8255 122.82 25.1016 122.82C25.513 122.82 25.9245 122.865 26.3359 122.953C26.7474 123.042 27.0703 123.146 27.3047 123.266L26.9062 124.367C26.6198 124.253 26.3073 124.159 25.9688 124.086C25.6302 124.008 25.3307 123.969 25.0703 123.969C23.3307 123.969 22.4609 125.078 22.4609 127.297C22.4609 128.349 22.6719 129.156 23.0938 129.719C23.5208 130.281 24.151 130.562 24.9844 130.562C25.6979 130.562 26.4297 130.409 27.1797 130.102V131.25C26.6068 131.547 25.8854 131.695 25.0156 131.695ZM30.5156 131.539H29.2188V122.977H30.5156V131.539ZM29.1094 120.656C29.1094 120.359 29.1823 120.143 29.3281 120.008C29.474 119.867 29.6562 119.797 29.875 119.797C30.0833 119.797 30.263 119.867 30.4141 120.008C30.5651 120.148 30.6406 120.365 30.6406 120.656C30.6406 120.948 30.5651 121.167 30.4141 121.312C30.263 121.453 30.0833 121.523 29.875 121.523C29.6562 121.523 29.474 121.453 29.3281 121.312C29.1823 121.167 29.1094 120.948 29.1094 120.656ZM39.125 131.539V126C39.125 125.302 38.9661 124.781 38.6484 124.438C38.3307 124.094 37.8333 123.922 37.1562 123.922C36.2604 123.922 35.6042 124.164 35.1875 124.648C34.7708 125.133 34.5625 125.932 34.5625 127.047V131.539H33.2656V122.977H34.3203L34.5312 124.148H34.5938C34.8594 123.727 35.2318 123.401 35.7109 123.172C36.1901 122.938 36.724 122.82 37.3125 122.82C38.3438 122.82 39.1198 123.07 39.6406 123.57C40.1615 124.065 40.4219 124.859 40.4219 125.953V131.539H39.125ZM50.1016 122.977V123.797L48.5156 123.984C48.6615 124.167 48.7917 124.406 48.9062 124.703C49.0208 124.995 49.0781 125.326 49.0781 125.695C49.0781 126.534 48.7917 127.203 48.2188 127.703C47.6458 128.203 46.8594 128.453 45.8594 128.453C45.6042 128.453 45.3646 128.432 45.1406 128.391C44.5885 128.682 44.3125 129.049 44.3125 129.492C44.3125 129.727 44.4089 129.901 44.6016 130.016C44.7943 130.125 45.125 130.18 45.5938 130.18H47.1094C48.0365 130.18 48.7474 130.375 49.2422 130.766C49.7422 131.156 49.9922 131.724 49.9922 132.469C49.9922 133.417 49.612 134.138 48.8516 134.633C48.0911 135.133 46.9818 135.383 45.5234 135.383C44.4036 135.383 43.5391 135.174 42.9297 134.758C42.3255 134.341 42.0234 133.753 42.0234 132.992C42.0234 132.471 42.1901 132.021 42.5234 131.641C42.8568 131.26 43.3255 131.003 43.9297 130.867C43.7109 130.768 43.526 130.615 43.375 130.406C43.2292 130.198 43.1562 129.956 43.1562 129.68C43.1562 129.367 43.2396 129.094 43.4062 128.859C43.5729 128.625 43.8359 128.398 44.1953 128.18C43.7526 127.997 43.3906 127.688 43.1094 127.25C42.8333 126.812 42.6953 126.312 42.6953 125.75C42.6953 124.812 42.9766 124.091 43.5391 123.586C44.1016 123.076 44.8984 122.82 45.9297 122.82C46.3776 122.82 46.7812 122.872 47.1406 122.977H50.1016ZM43.2734 132.977C43.2734 133.44 43.4688 133.792 43.8594 134.031C44.25 134.271 44.8099 134.391 45.5391 134.391C46.6276 134.391 47.4323 134.227 47.9531 133.898C48.4792 133.576 48.7422 133.135 48.7422 132.578C48.7422 132.115 48.599 131.792 48.3125 131.609C48.026 131.432 47.487 131.344 46.6953 131.344H45.1406C44.5521 131.344 44.0938 131.484 43.7656 131.766C43.4375 132.047 43.2734 132.451 43.2734 132.977ZM43.9766 125.719C43.9766 126.318 44.1458 126.771 44.4844 127.078C44.8229 127.385 45.2943 127.539 45.8984 127.539C47.1641 127.539 47.7969 126.924 47.7969 125.695C47.7969 124.409 47.1562 123.766 45.875 123.766C45.2656 123.766 44.7969 123.93 44.4688 124.258C44.1406 124.586 43.9766 125.073 43.9766 125.719Z" fill="#717082"/>
<path d="M2.89844 165.539H1.57031V154.117H7.9375V155.297H2.89844V159.477H7.63281V160.656H2.89844V165.539ZM17.0156 165.539L15.5938 161.906H11.0156L9.60938 165.539H8.26562L12.7812 154.07H13.8984L18.3906 165.539H17.0156ZM15.1797 160.711L13.8516 157.172C13.6797 156.724 13.5026 156.174 13.3203 155.523C13.2057 156.023 13.0417 156.573 12.8281 157.172L11.4844 160.711H15.1797ZM29.875 159.812C29.875 161.276 29.5807 162.492 28.9922 163.461C28.4036 164.43 27.5729 165.086 26.5 165.43L29.2188 168.258H27.2891L25.0625 165.68L24.6328 165.695C22.9505 165.695 21.651 165.182 20.7344 164.156C19.8229 163.125 19.3672 161.672 19.3672 159.797C19.3672 157.938 19.8255 156.497 20.7422 155.477C21.6589 154.451 22.9609 153.938 24.6484 153.938C26.2891 153.938 27.5703 154.458 28.4922 155.5C29.4141 156.542 29.875 157.979 29.875 159.812ZM20.7734 159.812C20.7734 161.359 21.1016 162.534 21.7578 163.336C22.4193 164.133 23.3776 164.531 24.6328 164.531C25.8984 164.531 26.8542 164.133 27.5 163.336C28.1458 162.539 28.4688 161.365 28.4688 159.812C28.4688 158.276 28.1458 157.112 27.5 156.32C26.8594 155.523 25.9089 155.125 24.6484 155.125C23.3828 155.125 22.4193 155.526 21.7578 156.328C21.1016 157.125 20.7734 158.286 20.7734 159.812Z" fill="#717082"/>
<path d="M10.6875 193.719C10.6875 195.604 10.1745 197.047 9.14844 198.047C8.1276 199.042 6.65625 199.539 4.73438 199.539H1.57031V188.117H5.07031C6.84635 188.117 8.22656 188.609 9.21094 189.594C10.1953 190.578 10.6875 191.953 10.6875 193.719ZM9.28125 193.766C9.28125 192.276 8.90625 191.154 8.15625 190.398C7.41146 189.643 6.30208 189.266 4.82812 189.266H2.89844V198.391H4.51562C6.09896 198.391 7.28906 198.003 8.08594 197.227C8.88281 196.445 9.28125 195.292 9.28125 193.766ZM20.4375 195.25C20.4375 196.646 20.0859 197.737 19.3828 198.523C18.6797 199.305 17.7083 199.695 16.4688 199.695C15.7031 199.695 15.0234 199.516 14.4297 199.156C13.8359 198.797 13.3776 198.281 13.0547 197.609C12.7318 196.938 12.5703 196.151 12.5703 195.25C12.5703 193.854 12.9193 192.768 13.6172 191.992C14.3151 191.211 15.2839 190.82 16.5234 190.82C17.7214 190.82 18.6719 191.219 19.375 192.016C20.0833 192.812 20.4375 193.891 20.4375 195.25ZM13.9141 195.25C13.9141 196.344 14.1328 197.177 14.5703 197.75C15.0078 198.323 15.651 198.609 16.5 198.609C17.349 198.609 17.9922 198.326 18.4297 197.758C18.8724 197.185 19.0938 196.349 19.0938 195.25C19.0938 194.161 18.8724 193.336 18.4297 192.773C17.9922 192.206 17.3438 191.922 16.4844 191.922C15.6354 191.922 14.9948 192.201 14.5625 192.758C14.1302 193.315 13.9141 194.146 13.9141 195.25ZM29.7109 199.539L28.1406 194.516C28.0417 194.208 27.8568 193.51 27.5859 192.422H27.5234C27.3151 193.333 27.1328 194.036 26.9766 194.531L25.3594 199.539H23.8594L21.5234 190.977H22.8828C23.4349 193.128 23.8542 194.766 24.1406 195.891C24.4323 197.016 24.599 197.773 24.6406 198.164H24.7031C24.7604 197.867 24.8516 197.484 24.9766 197.016C25.1068 196.542 25.2188 196.167 25.3125 195.891L26.8828 190.977H28.2891L29.8203 195.891C30.112 196.786 30.3099 197.539 30.4141 198.148H30.4766C30.4974 197.961 30.5521 197.672 30.6406 197.281C30.7344 196.891 31.2786 194.789 32.2734 190.977H33.6172L31.25 199.539H29.7109ZM41.0312 199.539V194C41.0312 193.302 40.8724 192.781 40.5547 192.438C40.237 192.094 39.7396 191.922 39.0625 191.922C38.1667 191.922 37.5104 192.164 37.0938 192.648C36.6771 193.133 36.4688 193.932 36.4688 195.047V199.539H35.1719V190.977H36.2266L36.4375 192.148H36.5C36.7656 191.727 37.138 191.401 37.6172 191.172C38.0964 190.938 38.6302 190.82 39.2188 190.82C40.25 190.82 41.026 191.07 41.5469 191.57C42.0677 192.065 42.3281 192.859 42.3281 193.953V199.539H41.0312ZM46.2969 199.539H45V187.383H46.2969V199.539ZM56.4375 195.25C56.4375 196.646 56.0859 197.737 55.3828 198.523C54.6797 199.305 53.7083 199.695 52.4688 199.695C51.7031 199.695 51.0234 199.516 50.4297 199.156C49.8359 198.797 49.3776 198.281 49.0547 197.609C48.7318 196.938 48.5703 196.151 48.5703 195.25C48.5703 193.854 48.9193 192.768 49.6172 191.992C50.3151 191.211 51.2839 190.82 52.5234 190.82C53.7214 190.82 54.6719 191.219 55.375 192.016C56.0833 192.812 56.4375 193.891 56.4375 195.25ZM49.9141 195.25C49.9141 196.344 50.1328 197.177 50.5703 197.75C51.0078 198.323 51.651 198.609 52.5 198.609C53.349 198.609 53.9922 198.326 54.4297 197.758C54.8724 197.185 55.0938 196.349 55.0938 195.25C55.0938 194.161 54.8724 193.336 54.4297 192.773C53.9922 192.206 53.3438 191.922 52.4844 191.922C51.6354 191.922 50.9948 192.201 50.5625 192.758C50.1302 193.315 49.9141 194.146 49.9141 195.25ZM63.9844 199.539L63.7266 198.32H63.6641C63.237 198.857 62.8099 199.221 62.3828 199.414C61.9609 199.602 61.4323 199.695 60.7969 199.695C59.9479 199.695 59.2812 199.477 58.7969 199.039C58.3177 198.602 58.0781 197.979 58.0781 197.172C58.0781 195.443 59.4609 194.536 62.2266 194.453L63.6797 194.406V193.875C63.6797 193.203 63.5339 192.708 63.2422 192.391C62.9557 192.068 62.4948 191.906 61.8594 191.906C61.1458 191.906 60.3385 192.125 59.4375 192.562L59.0391 191.57C59.4609 191.341 59.9219 191.161 60.4219 191.031C60.9271 190.901 61.4323 190.836 61.9375 190.836C62.9583 190.836 63.7135 191.062 64.2031 191.516C64.6979 191.969 64.9453 192.695 64.9453 193.695V199.539H63.9844ZM61.0547 198.625C61.862 198.625 62.4948 198.404 62.9531 197.961C63.4167 197.518 63.6484 196.898 63.6484 196.102V195.328L62.3516 195.383C61.3203 195.419 60.5755 195.581 60.1172 195.867C59.6641 196.148 59.4375 196.589 59.4375 197.188C59.4375 197.656 59.5781 198.013 59.8594 198.258C60.1458 198.503 60.5443 198.625 61.0547 198.625ZM73.4531 198.391H73.3828C72.7839 199.26 71.888 199.695 70.6953 199.695C69.5755 199.695 68.7031 199.312 68.0781 198.547C67.4583 197.781 67.1484 196.693 67.1484 195.281C67.1484 193.87 67.4609 192.773 68.0859 191.992C68.7109 191.211 69.5807 190.82 70.6953 190.82C71.8568 190.82 72.7474 191.242 73.3672 192.086H73.4688L73.4141 191.469L73.3828 190.867V187.383H74.6797V199.539H73.625L73.4531 198.391ZM70.8594 198.609C71.7448 198.609 72.3854 198.37 72.7812 197.891C73.1823 197.406 73.3828 196.628 73.3828 195.555V195.281C73.3828 194.068 73.1797 193.203 72.7734 192.688C72.3724 192.167 71.7292 191.906 70.8438 191.906C70.0833 191.906 69.5 192.203 69.0938 192.797C68.6927 193.385 68.4922 194.219 68.4922 195.297C68.4922 196.391 68.6927 197.216 69.0938 197.773C69.4948 198.331 70.0833 198.609 70.8594 198.609Z" fill="#717082"/>
<path d="M10.2188 63.5391H8.89062V58.1562H2.89062V63.5391H1.5625V52.1172H2.89062V56.9844H8.89062V52.1172H10.2188V63.5391ZM20.5469 59.2422C20.5469 59.9453 20.4557 60.5729 20.2734 61.125C20.0911 61.6771 19.8281 62.1432 19.4844 62.5234C19.1406 62.9036 18.724 63.1953 18.2344 63.3984C17.75 63.5964 17.2005 63.6953 16.5859 63.6953C16.013 63.6953 15.487 63.5964 15.0078 63.3984C14.5339 63.1953 14.1224 62.9036 13.7734 62.5234C13.4297 62.1432 13.1615 61.6771 12.9688 61.125C12.7812 60.5729 12.6875 59.9453 12.6875 59.2422C12.6875 58.3047 12.8464 57.5078 13.1641 56.8516C13.4818 56.1901 13.9349 55.6875 14.5234 55.3438C15.1172 54.9948 15.8229 54.8203 16.6406 54.8203C17.4219 54.8203 18.1042 54.9948 18.6875 55.3438C19.276 55.6927 19.7318 56.1979 20.0547 56.8594C20.3828 57.5156 20.5469 58.3099 20.5469 59.2422ZM14.0312 59.2422C14.0312 59.9297 14.1224 60.526 14.3047 61.0312C14.487 61.5365 14.7682 61.9271 15.1484 62.2031C15.5286 62.4792 16.0182 62.6172 16.6172 62.6172C17.2109 62.6172 17.6979 62.4792 18.0781 62.2031C18.4635 61.9271 18.7474 61.5365 18.9297 61.0312C19.112 60.526 19.2031 59.9297 19.2031 59.2422C19.2031 58.5599 19.112 57.9714 18.9297 57.4766C18.7474 56.9766 18.4661 56.5911 18.0859 56.3203C17.7057 56.0495 17.2135 55.9141 16.6094 55.9141C15.7188 55.9141 15.0651 56.2083 14.6484 56.7969C14.237 57.3854 14.0312 58.2005 14.0312 59.2422ZM29.7578 63.5234L28.2344 58.5391C28.1667 58.3255 28.1016 58.1172 28.0391 57.9141C27.9818 57.7057 27.9271 57.5078 27.875 57.3203C27.8281 57.1276 27.7839 56.9505 27.7422 56.7891C27.7057 56.6224 27.6745 56.4792 27.6484 56.3594H27.5938C27.5729 56.4792 27.5443 56.6224 27.5078 56.7891C27.4714 56.9505 27.4271 57.1276 27.375 57.3203C27.3281 57.513 27.276 57.7161 27.2188 57.9297C27.1615 58.138 27.0964 58.349 27.0234 58.5625L25.4297 63.5234H23.9688L21.6094 54.9609H22.9531L24.1875 59.6875C24.2708 60 24.349 60.3099 24.4219 60.6172C24.5 60.9193 24.5651 61.2057 24.6172 61.4766C24.6745 61.7422 24.7161 61.974 24.7422 62.1719H24.8047C24.8359 62.0417 24.8698 61.8854 24.9062 61.7031C24.9479 61.5208 24.9922 61.3281 25.0391 61.125C25.0911 60.9167 25.1458 60.7109 25.2031 60.5078C25.2604 60.2995 25.3177 60.1042 25.375 59.9219L26.9531 54.9609H28.3516L29.875 59.9141C29.9531 60.1641 30.0286 60.4245 30.1016 60.6953C30.1797 60.9661 30.25 61.2292 30.3125 61.4844C30.375 61.7344 30.4193 61.9583 30.4453 62.1562H30.5078C30.5286 61.9792 30.5677 61.7604 30.625 61.5C30.6823 61.2396 30.7474 60.9531 30.8203 60.6406C30.8984 60.3281 30.9792 60.0104 31.0625 59.6875L32.3125 54.9609H33.6328L31.2656 63.5234H29.7578ZM40.6484 54.9766V63.5391H39.3516V54.9766H40.6484ZM40.0156 51.7734C40.2292 51.7734 40.4115 51.8438 40.5625 51.9844C40.7188 52.1198 40.7969 52.3333 40.7969 52.625C40.7969 52.9115 40.7188 53.125 40.5625 53.2656C40.4115 53.4062 40.2292 53.4766 40.0156 53.4766C39.7917 53.4766 39.6042 53.4062 39.4531 53.2656C39.3073 53.125 39.2344 52.9115 39.2344 52.625C39.2344 52.3333 39.3073 52.1198 39.4531 51.9844C39.6042 51.8438 39.7917 51.7734 40.0156 51.7734ZM46.1641 62.6328C46.3776 62.6328 46.5964 62.6146 46.8203 62.5781C47.0443 62.5417 47.2266 62.4974 47.3672 62.4453V63.4531C47.2161 63.5208 47.0052 63.5781 46.7344 63.625C46.4688 63.6719 46.2083 63.6953 45.9531 63.6953C45.5 63.6953 45.0885 63.6172 44.7188 63.4609C44.349 63.2995 44.0521 63.0286 43.8281 62.6484C43.6094 62.2682 43.5 61.7422 43.5 61.0703V55.9922H42.2812V55.3594L43.5078 54.8516L44.0234 52.9922H44.8047V54.9766H47.3125V55.9922H44.8047V61.0312C44.8047 61.5677 44.9271 61.9688 45.1719 62.2344C45.4219 62.5 45.7526 62.6328 46.1641 62.6328ZM60.2266 63.5234L58.7031 58.5391C58.6354 58.3255 58.5703 58.1172 58.5078 57.9141C58.4505 57.7057 58.3958 57.5078 58.3438 57.3203C58.2969 57.1276 58.2526 56.9505 58.2109 56.7891C58.1745 56.6224 58.1432 56.4792 58.1172 56.3594H58.0625C58.0417 56.4792 58.013 56.6224 57.9766 56.7891C57.9401 56.9505 57.8958 57.1276 57.8438 57.3203C57.7969 57.513 57.7448 57.7161 57.6875 57.9297C57.6302 58.138 57.5651 58.349 57.4922 58.5625L55.8984 63.5234H54.4375L52.0781 54.9609H53.4219L54.6562 59.6875C54.7396 60 54.8177 60.3099 54.8906 60.6172C54.9688 60.9193 55.0339 61.2057 55.0859 61.4766C55.1432 61.7422 55.1849 61.974 55.2109 62.1719H55.2734C55.3047 62.0417 55.3385 61.8854 55.375 61.7031C55.4167 61.5208 55.4609 61.3281 55.5078 61.125C55.5599 60.9167 55.6146 60.7109 55.6719 60.5078C55.7292 60.2995 55.7865 60.1042 55.8438 59.9219L57.4219 54.9609H58.8203L60.3438 59.9141C60.4219 60.1641 60.4974 60.4245 60.5703 60.6953C60.6484 60.9661 60.7188 61.2292 60.7812 61.4844C60.8438 61.7344 60.888 61.9583 60.9141 62.1562H60.9766C60.9974 61.9792 61.0365 61.7604 61.0938 61.5C61.151 61.2396 61.2161 60.9531 61.2891 60.6406C61.3672 60.3281 61.4479 60.0104 61.5312 59.6875L62.7812 54.9609H64.1016L61.7344 63.5234H60.2266ZM73.0469 59.2422C73.0469 59.9453 72.9557 60.5729 72.7734 61.125C72.5911 61.6771 72.3281 62.1432 71.9844 62.5234C71.6406 62.9036 71.224 63.1953 70.7344 63.3984C70.25 63.5964 69.7005 63.6953 69.0859 63.6953C68.513 63.6953 67.987 63.5964 67.5078 63.3984C67.0339 63.1953 66.6224 62.9036 66.2734 62.5234C65.9297 62.1432 65.6615 61.6771 65.4688 61.125C65.2812 60.5729 65.1875 59.9453 65.1875 59.2422C65.1875 58.3047 65.3464 57.5078 65.6641 56.8516C65.9818 56.1901 66.4349 55.6875 67.0234 55.3438C67.6172 54.9948 68.3229 54.8203 69.1406 54.8203C69.9219 54.8203 70.6042 54.9948 71.1875 55.3438C71.776 55.6927 72.2318 56.1979 72.5547 56.8594C72.8828 57.5156 73.0469 58.3099 73.0469 59.2422ZM66.5312 59.2422C66.5312 59.9297 66.6224 60.526 66.8047 61.0312C66.987 61.5365 67.2682 61.9271 67.6484 62.2031C68.0286 62.4792 68.5182 62.6172 69.1172 62.6172C69.7109 62.6172 70.1979 62.4792 70.5781 62.2031C70.9635 61.9271 71.2474 61.5365 71.4297 61.0312C71.612 60.526 71.7031 59.9297 71.7031 59.2422C71.7031 58.5599 71.612 57.9714 71.4297 57.4766C71.2474 56.9766 70.9661 56.5911 70.5859 56.3203C70.2057 56.0495 69.7135 55.9141 69.1094 55.9141C68.2188 55.9141 67.5651 56.2083 67.1484 56.7969C66.737 57.3854 66.5312 58.2005 66.5312 59.2422ZM79.1797 54.8203C79.3516 54.8203 79.5312 54.8307 79.7188 54.8516C79.9062 54.8672 80.0729 54.8906 80.2188 54.9219L80.0547 56.125C79.9141 56.0885 79.7578 56.0599 79.5859 56.0391C79.4141 56.0182 79.2526 56.0078 79.1016 56.0078C78.7578 56.0078 78.4323 56.0781 78.125 56.2188C77.8229 56.3542 77.5573 56.5521 77.3281 56.8125C77.099 57.0677 76.9193 57.3776 76.7891 57.7422C76.6589 58.1016 76.5938 58.5026 76.5938 58.9453V63.5391H75.2891V54.9766H76.3672L76.5078 56.5547H76.5625C76.7396 56.237 76.9531 55.9479 77.2031 55.6875C77.4531 55.4219 77.7422 55.2109 78.0703 55.0547C78.4036 54.8984 78.7734 54.8203 79.1797 54.8203ZM83.125 51.3828V57.6953C83.125 57.9036 83.1172 58.1589 83.1016 58.4609C83.0859 58.7578 83.0729 59.0208 83.0625 59.25H83.1172C83.2266 59.1146 83.3854 58.9141 83.5938 58.6484C83.8073 58.3828 83.987 58.1693 84.1328 58.0078L86.9766 54.9766H88.5L85.0547 58.6328L88.75 63.5391H87.1875L84.1641 59.4844L83.125 60.4375V63.5391H81.8359V51.3828H83.125ZM95.7812 61.1953C95.7812 61.7422 95.6432 62.2031 95.3672 62.5781C95.0964 62.9479 94.7057 63.2266 94.1953 63.4141C93.6901 63.6016 93.0859 63.6953 92.3828 63.6953C91.7839 63.6953 91.2656 63.6484 90.8281 63.5547C90.3906 63.4609 90.0078 63.3281 89.6797 63.1562V61.9609C90.0286 62.1328 90.4453 62.2891 90.9297 62.4297C91.4141 62.5703 91.9089 62.6406 92.4141 62.6406C93.1536 62.6406 93.6901 62.5208 94.0234 62.2812C94.3568 62.0417 94.5234 61.7161 94.5234 61.3047C94.5234 61.0703 94.4557 60.8646 94.3203 60.6875C94.1901 60.5052 93.9688 60.3307 93.6562 60.1641C93.3438 59.9922 92.9115 59.8047 92.3594 59.6016C91.8125 59.3932 91.3385 59.1875 90.9375 58.9844C90.5417 58.776 90.2344 58.5234 90.0156 58.2266C89.8021 57.9297 89.6953 57.5443 89.6953 57.0703C89.6953 56.3464 89.987 55.7917 90.5703 55.4062C91.1589 55.0156 91.9297 54.8203 92.8828 54.8203C93.3984 54.8203 93.8802 54.8724 94.3281 54.9766C94.7812 55.0755 95.2031 55.2109 95.5938 55.3828L95.1562 56.4219C94.8021 56.2708 94.4245 56.1432 94.0234 56.0391C93.6224 55.9349 93.2135 55.8828 92.7969 55.8828C92.1979 55.8828 91.737 55.9818 91.4141 56.1797C91.0964 56.3776 90.9375 56.6484 90.9375 56.9922C90.9375 57.2578 91.0104 57.4766 91.1562 57.6484C91.3073 57.8203 91.5469 57.9818 91.875 58.1328C92.2031 58.2839 92.6354 58.4609 93.1719 58.6641C93.7083 58.862 94.1719 59.0677 94.5625 59.2812C94.9531 59.4896 95.2526 59.7448 95.4609 60.0469C95.6745 60.3438 95.7812 60.7266 95.7812 61.1953Z" fill="#717082"/>
<path d="M5.42285 6.68945C7.08105 6.68945 8.29102 7.0293 9.05273 7.70898C9.81445 8.38867 10.1953 9.34082 10.1953 10.5654C10.1953 11.1221 10.1074 11.6523 9.93164 12.1562C9.76172 12.6543 9.48047 13.0967 9.08789 13.4834C8.69531 13.8643 8.17676 14.166 7.53223 14.3887C6.89355 14.6113 6.10547 14.7227 5.16797 14.7227H3.79688V19.5391H1.6875V6.68945H5.42285ZM5.28223 8.43848H3.79688V12.9648H4.94824C5.61035 12.9648 6.17285 12.8887 6.63574 12.7363C7.09863 12.5781 7.4502 12.3291 7.69043 11.9893C7.93066 11.6494 8.05078 11.2012 8.05078 10.6445C8.05078 9.90039 7.8252 9.34668 7.37402 8.9834C6.92871 8.62012 6.23145 8.43848 5.28223 8.43848ZM17.4814 9.625C17.6455 9.625 17.8242 9.63379 18.0176 9.65137C18.2109 9.66895 18.3779 9.69238 18.5186 9.72168L18.3252 11.6553C18.2021 11.6201 18.0498 11.5938 17.8682 11.5762C17.6924 11.5586 17.5342 11.5498 17.3936 11.5498C17.0244 11.5498 16.6729 11.6113 16.3389 11.7344C16.0049 11.8516 15.709 12.0332 15.4512 12.2793C15.1934 12.5195 14.9912 12.8213 14.8447 13.1846C14.6982 13.5479 14.625 13.9697 14.625 14.4502V19.5391H12.5508V9.80957H14.168L14.4492 11.5234H14.5459C14.7393 11.1777 14.9795 10.8613 15.2666 10.5742C15.5537 10.2871 15.8818 10.0586 16.251 9.88867C16.626 9.71289 17.0361 9.625 17.4814 9.625ZM28.9336 14.6523C28.9336 15.4609 28.8281 16.1787 28.6172 16.8057C28.4062 17.4326 28.0986 17.9629 27.6943 18.3965C27.29 18.8242 26.8037 19.1523 26.2354 19.3809C25.667 19.6035 25.0254 19.7148 24.3105 19.7148C23.6426 19.7148 23.0303 19.6035 22.4736 19.3809C21.917 19.1523 21.4336 18.8242 21.0234 18.3965C20.6191 17.9629 20.3057 17.4326 20.083 16.8057C19.8604 16.1787 19.749 15.4609 19.749 14.6523C19.749 13.5801 19.9336 12.6719 20.3027 11.9277C20.6777 11.1777 21.2109 10.6064 21.9023 10.2139C22.5938 9.82129 23.417 9.625 24.3721 9.625C25.2686 9.625 26.0596 9.82129 26.7451 10.2139C27.4307 10.6064 27.9668 11.1777 28.3535 11.9277C28.7402 12.6777 28.9336 13.5859 28.9336 14.6523ZM21.876 14.6523C21.876 15.3613 21.9609 15.9678 22.1309 16.4717C22.3066 16.9756 22.5762 17.3623 22.9395 17.6318C23.3027 17.8955 23.7715 18.0273 24.3457 18.0273C24.9199 18.0273 25.3887 17.8955 25.752 17.6318C26.1152 17.3623 26.3818 16.9756 26.5518 16.4717C26.7217 15.9678 26.8066 15.3613 26.8066 14.6523C26.8066 13.9434 26.7217 13.3428 26.5518 12.8506C26.3818 12.3525 26.1152 11.9746 25.752 11.7168C25.3887 11.4531 24.917 11.3213 24.3369 11.3213C23.4814 11.3213 22.8574 11.6084 22.4648 12.1826C22.0723 12.7568 21.876 13.5801 21.876 14.6523ZM34.5762 19.7148C33.416 19.7148 32.4844 19.293 31.7812 18.4492C31.084 17.5996 30.7354 16.3486 30.7354 14.6963C30.7354 13.0264 31.0898 11.7637 31.7988 10.9082C32.5137 10.0527 33.4541 9.625 34.6201 9.625C35.1123 9.625 35.543 9.69238 35.9121 9.82715C36.2812 9.95605 36.5977 10.1318 36.8613 10.3545C37.1309 10.5771 37.3594 10.8262 37.5469 11.1016H37.6436C37.6143 10.9199 37.5791 10.6592 37.5381 10.3193C37.5029 9.97363 37.4854 9.6543 37.4854 9.36133V5.86328H39.5596V19.5391H37.9424L37.5732 18.2119H37.4854C37.3096 18.4932 37.0869 18.748 36.8174 18.9766C36.5537 19.1992 36.2373 19.3779 35.8682 19.5127C35.5049 19.6475 35.0742 19.7148 34.5762 19.7148ZM35.1562 18.0361C36.041 18.0361 36.665 17.7812 37.0283 17.2715C37.3916 16.7617 37.5791 15.9971 37.5908 14.9775V14.7051C37.5908 13.6152 37.415 12.7803 37.0635 12.2002C36.7119 11.6143 36.0703 11.3213 35.1387 11.3213C34.3945 11.3213 33.8262 11.623 33.4336 12.2266C33.0469 12.8242 32.8535 13.6592 32.8535 14.7314C32.8535 15.8037 33.0469 16.624 33.4336 17.1924C33.8262 17.7549 34.4004 18.0361 35.1562 18.0361ZM51.0029 9.80957V19.5391H49.377L49.0957 18.2295H48.9814C48.7764 18.5635 48.5156 18.8418 48.1992 19.0645C47.8828 19.2812 47.5312 19.4424 47.1445 19.5479C46.7578 19.6592 46.3506 19.7148 45.9229 19.7148C45.1904 19.7148 44.5635 19.5918 44.042 19.3457C43.5264 19.0938 43.1309 18.707 42.8555 18.1855C42.5801 17.6641 42.4424 16.9902 42.4424 16.1641V9.80957H44.5166V15.7773C44.5166 16.5332 44.6689 17.0986 44.9736 17.4736C45.2842 17.8486 45.7646 18.0361 46.415 18.0361C47.042 18.0361 47.54 17.9072 47.9092 17.6494C48.2783 17.3916 48.5391 17.0107 48.6914 16.5068C48.8496 16.0029 48.9287 15.3848 48.9287 14.6523V9.80957H51.0029ZM57.8848 19.7148C56.9648 19.7148 56.168 19.5361 55.4941 19.1787C54.8203 18.8213 54.3018 18.2734 53.9385 17.5352C53.5752 16.7969 53.3936 15.8594 53.3936 14.7227C53.3936 13.5391 53.5928 12.5723 53.9912 11.8223C54.3896 11.0723 54.9404 10.5186 55.6436 10.1611C56.3525 9.80371 57.1641 9.625 58.0781 9.625C58.6582 9.625 59.1826 9.68359 59.6514 9.80078C60.126 9.91211 60.5273 10.0498 60.8555 10.2139L60.2402 11.8662C59.8828 11.7197 59.5166 11.5967 59.1416 11.4971C58.7666 11.3975 58.4062 11.3477 58.0605 11.3477C57.4922 11.3477 57.0176 11.4736 56.6367 11.7256C56.2617 11.9775 55.9805 12.3525 55.793 12.8506C55.6113 13.3486 55.5205 13.9668 55.5205 14.7051C55.5205 15.4199 55.6143 16.0234 55.8018 16.5156C55.9893 17.002 56.2676 17.3711 56.6367 17.623C57.0059 17.8691 57.46 17.9922 57.999 17.9922C58.5322 17.9922 59.0098 17.9277 59.4316 17.7988C59.8535 17.6699 60.252 17.5029 60.627 17.2979V19.0908C60.2578 19.3018 59.8623 19.457 59.4404 19.5566C59.0186 19.6621 58.5 19.7148 57.8848 19.7148ZM66.5332 18.0449C66.8027 18.0449 67.0693 18.0215 67.333 17.9746C67.5967 17.9219 67.8369 17.8604 68.0537 17.79V19.3545C67.8252 19.4541 67.5293 19.5391 67.166 19.6094C66.8027 19.6797 66.4248 19.7148 66.0322 19.7148C65.4814 19.7148 64.9863 19.624 64.5469 19.4424C64.1074 19.2549 63.7588 18.9355 63.501 18.4844C63.2432 18.0332 63.1143 17.4092 63.1143 16.6123V11.3828H61.7871V10.46L63.2109 9.73047L63.8877 7.64746H65.1885V9.80957H67.9746V11.3828H65.1885V16.5859C65.1885 17.0781 65.3115 17.4443 65.5576 17.6846C65.8037 17.9248 66.1289 18.0449 66.5332 18.0449Z" fill="#2F2E41"/>
<path d="M270.75 63.5391L269.328 59.9062H264.75L263.344 63.5391H262L266.516 52.0703H267.633L272.125 63.5391H270.75ZM268.914 58.7109L267.586 55.1719C267.414 54.724 267.237 54.1745 267.055 53.5234C266.94 54.0234 266.776 54.5729 266.562 55.1719L265.219 58.7109H268.914ZM277.484 54.8359C278.609 54.8359 279.482 55.2214 280.102 55.9922C280.727 56.7578 281.039 57.8438 281.039 59.25C281.039 60.6562 280.724 61.75 280.094 62.5312C279.469 63.3073 278.599 63.6953 277.484 63.6953C276.927 63.6953 276.417 63.5938 275.953 63.3906C275.495 63.1823 275.109 62.8646 274.797 62.4375H274.703L274.43 63.5391H273.5V51.3828H274.797V54.3359C274.797 54.9974 274.776 55.5911 274.734 56.1172H274.797C275.401 55.263 276.297 54.8359 277.484 54.8359ZM277.297 55.9219C276.411 55.9219 275.773 56.1771 275.383 56.6875C274.992 57.1927 274.797 58.0469 274.797 59.25C274.797 60.4531 274.997 61.3151 275.398 61.8359C275.799 62.3516 276.443 62.6094 277.328 62.6094C278.125 62.6094 278.719 62.3203 279.109 61.7422C279.5 61.1589 279.695 60.3229 279.695 59.2344C279.695 58.1198 279.5 57.2891 279.109 56.7422C278.719 56.1953 278.115 55.9219 277.297 55.9219ZM290.703 59.25C290.703 60.6458 290.352 61.737 289.648 62.5234C288.945 63.3047 287.974 63.6953 286.734 63.6953C285.969 63.6953 285.289 63.5156 284.695 63.1562C284.102 62.7969 283.643 62.2812 283.32 61.6094C282.997 60.9375 282.836 60.151 282.836 59.25C282.836 57.8542 283.185 56.7682 283.883 55.9922C284.581 55.2109 285.549 54.8203 286.789 54.8203C287.987 54.8203 288.938 55.2188 289.641 56.0156C290.349 56.8125 290.703 57.8906 290.703 59.25ZM284.18 59.25C284.18 60.3438 284.398 61.1771 284.836 61.75C285.273 62.3229 285.917 62.6094 286.766 62.6094C287.615 62.6094 288.258 62.3255 288.695 61.7578C289.138 61.1849 289.359 60.349 289.359 59.25C289.359 58.1615 289.138 57.3359 288.695 56.7734C288.258 56.2057 287.609 55.9219 286.75 55.9219C285.901 55.9219 285.26 56.2005 284.828 56.7578C284.396 57.3151 284.18 58.1458 284.18 59.25ZM294.203 54.9766V60.5312C294.203 61.2292 294.362 61.75 294.68 62.0938C294.997 62.4375 295.495 62.6094 296.172 62.6094C297.068 62.6094 297.721 62.3646 298.133 61.875C298.549 61.3854 298.758 60.5859 298.758 59.4766V54.9766H300.055V63.5391H298.984L298.797 62.3906H298.727C298.461 62.8125 298.091 63.1354 297.617 63.3594C297.148 63.5833 296.612 63.6953 296.008 63.6953C294.966 63.6953 294.185 63.4479 293.664 62.9531C293.148 62.4583 292.891 61.6667 292.891 60.5781V54.9766H294.203ZM305.578 62.625C305.807 62.625 306.029 62.6094 306.242 62.5781C306.456 62.5417 306.625 62.5052 306.75 62.4688V63.4609C306.609 63.5286 306.401 63.5833 306.125 63.625C305.854 63.6719 305.609 63.6953 305.391 63.6953C303.734 63.6953 302.906 62.8229 302.906 61.0781V55.9844H301.68V55.3594L302.906 54.8203L303.453 52.9922H304.203V54.9766H306.688V55.9844H304.203V61.0234C304.203 61.5391 304.326 61.9349 304.57 62.2109C304.815 62.487 305.151 62.625 305.578 62.625Z" fill="#717082"/>
<path d="M263.57 86.1172H266.797C268.312 86.1172 269.409 86.3438 270.086 86.7969C270.763 87.25 271.102 87.9661 271.102 88.9453C271.102 89.6224 270.911 90.1823 270.531 90.625C270.156 91.0625 269.607 91.3464 268.883 91.4766V91.5547C270.617 91.8516 271.484 92.763 271.484 94.2891C271.484 95.3099 271.138 96.1068 270.445 96.6797C269.758 97.2526 268.794 97.5391 267.555 97.5391H263.57V86.1172ZM264.898 91.0078H267.086C268.023 91.0078 268.698 90.862 269.109 90.5703C269.521 90.2734 269.727 89.776 269.727 89.0781C269.727 88.4375 269.497 87.9766 269.039 87.6953C268.581 87.4089 267.852 87.2656 266.852 87.2656H264.898V91.0078ZM264.898 92.1328V96.4062H267.281C268.203 96.4062 268.896 96.2292 269.359 95.875C269.828 95.5156 270.062 94.9557 270.062 94.1953C270.062 93.487 269.823 92.9661 269.344 92.6328C268.87 92.2995 268.146 92.1328 267.172 92.1328H264.898ZM275.047 97.5391H273.75V85.3828H275.047V97.5391ZM285.188 93.25C285.188 94.6458 284.836 95.737 284.133 96.5234C283.43 97.3047 282.458 97.6953 281.219 97.6953C280.453 97.6953 279.773 97.5156 279.18 97.1562C278.586 96.7969 278.128 96.2812 277.805 95.6094C277.482 94.9375 277.32 94.151 277.32 93.25C277.32 91.8542 277.669 90.7682 278.367 89.9922C279.065 89.2109 280.034 88.8203 281.273 88.8203C282.471 88.8203 283.422 89.2188 284.125 90.0156C284.833 90.8125 285.188 91.8906 285.188 93.25ZM278.664 93.25C278.664 94.3438 278.883 95.1771 279.32 95.75C279.758 96.3229 280.401 96.6094 281.25 96.6094C282.099 96.6094 282.742 96.3255 283.18 95.7578C283.622 95.1849 283.844 94.349 283.844 93.25C283.844 92.1615 283.622 91.3359 283.18 90.7734C282.742 90.2057 282.094 89.9219 281.234 89.9219C280.385 89.9219 279.745 90.2005 279.312 90.7578C278.88 91.3151 278.664 92.1458 278.664 93.25ZM294.477 88.9766V89.7969L292.891 89.9844C293.036 90.1667 293.167 90.4062 293.281 90.7031C293.396 90.9948 293.453 91.3255 293.453 91.6953C293.453 92.5339 293.167 93.2031 292.594 93.7031C292.021 94.2031 291.234 94.4531 290.234 94.4531C289.979 94.4531 289.74 94.4323 289.516 94.3906C288.964 94.6823 288.688 95.0495 288.688 95.4922C288.688 95.7266 288.784 95.901 288.977 96.0156C289.169 96.125 289.5 96.1797 289.969 96.1797H291.484C292.411 96.1797 293.122 96.375 293.617 96.7656C294.117 97.1562 294.367 97.724 294.367 98.4688C294.367 99.4167 293.987 100.138 293.227 100.633C292.466 101.133 291.357 101.383 289.898 101.383C288.779 101.383 287.914 101.174 287.305 100.758C286.701 100.341 286.398 99.7526 286.398 98.9922C286.398 98.4714 286.565 98.0208 286.898 97.6406C287.232 97.2604 287.701 97.0026 288.305 96.8672C288.086 96.7682 287.901 96.6146 287.75 96.4062C287.604 96.1979 287.531 95.9557 287.531 95.6797C287.531 95.3672 287.615 95.0938 287.781 94.8594C287.948 94.625 288.211 94.3984 288.57 94.1797C288.128 93.9974 287.766 93.6875 287.484 93.25C287.208 92.8125 287.07 92.3125 287.07 91.75C287.07 90.8125 287.352 90.0911 287.914 89.5859C288.477 89.0755 289.273 88.8203 290.305 88.8203C290.753 88.8203 291.156 88.8724 291.516 88.9766H294.477ZM287.648 98.9766C287.648 99.4401 287.844 99.7917 288.234 100.031C288.625 100.271 289.185 100.391 289.914 100.391C291.003 100.391 291.807 100.227 292.328 99.8984C292.854 99.5755 293.117 99.1354 293.117 98.5781C293.117 98.1146 292.974 97.7917 292.688 97.6094C292.401 97.4323 291.862 97.3438 291.07 97.3438H289.516C288.927 97.3438 288.469 97.4844 288.141 97.7656C287.812 98.0469 287.648 98.4505 287.648 98.9766ZM288.352 91.7188C288.352 92.3177 288.521 92.7708 288.859 93.0781C289.198 93.3854 289.669 93.5391 290.273 93.5391C291.539 93.5391 292.172 92.9245 292.172 91.6953C292.172 90.4089 291.531 89.7656 290.25 89.7656C289.641 89.7656 289.172 89.9297 288.844 90.2578C288.516 90.5859 288.352 91.0729 288.352 91.7188Z" fill="#717082"/>
<path d="M270.812 123.445C270.812 124.602 270.417 125.492 269.625 126.117C268.839 126.737 267.711 127.047 266.242 127.047H264.898V131.539H263.57V120.117H266.531C269.385 120.117 270.812 121.227 270.812 123.445ZM264.898 125.906H266.094C267.271 125.906 268.122 125.716 268.648 125.336C269.174 124.956 269.438 124.346 269.438 123.508C269.438 122.753 269.19 122.19 268.695 121.82C268.201 121.451 267.43 121.266 266.383 121.266H264.898V125.906ZM278.281 131.539L278.023 130.32H277.961C277.534 130.857 277.107 131.221 276.68 131.414C276.258 131.602 275.729 131.695 275.094 131.695C274.245 131.695 273.578 131.477 273.094 131.039C272.615 130.602 272.375 129.979 272.375 129.172C272.375 127.443 273.758 126.536 276.523 126.453L277.977 126.406V125.875C277.977 125.203 277.831 124.708 277.539 124.391C277.253 124.068 276.792 123.906 276.156 123.906C275.443 123.906 274.635 124.125 273.734 124.562L273.336 123.57C273.758 123.341 274.219 123.161 274.719 123.031C275.224 122.901 275.729 122.836 276.234 122.836C277.255 122.836 278.01 123.062 278.5 123.516C278.995 123.969 279.242 124.695 279.242 125.695V131.539H278.281ZM275.352 130.625C276.159 130.625 276.792 130.404 277.25 129.961C277.714 129.518 277.945 128.898 277.945 128.102V127.328L276.648 127.383C275.617 127.419 274.872 127.581 274.414 127.867C273.961 128.148 273.734 128.589 273.734 129.188C273.734 129.656 273.875 130.013 274.156 130.258C274.443 130.503 274.841 130.625 275.352 130.625ZM285.828 122.82C286.208 122.82 286.549 122.852 286.852 122.914L286.672 124.117C286.318 124.039 286.005 124 285.734 124C285.042 124 284.448 124.281 283.953 124.844C283.464 125.406 283.219 126.107 283.219 126.945V131.539H281.922V122.977H282.992L283.141 124.562H283.203C283.521 124.005 283.904 123.576 284.352 123.273C284.799 122.971 285.292 122.82 285.828 122.82ZM291.219 130.625C291.448 130.625 291.669 130.609 291.883 130.578C292.096 130.542 292.266 130.505 292.391 130.469V131.461C292.25 131.529 292.042 131.583 291.766 131.625C291.495 131.672 291.25 131.695 291.031 131.695C289.375 131.695 288.547 130.823 288.547 129.078V123.984H287.32V123.359L288.547 122.82L289.094 120.992H289.844V122.977H292.328V123.984H289.844V129.023C289.844 129.539 289.966 129.935 290.211 130.211C290.456 130.487 290.792 130.625 291.219 130.625ZM299.969 131.539V126C299.969 125.302 299.81 124.781 299.492 124.438C299.174 124.094 298.677 123.922 298 123.922C297.104 123.922 296.448 124.164 296.031 124.648C295.615 125.133 295.406 125.932 295.406 127.047V131.539H294.109V122.977H295.164L295.375 124.148H295.438C295.703 123.727 296.076 123.401 296.555 123.172C297.034 122.938 297.568 122.82 298.156 122.82C299.188 122.82 299.964 123.07 300.484 123.57C301.005 124.065 301.266 124.859 301.266 125.953V131.539H299.969ZM307.555 131.695C306.289 131.695 305.289 131.31 304.555 130.539C303.826 129.768 303.461 128.698 303.461 127.328C303.461 125.948 303.799 124.852 304.477 124.039C305.159 123.227 306.073 122.82 307.219 122.82C308.292 122.82 309.141 123.174 309.766 123.883C310.391 124.586 310.703 125.516 310.703 126.672V127.492H304.805C304.831 128.497 305.083 129.26 305.562 129.781C306.047 130.302 306.727 130.562 307.602 130.562C308.523 130.562 309.435 130.37 310.336 129.984V131.141C309.878 131.339 309.443 131.479 309.031 131.562C308.625 131.651 308.133 131.695 307.555 131.695ZM307.203 123.906C306.516 123.906 305.966 124.13 305.555 124.578C305.148 125.026 304.909 125.646 304.836 126.438H309.312C309.312 125.62 309.13 124.995 308.766 124.562C308.401 124.125 307.88 123.906 307.203 123.906ZM316.828 122.82C317.208 122.82 317.549 122.852 317.852 122.914L317.672 124.117C317.318 124.039 317.005 124 316.734 124C316.042 124 315.448 124.281 314.953 124.844C314.464 125.406 314.219 126.107 314.219 126.945V131.539H312.922V122.977H313.992L314.141 124.562H314.203C314.521 124.005 314.904 123.576 315.352 123.273C315.799 122.971 316.292 122.82 316.828 122.82ZM324.977 129.203C324.977 130 324.68 130.615 324.086 131.047C323.492 131.479 322.659 131.695 321.586 131.695C320.451 131.695 319.565 131.516 318.93 131.156V129.953C319.341 130.161 319.781 130.326 320.25 130.445C320.724 130.565 321.18 130.625 321.617 130.625C322.294 130.625 322.815 130.518 323.18 130.305C323.544 130.086 323.727 129.755 323.727 129.312C323.727 128.979 323.581 128.695 323.289 128.461C323.003 128.221 322.44 127.94 321.602 127.617C320.805 127.32 320.237 127.062 319.898 126.844C319.565 126.62 319.315 126.367 319.148 126.086C318.987 125.805 318.906 125.469 318.906 125.078C318.906 124.38 319.19 123.831 319.758 123.43C320.326 123.023 321.104 122.82 322.094 122.82C323.016 122.82 323.917 123.008 324.797 123.383L324.336 124.438C323.477 124.083 322.698 123.906 322 123.906C321.385 123.906 320.922 124.003 320.609 124.195C320.297 124.388 320.141 124.654 320.141 124.992C320.141 125.221 320.198 125.417 320.312 125.578C320.432 125.74 320.622 125.893 320.883 126.039C321.143 126.185 321.643 126.396 322.383 126.672C323.398 127.042 324.083 127.414 324.438 127.789C324.797 128.164 324.977 128.635 324.977 129.203ZM332.953 131.539V126C332.953 125.302 332.794 124.781 332.477 124.438C332.159 124.094 331.661 123.922 330.984 123.922C330.083 123.922 329.424 124.167 329.008 124.656C328.596 125.146 328.391 125.948 328.391 127.062V131.539H327.094V119.383H328.391V123.062C328.391 123.505 328.37 123.872 328.328 124.164H328.406C328.661 123.753 329.023 123.43 329.492 123.195C329.966 122.956 330.505 122.836 331.109 122.836C332.156 122.836 332.94 123.086 333.461 123.586C333.987 124.081 334.25 124.87 334.25 125.953V131.539H332.953ZM338.219 131.539H336.922V122.977H338.219V131.539ZM336.812 120.656C336.812 120.359 336.885 120.143 337.031 120.008C337.177 119.867 337.359 119.797 337.578 119.797C337.786 119.797 337.966 119.867 338.117 120.008C338.268 120.148 338.344 120.365 338.344 120.656C338.344 120.948 338.268 121.167 338.117 121.312C337.966 121.453 337.786 121.523 337.578 121.523C337.359 121.523 337.177 121.453 337.031 121.312C336.885 121.167 336.812 120.948 336.812 120.656ZM344.953 131.695C344.396 131.695 343.885 131.594 343.422 131.391C342.964 131.182 342.578 130.865 342.266 130.438H342.172C342.234 130.938 342.266 131.411 342.266 131.859V135.383H340.969V122.977H342.023L342.203 124.148H342.266C342.599 123.68 342.987 123.341 343.43 123.133C343.872 122.924 344.38 122.82 344.953 122.82C346.089 122.82 346.964 123.208 347.578 123.984C348.198 124.76 348.508 125.849 348.508 127.25C348.508 128.656 348.193 129.75 347.562 130.531C346.938 131.307 346.068 131.695 344.953 131.695ZM344.766 123.922C343.891 123.922 343.258 124.164 342.867 124.648C342.477 125.133 342.276 125.904 342.266 126.961V127.25C342.266 128.453 342.466 129.315 342.867 129.836C343.268 130.352 343.911 130.609 344.797 130.609C345.536 130.609 346.115 130.31 346.531 129.711C346.953 129.112 347.164 128.286 347.164 127.234C347.164 126.167 346.953 125.349 346.531 124.781C346.115 124.208 345.526 123.922 344.766 123.922Z" fill="#717082"/>
<path d="M267.086 165.539H265.758V155.297H262.141V154.117H270.703V155.297H267.086V165.539ZM275.852 165.695C274.586 165.695 273.586 165.31 272.852 164.539C272.122 163.768 271.758 162.698 271.758 161.328C271.758 159.948 272.096 158.852 272.773 158.039C273.456 157.227 274.37 156.82 275.516 156.82C276.589 156.82 277.438 157.174 278.062 157.883C278.688 158.586 279 159.516 279 160.672V161.492H273.102C273.128 162.497 273.38 163.26 273.859 163.781C274.344 164.302 275.023 164.562 275.898 164.562C276.82 164.562 277.732 164.37 278.633 163.984V165.141C278.174 165.339 277.74 165.479 277.328 165.562C276.922 165.651 276.43 165.695 275.852 165.695ZM275.5 157.906C274.812 157.906 274.263 158.13 273.852 158.578C273.445 159.026 273.206 159.646 273.133 160.438H277.609C277.609 159.62 277.427 158.995 277.062 158.562C276.698 158.125 276.177 157.906 275.5 157.906ZM285.125 156.82C285.505 156.82 285.846 156.852 286.148 156.914L285.969 158.117C285.615 158.039 285.302 158 285.031 158C284.339 158 283.745 158.281 283.25 158.844C282.76 159.406 282.516 160.107 282.516 160.945V165.539H281.219V156.977H282.289L282.438 158.562H282.5C282.818 158.005 283.201 157.576 283.648 157.273C284.096 156.971 284.589 156.82 285.125 156.82ZM298.664 165.539V159.969C298.664 159.286 298.518 158.776 298.227 158.438C297.935 158.094 297.482 157.922 296.867 157.922C296.06 157.922 295.464 158.154 295.078 158.617C294.693 159.081 294.5 159.794 294.5 160.758V165.539H293.203V159.969C293.203 159.286 293.057 158.776 292.766 158.438C292.474 158.094 292.018 157.922 291.398 157.922C290.586 157.922 289.99 158.167 289.609 158.656C289.234 159.141 289.047 159.938 289.047 161.047V165.539H287.75V156.977H288.805L289.016 158.148H289.078C289.323 157.732 289.667 157.406 290.109 157.172C290.557 156.938 291.057 156.82 291.609 156.82C292.948 156.82 293.823 157.305 294.234 158.273H294.297C294.552 157.826 294.922 157.471 295.406 157.211C295.891 156.951 296.443 156.82 297.062 156.82C298.031 156.82 298.755 157.07 299.234 157.57C299.719 158.065 299.961 158.859 299.961 159.953V165.539H298.664ZM308.164 163.203C308.164 164 307.867 164.615 307.273 165.047C306.68 165.479 305.846 165.695 304.773 165.695C303.638 165.695 302.753 165.516 302.117 165.156V163.953C302.529 164.161 302.969 164.326 303.438 164.445C303.911 164.565 304.367 164.625 304.805 164.625C305.482 164.625 306.003 164.518 306.367 164.305C306.732 164.086 306.914 163.755 306.914 163.312C306.914 162.979 306.768 162.695 306.477 162.461C306.19 162.221 305.628 161.94 304.789 161.617C303.992 161.32 303.424 161.062 303.086 160.844C302.753 160.62 302.503 160.367 302.336 160.086C302.174 159.805 302.094 159.469 302.094 159.078C302.094 158.38 302.378 157.831 302.945 157.43C303.513 157.023 304.292 156.82 305.281 156.82C306.203 156.82 307.104 157.008 307.984 157.383L307.523 158.438C306.664 158.083 305.885 157.906 305.188 157.906C304.573 157.906 304.109 158.003 303.797 158.195C303.484 158.388 303.328 158.654 303.328 158.992C303.328 159.221 303.385 159.417 303.5 159.578C303.62 159.74 303.81 159.893 304.07 160.039C304.331 160.185 304.831 160.396 305.57 160.672C306.586 161.042 307.271 161.414 307.625 161.789C307.984 162.164 308.164 162.635 308.164 163.203ZM321.828 161.25C321.828 162.646 321.477 163.737 320.773 164.523C320.07 165.305 319.099 165.695 317.859 165.695C317.094 165.695 316.414 165.516 315.82 165.156C315.227 164.797 314.768 164.281 314.445 163.609C314.122 162.938 313.961 162.151 313.961 161.25C313.961 159.854 314.31 158.768 315.008 157.992C315.706 157.211 316.674 156.82 317.914 156.82C319.112 156.82 320.062 157.219 320.766 158.016C321.474 158.812 321.828 159.891 321.828 161.25ZM315.305 161.25C315.305 162.344 315.523 163.177 315.961 163.75C316.398 164.323 317.042 164.609 317.891 164.609C318.74 164.609 319.383 164.326 319.82 163.758C320.263 163.185 320.484 162.349 320.484 161.25C320.484 160.161 320.263 159.336 319.82 158.773C319.383 158.206 318.734 157.922 317.875 157.922C317.026 157.922 316.385 158.201 315.953 158.758C315.521 159.315 315.305 160.146 315.305 161.25ZM327.969 157.984H325.789V165.539H324.492V157.984H322.961V157.398L324.492 156.93V156.453C324.492 154.349 325.411 153.297 327.25 153.297C327.703 153.297 328.234 153.388 328.844 153.57L328.508 154.609C328.008 154.448 327.581 154.367 327.227 154.367C326.737 154.367 326.375 154.531 326.141 154.859C325.906 155.182 325.789 155.703 325.789 156.422V156.977H327.969V157.984ZM334.906 156.977V162.531C334.906 163.229 335.065 163.75 335.383 164.094C335.701 164.438 336.198 164.609 336.875 164.609C337.771 164.609 338.424 164.365 338.836 163.875C339.253 163.385 339.461 162.586 339.461 161.477V156.977H340.758V165.539H339.688L339.5 164.391H339.43C339.164 164.812 338.794 165.135 338.32 165.359C337.852 165.583 337.315 165.695 336.711 165.695C335.669 165.695 334.888 165.448 334.367 164.953C333.852 164.458 333.594 163.667 333.594 162.578V156.977H334.906ZM349.039 163.203C349.039 164 348.742 164.615 348.148 165.047C347.555 165.479 346.721 165.695 345.648 165.695C344.513 165.695 343.628 165.516 342.992 165.156V163.953C343.404 164.161 343.844 164.326 344.312 164.445C344.786 164.565 345.242 164.625 345.68 164.625C346.357 164.625 346.878 164.518 347.242 164.305C347.607 164.086 347.789 163.755 347.789 163.312C347.789 162.979 347.643 162.695 347.352 162.461C347.065 162.221 346.503 161.94 345.664 161.617C344.867 161.32 344.299 161.062 343.961 160.844C343.628 160.62 343.378 160.367 343.211 160.086C343.049 159.805 342.969 159.469 342.969 159.078C342.969 158.38 343.253 157.831 343.82 157.43C344.388 157.023 345.167 156.82 346.156 156.82C347.078 156.82 347.979 157.008 348.859 157.383L348.398 158.438C347.539 158.083 346.76 157.906 346.062 157.906C345.448 157.906 344.984 158.003 344.672 158.195C344.359 158.388 344.203 158.654 344.203 158.992C344.203 159.221 344.26 159.417 344.375 159.578C344.495 159.74 344.685 159.893 344.945 160.039C345.206 160.185 345.706 160.396 346.445 160.672C347.461 161.042 348.146 161.414 348.5 161.789C348.859 162.164 349.039 162.635 349.039 163.203ZM354.773 165.695C353.508 165.695 352.508 165.31 351.773 164.539C351.044 163.768 350.68 162.698 350.68 161.328C350.68 159.948 351.018 158.852 351.695 158.039C352.378 157.227 353.292 156.82 354.438 156.82C355.51 156.82 356.359 157.174 356.984 157.883C357.609 158.586 357.922 159.516 357.922 160.672V161.492H352.023C352.049 162.497 352.302 163.26 352.781 163.781C353.266 164.302 353.945 164.562 354.82 164.562C355.742 164.562 356.654 164.37 357.555 163.984V165.141C357.096 165.339 356.661 165.479 356.25 165.562C355.844 165.651 355.352 165.695 354.773 165.695ZM354.422 157.906C353.734 157.906 353.185 158.13 352.773 158.578C352.367 159.026 352.128 159.646 352.055 160.438H356.531C356.531 159.62 356.349 158.995 355.984 158.562C355.62 158.125 355.099 157.906 354.422 157.906Z" fill="#717082"/>
<path d="M270.812 191.445C270.812 192.602 270.417 193.492 269.625 194.117C268.839 194.737 267.711 195.047 266.242 195.047H264.898V199.539H263.57V188.117H266.531C269.385 188.117 270.812 189.227 270.812 191.445ZM264.898 193.906H266.094C267.271 193.906 268.122 193.716 268.648 193.336C269.174 192.956 269.438 192.346 269.438 191.508C269.438 190.753 269.19 190.19 268.695 189.82C268.201 189.451 267.43 189.266 266.383 189.266H264.898V193.906ZM276.922 190.82C277.302 190.82 277.643 190.852 277.945 190.914L277.766 192.117C277.411 192.039 277.099 192 276.828 192C276.135 192 275.542 192.281 275.047 192.844C274.557 193.406 274.312 194.107 274.312 194.945V199.539H273.016V190.977H274.086L274.234 192.562H274.297C274.615 192.005 274.997 191.576 275.445 191.273C275.893 190.971 276.385 190.82 276.922 190.82ZM280.844 199.539H279.547V190.977H280.844V199.539ZM279.438 188.656C279.438 188.359 279.51 188.143 279.656 188.008C279.802 187.867 279.984 187.797 280.203 187.797C280.411 187.797 280.591 187.867 280.742 188.008C280.893 188.148 280.969 188.365 280.969 188.656C280.969 188.948 280.893 189.167 280.742 189.312C280.591 189.453 280.411 189.523 280.203 189.523C279.984 189.523 279.802 189.453 279.656 189.312C279.51 189.167 279.438 188.948 279.438 188.656ZM285.469 199.539L282.219 190.977H283.609L285.453 196.055C285.87 197.242 286.115 198.013 286.188 198.367H286.25C286.307 198.091 286.487 197.521 286.789 196.656C287.096 195.786 287.781 193.893 288.844 190.977H290.234L286.984 199.539H285.469ZM296.875 199.539L296.617 198.32H296.555C296.128 198.857 295.701 199.221 295.273 199.414C294.852 199.602 294.323 199.695 293.688 199.695C292.839 199.695 292.172 199.477 291.688 199.039C291.208 198.602 290.969 197.979 290.969 197.172C290.969 195.443 292.352 194.536 295.117 194.453L296.57 194.406V193.875C296.57 193.203 296.424 192.708 296.133 192.391C295.846 192.068 295.385 191.906 294.75 191.906C294.036 191.906 293.229 192.125 292.328 192.562L291.93 191.57C292.352 191.341 292.812 191.161 293.312 191.031C293.818 190.901 294.323 190.836 294.828 190.836C295.849 190.836 296.604 191.062 297.094 191.516C297.589 191.969 297.836 192.695 297.836 193.695V199.539H296.875ZM293.945 198.625C294.753 198.625 295.385 198.404 295.844 197.961C296.307 197.518 296.539 196.898 296.539 196.102V195.328L295.242 195.383C294.211 195.419 293.466 195.581 293.008 195.867C292.555 196.148 292.328 196.589 292.328 197.188C292.328 197.656 292.469 198.013 292.75 198.258C293.036 198.503 293.435 198.625 293.945 198.625ZM303.938 199.695C302.698 199.695 301.737 199.315 301.055 198.555C300.378 197.789 300.039 196.708 300.039 195.312C300.039 193.88 300.383 192.773 301.07 191.992C301.763 191.211 302.747 190.82 304.023 190.82C304.435 190.82 304.846 190.865 305.258 190.953C305.669 191.042 305.992 191.146 306.227 191.266L305.828 192.367C305.542 192.253 305.229 192.159 304.891 192.086C304.552 192.008 304.253 191.969 303.992 191.969C302.253 191.969 301.383 193.078 301.383 195.297C301.383 196.349 301.594 197.156 302.016 197.719C302.443 198.281 303.073 198.562 303.906 198.562C304.62 198.562 305.352 198.409 306.102 198.102V199.25C305.529 199.547 304.807 199.695 303.938 199.695ZM306.781 190.977H308.172L310.047 195.859C310.458 196.974 310.714 197.779 310.812 198.273H310.875C310.943 198.008 311.083 197.555 311.297 196.914C311.516 196.268 312.224 194.289 313.422 190.977H314.812L311.133 200.727C310.768 201.69 310.341 202.372 309.852 202.773C309.367 203.18 308.771 203.383 308.062 203.383C307.667 203.383 307.276 203.339 306.891 203.25V202.211C307.177 202.273 307.497 202.305 307.852 202.305C308.742 202.305 309.378 201.805 309.758 200.805L310.234 199.586L306.781 190.977ZM324.344 199.695C323.786 199.695 323.276 199.594 322.812 199.391C322.354 199.182 321.969 198.865 321.656 198.438H321.562C321.625 198.938 321.656 199.411 321.656 199.859V203.383H320.359V190.977H321.414L321.594 192.148H321.656C321.99 191.68 322.378 191.341 322.82 191.133C323.263 190.924 323.771 190.82 324.344 190.82C325.479 190.82 326.354 191.208 326.969 191.984C327.589 192.76 327.898 193.849 327.898 195.25C327.898 196.656 327.583 197.75 326.953 198.531C326.328 199.307 325.458 199.695 324.344 199.695ZM324.156 191.922C323.281 191.922 322.648 192.164 322.258 192.648C321.867 193.133 321.667 193.904 321.656 194.961V195.25C321.656 196.453 321.857 197.315 322.258 197.836C322.659 198.352 323.302 198.609 324.188 198.609C324.927 198.609 325.505 198.31 325.922 197.711C326.344 197.112 326.555 196.286 326.555 195.234C326.555 194.167 326.344 193.349 325.922 192.781C325.505 192.208 324.917 191.922 324.156 191.922ZM337.562 195.25C337.562 196.646 337.211 197.737 336.508 198.523C335.805 199.305 334.833 199.695 333.594 199.695C332.828 199.695 332.148 199.516 331.555 199.156C330.961 198.797 330.503 198.281 330.18 197.609C329.857 196.938 329.695 196.151 329.695 195.25C329.695 193.854 330.044 192.768 330.742 191.992C331.44 191.211 332.409 190.82 333.648 190.82C334.846 190.82 335.797 191.219 336.5 192.016C337.208 192.812 337.562 193.891 337.562 195.25ZM331.039 195.25C331.039 196.344 331.258 197.177 331.695 197.75C332.133 198.323 332.776 198.609 333.625 198.609C334.474 198.609 335.117 198.326 335.555 197.758C335.997 197.185 336.219 196.349 336.219 195.25C336.219 194.161 335.997 193.336 335.555 192.773C335.117 192.206 334.469 191.922 333.609 191.922C332.76 191.922 332.12 192.201 331.688 192.758C331.255 193.315 331.039 194.146 331.039 195.25ZM341.141 199.539H339.844V187.383H341.141V199.539ZM345.188 199.539H343.891V190.977H345.188V199.539ZM343.781 188.656C343.781 188.359 343.854 188.143 344 188.008C344.146 187.867 344.328 187.797 344.547 187.797C344.755 187.797 344.935 187.867 345.086 188.008C345.237 188.148 345.312 188.365 345.312 188.656C345.312 188.948 345.237 189.167 345.086 189.312C344.935 189.453 344.755 189.523 344.547 189.523C344.328 189.523 344.146 189.453 344 189.312C343.854 189.167 343.781 188.948 343.781 188.656ZM351.359 199.695C350.12 199.695 349.159 199.315 348.477 198.555C347.799 197.789 347.461 196.708 347.461 195.312C347.461 193.88 347.805 192.773 348.492 191.992C349.185 191.211 350.169 190.82 351.445 190.82C351.857 190.82 352.268 190.865 352.68 190.953C353.091 191.042 353.414 191.146 353.648 191.266L353.25 192.367C352.964 192.253 352.651 192.159 352.312 192.086C351.974 192.008 351.674 191.969 351.414 191.969C349.674 191.969 348.805 193.078 348.805 195.297C348.805 196.349 349.016 197.156 349.438 197.719C349.865 198.281 350.495 198.562 351.328 198.562C352.042 198.562 352.773 198.409 353.523 198.102V199.25C352.951 199.547 352.229 199.695 351.359 199.695ZM354.203 190.977H355.594L357.469 195.859C357.88 196.974 358.135 197.779 358.234 198.273H358.297C358.365 198.008 358.505 197.555 358.719 196.914C358.938 196.268 359.646 194.289 360.844 190.977H362.234L358.555 200.727C358.19 201.69 357.763 202.372 357.273 202.773C356.789 203.18 356.193 203.383 355.484 203.383C355.089 203.383 354.698 203.339 354.312 203.25V202.211C354.599 202.273 354.919 202.305 355.273 202.305C356.164 202.305 356.799 201.805 357.18 200.805L357.656 199.586L354.203 190.977Z" fill="#717082"/>
<path d="M270.163 8.30664C268.956 8.30664 268.007 8.73438 267.315 9.58984C266.624 10.4453 266.278 11.626 266.278 13.1318C266.278 14.708 266.609 15.9004 267.271 16.709C267.939 17.5176 268.903 17.9219 270.163 17.9219C270.708 17.9219 271.235 17.8691 271.745 17.7637C272.255 17.6523 272.785 17.5117 273.336 17.3418V19.1436C272.328 19.5244 271.186 19.7148 269.908 19.7148C268.027 19.7148 266.583 19.1465 265.575 18.0098C264.567 16.8672 264.063 15.2354 264.063 13.1143C264.063 11.7783 264.307 10.6094 264.793 9.60742C265.285 8.60547 265.994 7.83789 266.92 7.30469C267.846 6.77148 268.933 6.50488 270.181 6.50488C271.493 6.50488 272.706 6.78027 273.819 7.33105L273.063 9.08008C272.63 8.875 272.17 8.69629 271.684 8.54395C271.203 8.38574 270.696 8.30664 270.163 8.30664ZM284.507 14.6611C284.507 16.249 284.1 17.4883 283.285 18.3789C282.471 19.2695 281.337 19.7148 279.884 19.7148C278.976 19.7148 278.173 19.5098 277.476 19.0996C276.778 18.6895 276.242 18.1006 275.867 17.333C275.492 16.5654 275.305 15.6748 275.305 14.6611C275.305 13.085 275.709 11.8545 276.518 10.9697C277.326 10.085 278.466 9.64258 279.937 9.64258C281.343 9.64258 282.456 10.0967 283.276 11.0049C284.097 11.9072 284.507 13.126 284.507 14.6611ZM277.432 14.6611C277.432 16.9053 278.261 18.0273 279.919 18.0273C281.56 18.0273 282.38 16.9053 282.38 14.6611C282.38 12.4404 281.554 11.3301 279.901 11.3301C279.034 11.3301 278.404 11.6172 278.012 12.1914C277.625 12.7656 277.432 13.5889 277.432 14.6611ZM295.08 19.5391H293.006V13.5449C293.006 12.8008 292.865 12.2471 292.584 11.8838C292.303 11.5146 291.863 11.3301 291.266 11.3301C290.469 11.3301 289.883 11.5908 289.508 12.1123C289.139 12.6279 288.954 13.4893 288.954 14.6963V19.5391H286.889V9.81836H288.506L288.796 11.0928H288.901C289.171 10.6299 289.561 10.2725 290.07 10.0205C290.586 9.76855 291.151 9.64258 291.767 9.64258C293.261 9.64258 294.251 10.1523 294.737 11.1719H294.878C295.165 10.6914 295.569 10.3164 296.091 10.0469C296.612 9.77734 297.21 9.64258 297.884 9.64258C299.044 9.64258 299.888 9.93555 300.415 10.5215C300.948 11.1074 301.215 12.001 301.215 13.2021V19.5391H299.149V13.5449C299.149 12.8008 299.006 12.2471 298.719 11.8838C298.438 11.5146 297.998 11.3301 297.4 11.3301C296.598 11.3301 296.009 11.582 295.634 12.0859C295.265 12.584 295.08 13.3516 295.08 14.3887V19.5391ZM309.028 19.7148C307.798 19.7148 306.843 19.2725 306.163 18.3877H306.04C306.122 19.208 306.163 19.7061 306.163 19.8818V23.8633H304.098V9.81836H305.768C305.814 10 305.911 10.4336 306.058 11.1191H306.163C306.808 10.1348 307.774 9.64258 309.063 9.64258C310.276 9.64258 311.22 10.082 311.894 10.9609C312.573 11.8398 312.913 13.0732 312.913 14.6611C312.913 16.249 312.567 17.4883 311.876 18.3789C311.19 19.2695 310.241 19.7148 309.028 19.7148ZM308.527 11.3301C307.707 11.3301 307.106 11.5703 306.726 12.0508C306.351 12.5312 306.163 13.2988 306.163 14.3535V14.6611C306.163 15.8447 306.351 16.7031 306.726 17.2363C307.101 17.7637 307.713 18.0273 308.562 18.0273C309.277 18.0273 309.828 17.7344 310.215 17.1484C310.602 16.5625 310.795 15.7275 310.795 14.6436C310.795 13.5537 310.602 12.7305 310.215 12.1738C309.834 11.6113 309.271 11.3301 308.527 11.3301ZM321.395 19.5391L320.981 18.1855H320.911C320.442 18.7773 319.971 19.1816 319.496 19.3984C319.021 19.6094 318.412 19.7148 317.668 19.7148C316.713 19.7148 315.966 19.457 315.427 18.9414C314.894 18.4258 314.627 17.6963 314.627 16.7529C314.627 15.751 314.999 14.9951 315.743 14.4854C316.487 13.9756 317.621 13.6973 319.145 13.6504L320.823 13.5977V13.0791C320.823 12.458 320.677 11.9951 320.384 11.6904C320.097 11.3799 319.648 11.2246 319.039 11.2246C318.541 11.2246 318.063 11.2979 317.606 11.4443C317.149 11.5908 316.71 11.7637 316.288 11.9629L315.62 10.4863C316.147 10.2109 316.725 10.0029 317.352 9.8623C317.979 9.71582 318.57 9.64258 319.127 9.64258C320.363 9.64258 321.295 9.91211 321.922 10.4512C322.555 10.9902 322.871 11.8369 322.871 12.9912V19.5391H321.395ZM318.318 18.1328C319.068 18.1328 319.669 17.9248 320.12 17.5088C320.577 17.0869 320.806 16.498 320.806 15.7422V14.8984L319.558 14.9512C318.585 14.9863 317.876 15.1504 317.431 15.4434C316.991 15.7305 316.771 16.1729 316.771 16.7705C316.771 17.2041 316.9 17.541 317.158 17.7812C317.416 18.0156 317.803 18.1328 318.318 18.1328ZM334.306 19.5391H332.231V13.5625C332.231 12.8125 332.079 12.2529 331.774 11.8838C331.476 11.5146 330.998 11.3301 330.342 11.3301C329.469 11.3301 328.83 11.5879 328.426 12.1035C328.021 12.6191 327.819 13.4834 327.819 14.6963V19.5391H325.754V9.81836H327.371L327.661 11.0928H327.767C328.06 10.6299 328.476 10.2725 329.015 10.0205C329.554 9.76855 330.151 9.64258 330.808 9.64258C333.14 9.64258 334.306 10.8291 334.306 13.2021V19.5391ZM335.703 9.81836H337.953L339.931 15.3291C340.229 16.1143 340.429 16.8525 340.528 17.5439H340.599C340.651 17.2217 340.748 16.832 340.889 16.375C341.029 15.9121 341.773 13.7266 343.121 9.81836H345.354L341.196 20.8311C340.44 22.8525 339.181 23.8633 337.417 23.8633C336.96 23.8633 336.515 23.8135 336.081 23.7139V22.0791C336.392 22.1494 336.746 22.1846 337.145 22.1846C338.141 22.1846 338.841 21.6074 339.245 20.4531L339.605 19.5391L335.703 9.81836Z" fill="#2F2E41"/>
<path d="M534.461 87.1406C533.206 87.1406 532.214 87.5599 531.484 88.3984C530.76 89.2318 530.398 90.375 530.398 91.8281C530.398 93.3229 530.747 94.4792 531.445 95.2969C532.148 96.1094 533.148 96.5156 534.445 96.5156C535.242 96.5156 536.151 96.3724 537.172 96.0859V97.25C536.38 97.5469 535.404 97.6953 534.242 97.6953C532.56 97.6953 531.26 97.1849 530.344 96.1641C529.432 95.1432 528.977 93.6927 528.977 91.8125C528.977 90.6354 529.195 89.6042 529.633 88.7188C530.076 87.8333 530.711 87.151 531.539 86.6719C532.372 86.1927 533.352 85.9531 534.477 85.9531C535.674 85.9531 536.721 86.1719 537.617 86.6094L537.055 87.75C536.19 87.3438 535.326 87.1406 534.461 87.1406ZM546.859 93.25C546.859 94.6458 546.508 95.737 545.805 96.5234C545.102 97.3047 544.13 97.6953 542.891 97.6953C542.125 97.6953 541.445 97.5156 540.852 97.1562C540.258 96.7969 539.799 96.2812 539.477 95.6094C539.154 94.9375 538.992 94.151 538.992 93.25C538.992 91.8542 539.341 90.7682 540.039 89.9922C540.737 89.2109 541.706 88.8203 542.945 88.8203C544.143 88.8203 545.094 89.2188 545.797 90.0156C546.505 90.8125 546.859 91.8906 546.859 93.25ZM540.336 93.25C540.336 94.3438 540.555 95.1771 540.992 95.75C541.43 96.3229 542.073 96.6094 542.922 96.6094C543.771 96.6094 544.414 96.3255 544.852 95.7578C545.294 95.1849 545.516 94.349 545.516 93.25C545.516 92.1615 545.294 91.3359 544.852 90.7734C544.414 90.2057 543.766 89.9219 542.906 89.9219C542.057 89.9219 541.417 90.2005 540.984 90.7578C540.552 91.3151 540.336 92.1458 540.336 93.25ZM555 97.5391V92C555 91.3021 554.841 90.7812 554.523 90.4375C554.206 90.0938 553.708 89.9219 553.031 89.9219C552.135 89.9219 551.479 90.1641 551.062 90.6484C550.646 91.1328 550.438 91.9323 550.438 93.0469V97.5391H549.141V88.9766H550.195L550.406 90.1484H550.469C550.734 89.7266 551.107 89.401 551.586 89.1719C552.065 88.9375 552.599 88.8203 553.188 88.8203C554.219 88.8203 554.995 89.0703 555.516 89.5703C556.036 90.0651 556.297 90.8594 556.297 91.9531V97.5391H555ZM561.734 96.625C561.964 96.625 562.185 96.6094 562.398 96.5781C562.612 96.5417 562.781 96.5052 562.906 96.4688V97.4609C562.766 97.5286 562.557 97.5833 562.281 97.625C562.01 97.6719 561.766 97.6953 561.547 97.6953C559.891 97.6953 559.062 96.8229 559.062 95.0781V89.9844H557.836V89.3594L559.062 88.8203L559.609 86.9922H560.359V88.9766H562.844V89.9844H560.359V95.0234C560.359 95.5391 560.482 95.9349 560.727 96.2109C560.971 96.487 561.307 96.625 561.734 96.625ZM569.891 97.5391L569.633 96.3203H569.57C569.143 96.8568 568.716 97.2214 568.289 97.4141C567.867 97.6016 567.339 97.6953 566.703 97.6953C565.854 97.6953 565.188 97.4766 564.703 97.0391C564.224 96.6016 563.984 95.9792 563.984 95.1719C563.984 93.4427 565.367 92.5365 568.133 92.4531L569.586 92.4062V91.875C569.586 91.2031 569.44 90.7083 569.148 90.3906C568.862 90.0677 568.401 89.9062 567.766 89.9062C567.052 89.9062 566.245 90.125 565.344 90.5625L564.945 89.5703C565.367 89.3411 565.828 89.1615 566.328 89.0312C566.833 88.901 567.339 88.8359 567.844 88.8359C568.865 88.8359 569.62 89.0625 570.109 89.5156C570.604 89.9688 570.852 90.6953 570.852 91.6953V97.5391H569.891ZM566.961 96.625C567.768 96.625 568.401 96.4036 568.859 95.9609C569.323 95.5182 569.555 94.8984 569.555 94.1016V93.3281L568.258 93.3828C567.227 93.4193 566.482 93.5807 566.023 93.8672C565.57 94.1484 565.344 94.5885 565.344 95.1875C565.344 95.6562 565.484 96.013 565.766 96.2578C566.052 96.5026 566.451 96.625 566.961 96.625ZM576.953 97.6953C575.714 97.6953 574.753 97.3151 574.07 96.5547C573.393 95.7891 573.055 94.7083 573.055 93.3125C573.055 91.8802 573.398 90.7734 574.086 89.9922C574.779 89.2109 575.763 88.8203 577.039 88.8203C577.451 88.8203 577.862 88.8646 578.273 88.9531C578.685 89.0417 579.008 89.1458 579.242 89.2656L578.844 90.3672C578.557 90.2526 578.245 90.1589 577.906 90.0859C577.568 90.0078 577.268 89.9688 577.008 89.9688C575.268 89.9688 574.398 91.0781 574.398 93.2969C574.398 94.349 574.609 95.1562 575.031 95.7188C575.458 96.2812 576.089 96.5625 576.922 96.5625C577.635 96.5625 578.367 96.4089 579.117 96.1016V97.25C578.544 97.5469 577.823 97.6953 576.953 97.6953ZM583.922 96.625C584.151 96.625 584.372 96.6094 584.586 96.5781C584.799 96.5417 584.969 96.5052 585.094 96.4688V97.4609C584.953 97.5286 584.745 97.5833 584.469 97.625C584.198 97.6719 583.953 97.6953 583.734 97.6953C582.078 97.6953 581.25 96.8229 581.25 95.0781V89.9844H580.023V89.3594L581.25 88.8203L581.797 86.9922H582.547V88.9766H585.031V89.9844H582.547V95.0234C582.547 95.5391 582.669 95.9349 582.914 96.2109C583.159 96.487 583.495 96.625 583.922 96.625ZM592.188 88.9766V94.5312C592.188 95.2292 592.346 95.75 592.664 96.0938C592.982 96.4375 593.479 96.6094 594.156 96.6094C595.052 96.6094 595.706 96.3646 596.117 95.875C596.534 95.3854 596.742 94.5859 596.742 93.4766V88.9766H598.039V97.5391H596.969L596.781 96.3906H596.711C596.445 96.8125 596.076 97.1354 595.602 97.3594C595.133 97.5833 594.596 97.6953 593.992 97.6953C592.951 97.6953 592.169 97.4479 591.648 96.9531C591.133 96.4583 590.875 95.6667 590.875 94.5781V88.9766H592.188ZM606.32 95.2031C606.32 96 606.023 96.6146 605.43 97.0469C604.836 97.4792 604.003 97.6953 602.93 97.6953C601.794 97.6953 600.909 97.5156 600.273 97.1562V95.9531C600.685 96.1615 601.125 96.3255 601.594 96.4453C602.068 96.5651 602.523 96.625 602.961 96.625C603.638 96.625 604.159 96.5182 604.523 96.3047C604.888 96.0859 605.07 95.7552 605.07 95.3125C605.07 94.9792 604.924 94.6953 604.633 94.4609C604.346 94.2214 603.784 93.9401 602.945 93.6172C602.148 93.3203 601.581 93.0625 601.242 92.8438C600.909 92.6198 600.659 92.3672 600.492 92.0859C600.331 91.8047 600.25 91.4688 600.25 91.0781C600.25 90.3802 600.534 89.8307 601.102 89.4297C601.669 89.0234 602.448 88.8203 603.438 88.8203C604.359 88.8203 605.26 89.0078 606.141 89.3828L605.68 90.4375C604.82 90.0833 604.042 89.9062 603.344 89.9062C602.729 89.9062 602.266 90.0026 601.953 90.1953C601.641 90.388 601.484 90.6536 601.484 90.9922C601.484 91.2214 601.542 91.4167 601.656 91.5781C601.776 91.7396 601.966 91.8932 602.227 92.0391C602.487 92.1849 602.987 92.3958 603.727 92.6719C604.742 93.0417 605.427 93.4141 605.781 93.7891C606.141 94.1641 606.32 94.6354 606.32 95.2031Z" fill="#717082"/>
<path d="M538.242 63.5391H536.914V58.1641H530.898V63.5391H529.57V52.1172H530.898V56.9766H536.914V52.1172H538.242V63.5391ZM544.805 63.6953C543.539 63.6953 542.539 63.3099 541.805 62.5391C541.076 61.7682 540.711 60.6979 540.711 59.3281C540.711 57.9479 541.049 56.8516 541.727 56.0391C542.409 55.2266 543.323 54.8203 544.469 54.8203C545.542 54.8203 546.391 55.1745 547.016 55.8828C547.641 56.5859 547.953 57.5156 547.953 58.6719V59.4922H542.055C542.081 60.4974 542.333 61.2604 542.812 61.7812C543.297 62.3021 543.977 62.5625 544.852 62.5625C545.773 62.5625 546.685 62.3698 547.586 61.9844V63.1406C547.128 63.3385 546.693 63.4792 546.281 63.5625C545.875 63.651 545.383 63.6953 544.805 63.6953ZM544.453 55.9062C543.766 55.9062 543.216 56.1302 542.805 56.5781C542.398 57.026 542.159 57.6458 542.086 58.4375H546.562C546.562 57.6198 546.38 56.9948 546.016 56.5625C545.651 56.125 545.13 55.9062 544.453 55.9062ZM551.469 63.5391H550.172V51.3828H551.469V63.5391ZM558.203 63.6953C557.646 63.6953 557.135 63.5938 556.672 63.3906C556.214 63.1823 555.828 62.8646 555.516 62.4375H555.422C555.484 62.9375 555.516 63.4115 555.516 63.8594V67.3828H554.219V54.9766H555.273L555.453 56.1484H555.516C555.849 55.6797 556.237 55.3411 556.68 55.1328C557.122 54.9245 557.63 54.8203 558.203 54.8203C559.339 54.8203 560.214 55.2083 560.828 55.9844C561.448 56.7604 561.758 57.849 561.758 59.25C561.758 60.6562 561.443 61.75 560.812 62.5312C560.188 63.3073 559.318 63.6953 558.203 63.6953ZM558.016 55.9219C557.141 55.9219 556.508 56.1641 556.117 56.6484C555.727 57.1328 555.526 57.9036 555.516 58.9609V59.25C555.516 60.4531 555.716 61.3151 556.117 61.8359C556.518 62.3516 557.161 62.6094 558.047 62.6094C558.786 62.6094 559.365 62.3099 559.781 61.7109C560.203 61.112 560.414 60.2865 560.414 59.2344C560.414 58.1667 560.203 57.349 559.781 56.7812C559.365 56.2083 558.776 55.9219 558.016 55.9219ZM571.609 63.6953C570.37 63.6953 569.409 63.3151 568.727 62.5547C568.049 61.7891 567.711 60.7083 567.711 59.3125C567.711 57.8802 568.055 56.7734 568.742 55.9922C569.435 55.2109 570.419 54.8203 571.695 54.8203C572.107 54.8203 572.518 54.8646 572.93 54.9531C573.341 55.0417 573.664 55.1458 573.898 55.2656L573.5 56.3672C573.214 56.2526 572.901 56.1589 572.562 56.0859C572.224 56.0078 571.924 55.9688 571.664 55.9688C569.924 55.9688 569.055 57.0781 569.055 59.2969C569.055 60.349 569.266 61.1562 569.688 61.7188C570.115 62.2812 570.745 62.5625 571.578 62.5625C572.292 62.5625 573.023 62.4089 573.773 62.1016V63.25C573.201 63.5469 572.479 63.6953 571.609 63.6953ZM579.43 63.6953C578.164 63.6953 577.164 63.3099 576.43 62.5391C575.701 61.7682 575.336 60.6979 575.336 59.3281C575.336 57.9479 575.674 56.8516 576.352 56.0391C577.034 55.2266 577.948 54.8203 579.094 54.8203C580.167 54.8203 581.016 55.1745 581.641 55.8828C582.266 56.5859 582.578 57.5156 582.578 58.6719V59.4922H576.68C576.706 60.4974 576.958 61.2604 577.438 61.7812C577.922 62.3021 578.602 62.5625 579.477 62.5625C580.398 62.5625 581.31 62.3698 582.211 61.9844V63.1406C581.753 63.3385 581.318 63.4792 580.906 63.5625C580.5 63.651 580.008 63.6953 579.43 63.6953ZM579.078 55.9062C578.391 55.9062 577.841 56.1302 577.43 56.5781C577.023 57.026 576.784 57.6458 576.711 58.4375H581.188C581.188 57.6198 581.005 56.9948 580.641 56.5625C580.276 56.125 579.755 55.9062 579.078 55.9062ZM590.656 63.5391V58C590.656 57.3021 590.497 56.7812 590.18 56.4375C589.862 56.0938 589.365 55.9219 588.688 55.9219C587.792 55.9219 587.135 56.1641 586.719 56.6484C586.302 57.1328 586.094 57.9323 586.094 59.0469V63.5391H584.797V54.9766H585.852L586.062 56.1484H586.125C586.391 55.7266 586.763 55.401 587.242 55.1719C587.721 54.9375 588.255 54.8203 588.844 54.8203C589.875 54.8203 590.651 55.0703 591.172 55.5703C591.693 56.0651 591.953 56.8594 591.953 57.9531V63.5391H590.656ZM597.391 62.625C597.62 62.625 597.841 62.6094 598.055 62.5781C598.268 62.5417 598.438 62.5052 598.562 62.4688V63.4609C598.422 63.5286 598.214 63.5833 597.938 63.625C597.667 63.6719 597.422 63.6953 597.203 63.6953C595.547 63.6953 594.719 62.8229 594.719 61.0781V55.9844H593.492V55.3594L594.719 54.8203L595.266 52.9922H596.016V54.9766H598.5V55.9844H596.016V61.0234C596.016 61.5391 596.138 61.9349 596.383 62.2109C596.628 62.487 596.964 62.625 597.391 62.625ZM603.898 63.6953C602.633 63.6953 601.633 63.3099 600.898 62.5391C600.169 61.7682 599.805 60.6979 599.805 59.3281C599.805 57.9479 600.143 56.8516 600.82 56.0391C601.503 55.2266 602.417 54.8203 603.562 54.8203C604.635 54.8203 605.484 55.1745 606.109 55.8828C606.734 56.5859 607.047 57.5156 607.047 58.6719V59.4922H601.148C601.174 60.4974 601.427 61.2604 601.906 61.7812C602.391 62.3021 603.07 62.5625 603.945 62.5625C604.867 62.5625 605.779 62.3698 606.68 61.9844V63.1406C606.221 63.3385 605.786 63.4792 605.375 63.5625C604.969 63.651 604.477 63.6953 603.898 63.6953ZM603.547 55.9062C602.859 55.9062 602.31 56.1302 601.898 56.5781C601.492 57.026 601.253 57.6458 601.18 58.4375H605.656C605.656 57.6198 605.474 56.9948 605.109 56.5625C604.745 56.125 604.224 55.9062 603.547 55.9062ZM613.172 54.8203C613.552 54.8203 613.893 54.8516 614.195 54.9141L614.016 56.1172C613.661 56.0391 613.349 56 613.078 56C612.385 56 611.792 56.2812 611.297 56.8438C610.807 57.4062 610.562 58.1068 610.562 58.9453V63.5391H609.266V54.9766H610.336L610.484 56.5625H610.547C610.865 56.0052 611.247 55.5755 611.695 55.2734C612.143 54.9714 612.635 54.8203 613.172 54.8203Z" fill="#717082"/>
<path d="M537.105 16.0498C537.105 17.1924 536.692 18.0889 535.866 18.7393C535.04 19.3896 533.9 19.7148 532.447 19.7148C530.994 19.7148 529.805 19.4893 528.879 19.0381V17.0518C529.465 17.3271 530.086 17.5439 530.742 17.7021C531.404 17.8604 532.02 17.9395 532.588 17.9395C533.42 17.9395 534.032 17.7812 534.425 17.4648C534.823 17.1484 535.022 16.7236 535.022 16.1904C535.022 15.71 534.841 15.3027 534.478 14.9688C534.114 14.6348 533.364 14.2393 532.228 13.7822C531.056 13.3076 530.229 12.7656 529.749 12.1562C529.269 11.5469 529.028 10.8145 529.028 9.95898C529.028 8.88672 529.409 8.04297 530.171 7.42773C530.933 6.8125 531.955 6.50488 533.238 6.50488C534.469 6.50488 535.693 6.77441 536.912 7.31348L536.244 9.02734C535.102 8.54688 534.082 8.30664 533.186 8.30664C532.506 8.30664 531.99 8.45605 531.639 8.75488C531.287 9.04785 531.111 9.4375 531.111 9.92383C531.111 10.2578 531.182 10.5449 531.322 10.7852C531.463 11.0195 531.694 11.2422 532.017 11.4531C532.339 11.6641 532.919 11.9424 533.757 12.2881C534.7 12.6807 535.392 13.0469 535.831 13.3867C536.271 13.7266 536.593 14.1104 536.798 14.5381C537.003 14.9658 537.105 15.4697 537.105 16.0498ZM546.229 19.5391L545.938 18.2646H545.833C545.546 18.7158 545.136 19.0703 544.603 19.3281C544.075 19.5859 543.472 19.7148 542.792 19.7148C541.614 19.7148 540.735 19.4219 540.155 18.8359C539.575 18.25 539.285 17.3623 539.285 16.1729V9.81836H541.368V15.8125C541.368 16.5566 541.521 17.1162 541.825 17.4912C542.13 17.8604 542.607 18.0449 543.258 18.0449C544.125 18.0449 544.761 17.7871 545.165 17.2715C545.575 16.75 545.78 15.8799 545.78 14.6611V9.81836H547.854V19.5391H546.229ZM555.729 19.7148C554.499 19.7148 553.544 19.2725 552.864 18.3877H552.741C552.823 19.208 552.864 19.7061 552.864 19.8818V23.8633H550.799V9.81836H552.469C552.516 10 552.612 10.4336 552.759 11.1191H552.864C553.509 10.1348 554.476 9.64258 555.765 9.64258C556.978 9.64258 557.921 10.082 558.595 10.9609C559.274 11.8398 559.614 13.0732 559.614 14.6611C559.614 16.249 559.269 17.4883 558.577 18.3789C557.892 19.2695 556.942 19.7148 555.729 19.7148ZM555.229 11.3301C554.408 11.3301 553.808 11.5703 553.427 12.0508C553.052 12.5312 552.864 13.2988 552.864 14.3535V14.6611C552.864 15.8447 553.052 16.7031 553.427 17.2363C553.802 17.7637 554.414 18.0273 555.264 18.0273C555.979 18.0273 556.529 17.7344 556.916 17.1484C557.303 16.5625 557.496 15.7275 557.496 14.6436C557.496 13.5537 557.303 12.7305 556.916 12.1738C556.535 11.6113 555.973 11.3301 555.229 11.3301ZM566.944 19.7148C565.714 19.7148 564.759 19.2725 564.079 18.3877H563.956C564.038 19.208 564.079 19.7061 564.079 19.8818V23.8633H562.014V9.81836H563.684C563.73 10 563.827 10.4336 563.974 11.1191H564.079C564.724 10.1348 565.69 9.64258 566.979 9.64258C568.192 9.64258 569.136 10.082 569.81 10.9609C570.489 11.8398 570.829 13.0732 570.829 14.6611C570.829 16.249 570.483 17.4883 569.792 18.3789C569.106 19.2695 568.157 19.7148 566.944 19.7148ZM566.443 11.3301C565.623 11.3301 565.022 11.5703 564.642 12.0508C564.267 12.5312 564.079 13.2988 564.079 14.3535V14.6611C564.079 15.8447 564.267 16.7031 564.642 17.2363C565.017 17.7637 565.629 18.0273 566.479 18.0273C567.193 18.0273 567.744 17.7344 568.131 17.1484C568.518 16.5625 568.711 15.7275 568.711 14.6436C568.711 13.5537 568.518 12.7305 568.131 12.1738C567.75 11.6113 567.188 11.3301 566.443 11.3301ZM581.851 14.6611C581.851 16.249 581.443 17.4883 580.629 18.3789C579.814 19.2695 578.681 19.7148 577.228 19.7148C576.319 19.7148 575.517 19.5098 574.819 19.0996C574.122 18.6895 573.586 18.1006 573.211 17.333C572.836 16.5654 572.648 15.6748 572.648 14.6611C572.648 13.085 573.053 11.8545 573.861 10.9697C574.67 10.085 575.81 9.64258 577.28 9.64258C578.687 9.64258 579.8 10.0967 580.62 11.0049C581.44 11.9072 581.851 13.126 581.851 14.6611ZM574.775 14.6611C574.775 16.9053 575.604 18.0273 577.263 18.0273C578.903 18.0273 579.724 16.9053 579.724 14.6611C579.724 12.4404 578.897 11.3301 577.245 11.3301C576.378 11.3301 575.748 11.6172 575.355 12.1914C574.969 12.7656 574.775 13.5889 574.775 14.6611ZM589.163 9.64258C589.579 9.64258 589.922 9.67188 590.191 9.73047L589.989 11.6553C589.696 11.585 589.392 11.5498 589.075 11.5498C588.249 11.5498 587.578 11.8193 587.062 12.3584C586.553 12.8975 586.298 13.5977 586.298 14.459V19.5391H584.232V9.81836H585.85L586.122 11.5322H586.228C586.55 10.9521 586.969 10.4922 587.484 10.1523C588.006 9.8125 588.565 9.64258 589.163 9.64258ZM595.623 18.0449C596.127 18.0449 596.631 17.9658 597.135 17.8076V19.3633C596.906 19.4629 596.61 19.5449 596.247 19.6094C595.89 19.6797 595.518 19.7148 595.131 19.7148C593.174 19.7148 592.195 18.6836 592.195 16.6211V11.3828H590.868V10.4688L592.292 9.71289L592.995 7.65625H594.27V9.81836H597.038V11.3828H594.27V16.5859C594.27 17.084 594.393 17.4531 594.639 17.6934C594.891 17.9277 595.219 18.0449 595.623 18.0449Z" fill="#2F2E41"/>
<rect x="780" y="44.5391" width="32" height="32" rx="1" fill="white"/>
<path fill-rule="evenodd" clip-rule="evenodd" d="M800.015 60.3315C800.281 59.6742 799.797 58.9566 799.088 58.9566H798.905C798.352 58.9566 797.905 58.5089 797.905 57.9566V56.8467C797.905 56.2644 798.383 56.3192 798.971 56.3192H799.038C799.59 56.3192 800.038 55.8715 800.038 55.3192V54.6819C800.038 54.1296 799.59 53.6819 799.038 53.6819H797.905C797.056 53.6819 796.242 54.0153 795.642 54.6088C795.042 55.2024 794.705 56.0074 794.705 56.8467V57.9566C794.705 58.5089 794.257 58.9566 793.705 58.9566H793.571C793.019 58.9566 792.571 59.4043 792.571 59.9566V60.594C792.571 61.1463 793.019 61.594 793.571 61.594H793.705C794.257 61.594 794.705 62.0417 794.705 62.594V66.3962C794.705 66.9485 795.152 67.3962 795.705 67.3962H796.905C797.457 67.3962 797.905 66.9485 797.905 66.3962V62.5496C797.905 62.0218 798.333 61.594 798.86 61.594C799.25 61.594 799.6 61.3577 799.746 60.9966L800.015 60.3315Z" fill="#9893A3"/>
<rect x="824" y="44.5391" width="32" height="32" rx="1" fill="white"/>
<g clip-path="url(#clip0_172_3386)">
<path d="M848.241 55.7287C847.809 56.3714 847.279 56.9192 846.651 57.3722C846.657 57.4937 846.661 57.631 846.661 57.7842C846.661 58.6351 846.537 59.487 846.288 60.34C846.04 61.193 845.661 62.0094 845.151 62.7893C844.642 63.5692 844.034 64.2602 843.329 64.8621C842.624 65.4641 841.777 65.9441 840.788 66.302C839.798 66.66 838.737 66.839 837.606 66.839C835.839 66.839 834.213 66.3622 832.726 65.4086C832.99 65.438 833.243 65.4527 833.486 65.4527C834.961 65.4527 836.279 64.9982 837.439 64.0893C836.751 64.0767 836.135 63.8649 835.591 63.454C835.046 63.0431 834.672 62.518 834.467 61.8788C834.67 61.9173 834.869 61.9366 835.067 61.9366C835.35 61.9366 835.63 61.8996 835.904 61.8256C835.17 61.6785 834.561 61.3129 834.077 60.7286C833.593 60.1443 833.351 59.4699 833.351 58.7055V58.6661C833.802 58.9156 834.283 59.0483 834.793 59.0642C834.358 58.7743 834.014 58.3962 833.759 57.93C833.504 57.4637 833.377 56.9592 833.377 56.4163C833.377 55.8438 833.52 55.3106 833.807 54.8169C834.606 55.7966 835.573 56.5796 836.709 57.166C837.846 57.7523 839.065 58.078 840.367 58.1429C840.312 57.9115 840.284 57.67 840.284 57.4184C840.284 56.54 840.594 55.79 841.216 55.1683C841.838 54.5467 842.588 54.2358 843.466 54.2358C844.386 54.2358 845.161 54.5707 845.79 55.2405C846.51 55.098 847.183 54.8402 847.811 54.4673C847.569 55.2284 847.103 55.8156 846.413 56.2288C847.047 56.1534 847.657 55.9867 848.241 55.7287H848.241Z" fill="#9893A3"/>
</g>
<rect x="868" y="44.5391" width="32" height="32" rx="1" fill="white"/>
<g clip-path="url(#clip1_172_3386)">
<path d="M881.072 58.6134H878.468V66.2379H881.072V58.6134Z" fill="#9893A3"/>
<path d="M880.634 55.0551C880.386 54.9049 880.094 54.8247 879.796 54.8247C879.597 54.8247 879.4 54.8604 879.216 54.9298C879.032 54.9991 878.865 55.1008 878.725 55.2289C878.585 55.357 878.474 55.509 878.398 55.6762C878.323 55.8434 878.285 56.0225 878.286 56.2031C878.288 56.4738 878.378 56.738 878.544 56.9624C878.711 57.1867 878.948 57.3612 879.224 57.4637C879.5 57.5662 879.803 57.5922 880.096 57.5385C880.388 57.4847 880.656 57.3535 880.867 57.1616C881.077 56.9696 881.22 56.7254 881.278 56.4597C881.335 56.1941 881.305 55.9189 881.19 55.669C881.076 55.419 880.882 55.2054 880.634 55.0551Z" fill="#9893A3"/>
<path d="M885.251 58.613H882.743L882.734 66.2533H885.338V62.4804C885.338 61.4879 885.546 60.527 886.9 60.527C888.254 60.527 888.254 61.6691 888.254 62.5513V66.2375H890.857V62.055C890.857 59.9993 890.328 58.4239 887.724 58.4239C887.228 58.4063 886.736 58.5113 886.3 58.7277C885.865 58.9441 885.502 59.2638 885.251 59.6527V58.613Z" fill="#9893A3"/>
</g>
<path d="M787.952 12.5693H792.681V19.0205C791.907 19.2725 791.163 19.4512 790.448 19.5566C789.739 19.6621 788.972 19.7148 788.146 19.7148C786.2 19.7148 784.7 19.1406 783.646 17.9922C782.591 16.8379 782.063 15.2119 782.063 13.1143C782.063 11.0459 782.658 9.42871 783.848 8.2627C785.037 7.09082 786.675 6.50488 788.761 6.50488C790.103 6.50488 791.374 6.7627 792.575 7.27832L791.837 9.02734C790.794 8.54688 789.751 8.30664 788.708 8.30664C787.337 8.30664 786.253 8.7373 785.456 9.59863C784.659 10.46 784.261 11.6377 784.261 13.1318C784.261 14.7021 784.618 15.8975 785.333 16.7178C786.054 17.5322 787.088 17.9395 788.436 17.9395C789.115 17.9395 789.842 17.8545 790.615 17.6846V14.3711H787.952V12.5693ZM799.8 19.7148C798.288 19.7148 797.104 19.2754 796.249 18.3965C795.399 17.5117 794.975 16.2959 794.975 14.749C794.975 13.1611 795.37 11.9131 796.161 11.0049C796.952 10.0967 798.039 9.64258 799.422 9.64258C800.705 9.64258 801.719 10.0322 802.463 10.8115C803.207 11.5908 803.579 12.6631 803.579 14.0283V15.1445H797.102C797.131 16.0879 797.386 16.8145 797.866 17.3242C798.347 17.8281 799.023 18.0801 799.896 18.0801C800.471 18.0801 801.004 18.0273 801.496 17.9219C801.994 17.8105 802.527 17.6289 803.096 17.377V19.0557C802.592 19.2959 802.082 19.4658 801.566 19.5654C801.051 19.665 800.462 19.7148 799.8 19.7148ZM799.422 11.207C798.766 11.207 798.238 11.415 797.84 11.8311C797.447 12.2471 797.213 12.8535 797.137 13.6504H801.549C801.537 12.8477 801.344 12.2412 800.969 11.8311C800.594 11.415 800.078 11.207 799.422 11.207ZM809.547 18.0449C810.051 18.0449 810.555 17.9658 811.059 17.8076V19.3633C810.83 19.4629 810.534 19.5449 810.171 19.6094C809.813 19.6797 809.441 19.7148 809.055 19.7148C807.098 19.7148 806.119 18.6836 806.119 16.6211V11.3828H804.792V10.4688L806.216 9.71289L806.919 7.65625H808.193V9.81836H810.962V11.3828H808.193V16.5859C808.193 17.084 808.316 17.4531 808.562 17.6934C808.814 17.9277 809.143 18.0449 809.547 18.0449ZM819.751 19.5391H817.686V9.81836H819.751V19.5391ZM817.562 7.24316C817.562 6.87402 817.662 6.58984 817.861 6.39062C818.066 6.19141 818.356 6.0918 818.731 6.0918C819.095 6.0918 819.376 6.19141 819.575 6.39062C819.78 6.58984 819.883 6.87402 819.883 7.24316C819.883 7.59473 819.78 7.87305 819.575 8.07812C819.376 8.27734 819.095 8.37695 818.731 8.37695C818.356 8.37695 818.066 8.27734 817.861 8.07812C817.662 7.87305 817.562 7.59473 817.562 7.24316ZM831.265 19.5391H829.19V13.5625C829.19 12.8125 829.038 12.2529 828.733 11.8838C828.435 11.5146 827.957 11.3301 827.301 11.3301C826.428 11.3301 825.789 11.5879 825.385 12.1035C824.98 12.6191 824.778 13.4834 824.778 14.6963V19.5391H822.713V9.81836H824.33L824.62 11.0928H824.726C825.019 10.6299 825.435 10.2725 825.974 10.0205C826.513 9.76855 827.11 9.64258 827.767 9.64258C830.099 9.64258 831.265 10.8291 831.265 13.2021V19.5391ZM842.436 18.0449C842.939 18.0449 843.443 17.9658 843.947 17.8076V19.3633C843.719 19.4629 843.423 19.5449 843.06 19.6094C842.702 19.6797 842.33 19.7148 841.943 19.7148C839.986 19.7148 839.008 18.6836 839.008 16.6211V11.3828H837.681V10.4688L839.104 9.71289L839.808 7.65625H841.082V9.81836H843.851V11.3828H841.082V16.5859C841.082 17.084 841.205 17.4531 841.451 17.6934C841.703 17.9277 842.031 18.0449 842.436 18.0449ZM854.521 14.6611C854.521 16.249 854.113 17.4883 853.299 18.3789C852.484 19.2695 851.351 19.7148 849.897 19.7148C848.989 19.7148 848.187 19.5098 847.489 19.0996C846.792 18.6895 846.256 18.1006 845.881 17.333C845.506 16.5654 845.318 15.6748 845.318 14.6611C845.318 13.085 845.723 11.8545 846.531 10.9697C847.34 10.085 848.479 9.64258 849.95 9.64258C851.356 9.64258 852.47 10.0967 853.29 11.0049C854.11 11.9072 854.521 13.126 854.521 14.6611ZM847.445 14.6611C847.445 16.9053 848.274 18.0273 849.933 18.0273C851.573 18.0273 852.394 16.9053 852.394 14.6611C852.394 12.4404 851.567 11.3301 849.915 11.3301C849.048 11.3301 848.418 11.6172 848.025 12.1914C847.639 12.7656 847.445 13.5889 847.445 14.6611ZM863.758 19.5391L863.468 18.2646H863.362C863.075 18.7158 862.665 19.0703 862.132 19.3281C861.604 19.5859 861.001 19.7148 860.321 19.7148C859.144 19.7148 858.265 19.4219 857.685 18.8359C857.104 18.25 856.814 17.3623 856.814 16.1729V9.81836H858.897V15.8125C858.897 16.5566 859.05 17.1162 859.354 17.4912C859.659 17.8604 860.137 18.0449 860.787 18.0449C861.654 18.0449 862.29 17.7871 862.694 17.2715C863.104 16.75 863.31 15.8799 863.31 14.6611V9.81836H865.384V19.5391H863.758ZM872.248 19.7148C870.777 19.7148 869.658 19.2871 868.891 18.4316C868.129 17.5703 867.748 16.3369 867.748 14.7314C867.748 13.0967 868.146 11.8398 868.943 10.9609C869.746 10.082 870.903 9.64258 872.415 9.64258C873.44 9.64258 874.363 9.83301 875.184 10.2139L874.56 11.875C873.687 11.5352 872.966 11.3652 872.397 11.3652C870.716 11.3652 869.875 12.4814 869.875 14.7139C869.875 15.8037 870.083 16.624 870.499 17.1748C870.921 17.7197 871.536 17.9922 872.345 17.9922C873.265 17.9922 874.135 17.7637 874.955 17.3066V19.1084C874.586 19.3252 874.19 19.4805 873.769 19.5742C873.353 19.668 872.846 19.7148 872.248 19.7148ZM885.792 19.5391H883.718V13.5625C883.718 12.8125 883.565 12.2529 883.261 11.8838C882.962 11.5146 882.484 11.3301 881.828 11.3301C880.961 11.3301 880.322 11.5908 879.912 12.1123C879.508 12.6279 879.306 13.4951 879.306 14.7139V19.5391H877.24V5.86328H879.306V9.33496C879.306 9.8916 879.271 10.4863 879.2 11.1191H879.332C879.613 10.6504 880.003 10.2871 880.501 10.0293C881.005 9.77148 881.591 9.64258 882.259 9.64258C884.614 9.64258 885.792 10.8291 885.792 13.2021V19.5391Z" fill="#2F2E41"/>
<defs>
<clipPath id="clip0_172_3386">
<rect x="832.727" y="54.2358" width="15.5152" height="12.6032" rx="1" fill="white"/>
</clipPath>
<clipPath id="clip1_172_3386">
<rect x="876.727" y="54.2361" width="15.5152" height="12.6032" rx="1" fill="white"/>
</clipPath>
</defs>
</svg>
