<svg width="463" height="59" viewBox="0 0 463 59" fill="none" xmlns="http://www.w3.org/2000/svg">
<path d="M21.5858 3.87848C23.9858 3.87848 26.0258 4.21848 27.7058 4.89848C29.3858 5.57848 31.0258 6.53849 32.6258 7.77849C33.0658 8.13849 33.4458 8.31849 33.7658 8.31849C34.5658 8.31849 35.0858 7.11849 35.3258 4.71849H36.7058C36.5458 7.43848 36.4658 12.2785 36.4658 19.2385H35.0858C34.7258 16.2785 34.2458 14.0185 33.6458 12.4585C33.0458 10.8985 32.0258 9.53848 30.5858 8.37849C29.5858 7.41849 28.4258 6.69849 27.1058 6.21848C25.7858 5.69848 24.4058 5.43848 22.9658 5.43848C18.9258 5.43848 15.9258 7.41848 13.9658 11.3785C12.0058 15.2985 11.0258 20.1985 11.0258 26.0785C11.0258 31.9185 12.0458 36.7985 14.0858 40.7185C16.1258 44.6385 19.1658 46.5985 23.2058 46.5985C24.5658 46.5985 25.9058 46.3585 27.2258 45.8785C28.5858 45.3585 29.7258 44.6185 30.6458 43.6585C32.1258 42.5385 33.1458 41.1385 33.7058 39.4585C34.3058 37.7785 34.7658 35.3185 35.0858 32.0785H36.4658C36.4658 39.3185 36.5458 44.3585 36.7058 47.1985H35.3258C35.2058 45.9185 35.0258 45.0185 34.7858 44.4985C34.5858 43.9385 34.2858 43.6585 33.8858 43.6585C33.5658 43.6585 33.1458 43.8185 32.6258 44.1385C30.8258 45.4185 29.1058 46.3985 27.4658 47.0785C25.8258 47.7185 23.8458 48.0385 21.5258 48.0385C17.2858 48.0385 13.5658 47.1785 10.3658 45.4585C7.20581 43.7385 4.74581 41.2585 2.98581 38.0185C1.22581 34.7385 0.345808 30.8385 0.345808 26.3185C0.345808 21.9185 1.24581 18.0185 3.04581 14.6185C4.84581 11.2185 7.34581 8.57849 10.5458 6.69849C13.7858 4.81848 17.4658 3.87848 21.5858 3.87848ZM52.6905 20.9185C54.4905 17.1985 57.7505 15.3385 62.4705 15.3385C65.5905 15.3385 67.7905 16.1185 69.0705 17.6785C69.7505 18.4385 70.2305 19.4385 70.5105 20.6785C70.8305 21.8785 70.9905 23.4785 70.9905 25.4785V41.6185C70.9905 43.2585 71.2705 44.3985 71.8305 45.0385C72.3905 45.6385 73.3905 45.9385 74.8305 45.9385V47.1985C70.6705 47.0385 68.0305 46.9585 66.9105 46.9585C65.5505 46.9585 62.9505 47.0385 59.1105 47.1985V45.9385C60.3105 45.9385 61.1505 45.6385 61.6305 45.0385C62.1105 44.3985 62.3505 43.2585 62.3505 41.6185V22.9585C62.3505 21.3185 62.0705 20.0785 61.5105 19.2385C60.9905 18.3985 60.0305 17.9785 58.6305 17.9785C56.9505 17.9785 55.5305 18.6385 54.3705 19.9585C53.2505 21.2385 52.6905 22.8785 52.6905 24.8785V41.6185C52.6905 43.2585 52.9305 44.3985 53.4105 45.0385C53.8905 45.6385 54.7305 45.9385 55.9305 45.9385V47.1985C52.0905 47.0385 49.6105 46.9585 48.4905 46.9585C47.1305 46.9585 44.3705 47.0385 40.2105 47.1985V45.9385C41.6105 45.9385 42.5905 45.6385 43.1505 45.0385C43.7505 44.3985 44.0505 43.2585 44.0505 41.6185V7.47848C44.0505 5.63848 43.7505 4.29849 43.1505 3.45848C42.5905 2.61848 41.6105 2.19848 40.2105 2.19848V0.938485C41.4905 1.05849 42.7305 1.11849 43.9305 1.11849C47.4105 1.11849 50.3305 0.838485 52.6905 0.278482V20.9185ZM91.4944 15.3385C96.0944 15.3385 99.6944 16.6585 102.294 19.2985C104.894 21.8985 106.194 26.0385 106.194 31.7185C106.194 37.3985 104.894 41.5385 102.294 44.1385C99.6944 46.7385 96.0944 48.0385 91.4944 48.0385C86.9344 48.0385 83.3344 46.7385 80.6944 44.1385C78.0944 41.5385 76.7944 37.3985 76.7944 31.7185C76.7944 26.0385 78.0944 21.8985 80.6944 19.2985C83.3344 16.6585 86.9344 15.3385 91.4944 15.3385ZM91.4944 16.5385C89.7744 16.5385 88.3944 17.7985 87.3544 20.3185C86.3544 22.7985 85.8544 26.5985 85.8544 31.7185C85.8544 36.8385 86.3544 40.6385 87.3544 43.1185C88.3944 45.5985 89.7744 46.8385 91.4944 46.8385C93.2544 46.8385 94.6344 45.6185 95.6344 43.1785C96.6344 40.6985 97.1344 36.8785 97.1344 31.7185C97.1344 26.5585 96.6144 22.7385 95.5744 20.2585C94.5744 17.7785 93.2144 16.5385 91.4944 16.5385ZM124.42 15.3385C129.02 15.3385 132.62 16.6585 135.22 19.2985C137.82 21.8985 139.12 26.0385 139.12 31.7185C139.12 37.3985 137.82 41.5385 135.22 44.1385C132.62 46.7385 129.02 48.0385 124.42 48.0385C119.86 48.0385 116.26 46.7385 113.62 44.1385C111.02 41.5385 109.72 37.3985 109.72 31.7185C109.72 26.0385 111.02 21.8985 113.62 19.2985C116.26 16.6585 119.86 15.3385 124.42 15.3385ZM124.42 16.5385C122.7 16.5385 121.32 17.7985 120.28 20.3185C119.28 22.7985 118.78 26.5985 118.78 31.7185C118.78 36.8385 119.28 40.6385 120.28 43.1185C121.32 45.5985 122.7 46.8385 124.42 46.8385C126.18 46.8385 127.56 45.6185 128.56 43.1785C129.56 40.6985 130.06 36.8785 130.06 31.7185C130.06 26.5585 129.54 22.7385 128.5 20.2585C127.5 17.7785 126.14 16.5385 124.42 16.5385ZM153.746 15.3385C155.266 15.3385 156.666 15.5385 157.946 15.9385C159.226 16.2985 160.206 16.7185 160.886 17.1985C161.286 17.4785 161.646 17.6185 161.966 17.6185C162.326 17.6185 162.626 17.4385 162.866 17.0785C163.146 16.6785 163.326 16.1185 163.406 15.3985H164.666C164.506 17.4385 164.426 20.9585 164.426 25.9585H163.166C162.806 23.3185 162.006 21.1185 160.766 19.3585C159.566 17.5585 157.806 16.6585 155.486 16.6585C154.286 16.6585 153.286 16.9985 152.486 17.6785C151.726 18.3585 151.346 19.2985 151.346 20.4985C151.346 21.8585 151.806 23.0385 152.726 24.0385C153.646 24.9985 155.086 26.1785 157.046 27.5785L158.786 28.8385C161.226 30.6785 163.026 32.3185 164.186 33.7585C165.346 35.1985 165.926 36.9985 165.926 39.1585C165.926 40.9185 165.406 42.4785 164.366 43.8385C163.366 45.1985 162.006 46.2385 160.286 46.9585C158.566 47.6785 156.666 48.0385 154.586 48.0385C152.386 48.0385 150.506 47.6185 148.946 46.7785C147.666 46.1385 146.746 45.7185 146.186 45.5185C145.786 45.3985 145.426 45.5385 145.106 45.9385C144.826 46.2985 144.606 46.8585 144.446 47.6185H143.186C143.346 45.3385 143.426 41.3385 143.426 35.6185H144.686C145.486 42.9785 148.186 46.6585 152.786 46.6585C153.946 46.6585 154.926 46.3185 155.726 45.6385C156.566 44.9185 156.986 43.8385 156.986 42.3985C156.986 41.2785 156.726 40.2785 156.206 39.3985C155.726 38.5185 155.106 37.7385 154.346 37.0585C153.586 36.3785 152.446 35.4385 150.926 34.2385C149.126 32.7985 147.746 31.6385 146.786 30.7585C145.866 29.8785 145.066 28.8385 144.386 27.6385C143.746 26.4385 143.426 25.0985 143.426 23.6185C143.426 21.0585 144.426 19.0385 146.426 17.5585C148.426 16.0785 150.866 15.3385 153.746 15.3385ZM186.221 43.1185C189.501 43.1185 192.141 41.5185 194.141 38.3185L195.221 38.6785C194.421 41.2785 192.981 43.4985 190.901 45.3385C188.861 47.1385 186.301 48.0385 183.221 48.0385C178.981 48.0385 175.601 46.6985 173.081 44.0185C170.601 41.2985 169.361 37.2985 169.361 32.0185C169.361 26.6185 170.701 22.4985 173.381 19.6585C176.061 16.7785 179.621 15.3385 184.061 15.3385C191.581 15.3385 195.341 19.7785 195.341 28.6585H178.481C178.441 29.2585 178.421 30.1985 178.421 31.4785C178.421 34.1185 178.781 36.3185 179.501 38.0785C180.261 39.8385 181.221 41.1185 182.381 41.9185C183.581 42.7185 184.861 43.1185 186.221 43.1185ZM183.701 16.5985C182.261 16.5985 181.061 17.4985 180.101 19.2985C179.181 21.0585 178.601 23.7985 178.361 27.5185H187.781C187.861 24.3585 187.541 21.7585 186.821 19.7185C186.141 17.6385 185.101 16.5985 183.701 16.5985ZM233.781 16.3585C235.781 16.3585 237.321 16.2985 238.401 16.1785V17.3785C237.561 17.6185 236.801 18.1385 236.121 18.9385C235.481 19.6985 234.861 20.8985 234.261 22.5385L223.521 52.7185C222.721 54.7985 221.841 56.2185 220.881 56.9785C219.721 57.9785 217.981 58.4785 215.661 58.4785C213.981 58.4785 212.461 58.0585 211.101 57.2185C209.781 56.4185 209.121 55.2385 209.121 53.6785C209.121 52.4385 209.561 51.4385 210.441 50.6785C211.321 49.9585 212.481 49.5985 213.921 49.5985C215.281 49.5985 216.361 49.9185 217.161 50.5585C218.001 51.2385 218.421 52.1785 218.421 53.3785C218.421 54.2185 218.161 54.9785 217.641 55.6585C217.121 56.3785 216.381 56.9185 215.421 57.2785C215.701 57.3185 216.161 57.3385 216.801 57.3385C219.281 57.3385 221.101 55.7585 222.261 52.5985L223.221 49.7185L210.501 20.7985C209.861 19.4385 209.241 18.5385 208.641 18.0985C208.041 17.6585 207.421 17.4385 206.781 17.4385V16.1785C209.421 16.4185 212.161 16.5385 215.001 16.5385C217.361 16.5385 220.141 16.4185 223.341 16.1785V17.4385C222.061 17.4385 221.101 17.5385 220.461 17.7385C219.861 17.8985 219.561 18.3585 219.561 19.1185C219.561 19.5585 219.701 20.1185 219.981 20.7985L227.301 38.4985L231.441 26.9785C232.081 25.0985 232.401 23.4985 232.401 22.1785C232.401 19.2585 230.921 17.6585 227.961 17.3785V16.1785C229.841 16.2985 231.781 16.3585 233.781 16.3585ZM253.776 15.3385C258.376 15.3385 261.976 16.6585 264.576 19.2985C267.176 21.8985 268.476 26.0385 268.476 31.7185C268.476 37.3985 267.176 41.5385 264.576 44.1385C261.976 46.7385 258.376 48.0385 253.776 48.0385C249.216 48.0385 245.616 46.7385 242.976 44.1385C240.376 41.5385 239.076 37.3985 239.076 31.7185C239.076 26.0385 240.376 21.8985 242.976 19.2985C245.616 16.6585 249.216 15.3385 253.776 15.3385ZM253.776 16.5385C252.056 16.5385 250.676 17.7985 249.636 20.3185C248.636 22.7985 248.136 26.5985 248.136 31.7185C248.136 36.8385 248.636 40.6385 249.636 43.1185C250.676 45.5985 252.056 46.8385 253.776 46.8385C255.536 46.8385 256.916 45.6185 257.916 43.1785C258.916 40.6985 259.416 36.8785 259.416 31.7185C259.416 26.5585 258.896 22.7385 257.856 20.2585C256.856 17.7785 255.496 16.5385 253.776 16.5385ZM301.101 40.6585C301.101 42.4985 301.381 43.8385 301.941 44.6785C302.541 45.5185 303.541 45.9385 304.941 45.9385V47.1985C303.701 47.0785 302.461 47.0185 301.221 47.0185C297.741 47.0185 294.821 47.2985 292.461 47.8585V42.4585C290.621 46.1785 287.401 48.0385 282.801 48.0385C279.801 48.0385 277.621 47.2585 276.261 45.6985C275.621 44.9385 275.141 43.9585 274.821 42.7585C274.541 41.5185 274.401 39.8985 274.401 37.8985V22.7185C274.401 20.8785 274.101 19.5385 273.501 18.6985C272.941 17.8585 271.961 17.4385 270.561 17.4385V16.1785C271.801 16.2985 273.041 16.3585 274.281 16.3585C277.761 16.3585 280.681 16.0785 283.041 15.5185V40.3585C283.041 42.0385 283.281 43.2985 283.761 44.1385C284.281 44.9785 285.241 45.3985 286.641 45.3985C288.241 45.3985 289.601 44.7385 290.721 43.4185C291.881 42.0585 292.461 40.3985 292.461 38.4385V22.7185C292.461 20.8785 292.161 19.5385 291.561 18.6985C291.001 17.8585 290.021 17.4385 288.621 17.4385V16.1785C289.901 16.2985 291.141 16.3585 292.341 16.3585C295.821 16.3585 298.741 16.0785 301.101 15.5185V40.6585ZM327.248 15.3385C329.048 15.3385 330.408 15.8785 331.328 16.9585C332.248 18.0385 332.708 19.3385 332.708 20.8585C332.708 22.3385 332.268 23.5585 331.388 24.5185C330.548 25.4385 329.428 25.8985 328.028 25.8985C326.668 25.8985 325.588 25.5585 324.788 24.8785C323.988 24.1585 323.588 23.2185 323.588 22.0585C323.588 20.1385 324.468 18.5785 326.228 17.3785C326.068 17.3385 325.828 17.3185 325.508 17.3185C325.108 17.3185 324.788 17.3585 324.548 17.4385C323.028 17.6785 321.728 18.5985 320.648 20.1985C319.608 21.7985 319.088 23.4385 319.088 25.1185V41.0185C319.088 42.8585 319.528 44.1385 320.408 44.8585C321.328 45.5785 322.768 45.9385 324.728 45.9385V47.1985C324.168 47.1985 323.708 47.1785 323.348 47.1385C319.268 47.0185 316.548 46.9585 315.188 46.9585C314.108 46.9585 311.648 47.0185 307.808 47.1385C307.488 47.1785 307.088 47.1985 306.608 47.1985V45.9385C308.048 45.9385 309.048 45.6385 309.608 45.0385C310.168 44.3985 310.448 43.2585 310.448 41.6185V22.7185C310.448 20.8785 310.168 19.5385 309.608 18.6985C309.048 17.8585 308.048 17.4385 306.608 17.4385V16.1785C307.888 16.2985 309.128 16.3585 310.328 16.3585C313.888 16.3585 316.808 16.0785 319.088 15.5185V21.0985C319.848 19.3785 320.948 17.9985 322.388 16.9585C323.828 15.8785 325.448 15.3385 327.248 15.3385ZM366.871 15.3385C368.951 15.3385 370.791 15.8985 372.391 17.0185C374.031 18.1385 375.311 19.8185 376.231 22.0585C377.151 24.2985 377.611 27.0385 377.611 30.2785C377.611 35.9985 376.351 40.3985 373.831 43.4785C371.351 46.5185 367.971 48.0385 363.691 48.0385C362.491 48.0385 361.351 47.8785 360.271 47.5585C359.231 47.2385 358.331 46.7585 357.571 46.1185V52.1185C357.571 53.8785 358.011 55.0985 358.891 55.7785C359.771 56.4585 361.131 56.7985 362.971 56.7985V58.0585L361.351 57.9985C356.911 57.8785 354.091 57.8185 352.891 57.8185C351.691 57.8185 349.171 57.8985 345.331 58.0585V56.7985C346.651 56.7985 347.571 56.4985 348.091 55.8985C348.651 55.3385 348.931 54.2785 348.931 52.7185V22.7185C348.931 20.8785 348.631 19.5385 348.031 18.6985C347.471 17.8585 346.491 17.4385 345.091 17.4385V16.1785C346.371 16.2985 347.611 16.3585 348.811 16.3585C352.291 16.3585 355.211 16.0785 357.571 15.5185V21.0385C358.411 19.1985 359.631 17.7985 361.231 16.8385C362.831 15.8385 364.711 15.3385 366.871 15.3385ZM361.351 46.4185C363.911 46.4185 365.751 45.1585 366.871 42.6385C367.991 40.0785 368.551 36.3585 368.551 31.4785C368.551 26.5985 368.091 23.1185 367.171 21.0385C366.291 18.9585 365.011 17.9185 363.331 17.9185C361.971 17.9185 360.751 18.3785 359.671 19.2985C358.631 20.2185 357.931 21.4985 357.571 23.1385V44.7985C358.531 45.8785 359.791 46.4185 361.351 46.4185ZM392.547 41.6185C392.547 43.2585 392.827 44.3985 393.387 45.0385C393.947 45.6385 394.947 45.9385 396.387 45.9385V47.1985C392.227 47.0385 389.547 46.9585 388.347 46.9585C386.987 46.9585 384.227 47.0385 380.067 47.1985V45.9385C381.467 45.9385 382.447 45.6385 383.007 45.0385C383.607 44.3985 383.907 43.2585 383.907 41.6185V7.41848C383.907 5.57848 383.607 4.23848 383.007 3.39849C382.447 2.55848 381.467 2.13848 380.067 2.13848V0.878485C381.347 0.998484 382.587 1.05848 383.787 1.05848C387.267 1.05848 390.187 0.778483 392.547 0.218483V41.6185ZM405.86 47.6185C403.3 47.6185 401.38 46.9585 400.1 45.6385C398.86 44.3185 398.24 42.5785 398.24 40.4185C398.24 38.6185 398.7 37.1385 399.62 35.9785C400.58 34.7785 401.72 33.8585 403.04 33.2185C404.4 32.5785 406.12 31.8985 408.2 31.1785C410.4 30.4185 412 29.7385 413 29.1385C414.04 28.4985 414.56 27.6385 414.56 26.5585V21.8785C414.56 20.1985 414.16 18.8985 413.36 17.9785C412.6 17.0185 411.4 16.5385 409.76 16.5385C407.84 16.5385 406.38 17.0185 405.38 17.9785C406.5 18.3785 407.36 18.9785 407.96 19.7785C408.6 20.5785 408.92 21.5185 408.92 22.5985C408.92 23.9585 408.46 25.0385 407.54 25.8385C406.62 26.6385 405.5 27.0385 404.18 27.0385C402.78 27.0385 401.7 26.5985 400.94 25.7185C400.18 24.8385 399.8 23.7385 399.8 22.4185C399.8 21.2985 400.06 20.3585 400.58 19.5985C401.14 18.7985 401.98 18.0585 403.1 17.3785C404.18 16.7385 405.5 16.2385 407.06 15.8785C408.66 15.5185 410.4 15.3385 412.28 15.3385C414.24 15.3385 415.94 15.5385 417.38 15.9385C418.82 16.3385 420.02 17.0185 420.98 17.9785C421.86 18.8585 422.44 19.9385 422.72 21.2185C423.04 22.4985 423.2 24.2385 423.2 26.4385V42.7585C423.2 43.7185 423.28 44.3985 423.44 44.7985C423.64 45.1985 424 45.3985 424.52 45.3985C425.12 45.3985 425.84 45.0585 426.68 44.3785L427.28 45.3985C425.48 46.8785 423.28 47.6185 420.68 47.6185C418.48 47.6185 416.94 47.1785 416.06 46.2985C415.18 45.4185 414.72 44.2385 414.68 42.7585C412.68 45.9985 409.74 47.6185 405.86 47.6185ZM410.48 43.7785C412.04 43.7785 413.4 42.9585 414.56 41.3185V29.0185C414.08 29.8185 413.06 30.6985 411.5 31.6585C409.94 32.6585 408.76 33.6585 407.96 34.6585C407.16 35.6585 406.76 37.0985 406.76 38.9785C406.76 40.6185 407.1 41.8385 407.78 42.6385C408.46 43.3985 409.36 43.7785 410.48 43.7785ZM450.315 15.3385C453.355 15.3385 455.555 16.1185 456.915 17.6785C457.595 18.4385 458.075 19.4185 458.355 20.6185C458.635 21.8185 458.775 23.4385 458.775 25.4785V41.6185C458.775 43.2585 459.055 44.3985 459.615 45.0385C460.215 45.6385 461.215 45.9385 462.615 45.9385V47.1985C458.615 47.0385 455.975 46.9585 454.695 46.9585C453.495 46.9585 450.895 47.0385 446.895 47.1985V45.9385C448.095 45.9385 448.935 45.6385 449.415 45.0385C449.895 44.3985 450.135 43.2585 450.135 41.6185V22.9585C450.135 21.3185 449.855 20.0785 449.295 19.2385C448.775 18.3985 447.815 17.9785 446.415 17.9785C444.775 17.9785 443.375 18.6585 442.215 20.0185C441.055 21.3385 440.475 22.9785 440.475 24.9385V41.6185C440.475 43.2585 440.715 44.3985 441.195 45.0385C441.675 45.6385 442.515 45.9385 443.715 45.9385V47.1985C440.035 47.0385 437.555 46.9585 436.275 46.9585C435.075 46.9585 432.315 47.0385 427.995 47.1985V45.9385C429.435 45.9385 430.435 45.6385 430.995 45.0385C431.555 44.3985 431.835 43.2585 431.835 41.6185V22.7185C431.835 20.8785 431.555 19.5385 430.995 18.6985C430.435 17.8585 429.435 17.4385 427.995 17.4385V16.1785C429.275 16.2985 430.515 16.3585 431.715 16.3585C435.275 16.3585 438.195 16.0785 440.475 15.5185V20.9185C442.275 17.1985 445.555 15.3385 450.315 15.3385Z" fill="#2F2E41"/>
</svg>
