<svg width="900" height="36" viewBox="0 0 900 36" fill="none" xmlns="http://www.w3.org/2000/svg">
<path fill-rule="evenodd" clip-rule="evenodd" d="M26.3305 9.12085C27.2271 10.0928 27.9658 11.1772 28.5239 12.3408C29.3368 14.0375 29.755 15.8694 29.7521 17.7208C29.7461 25.1942 23.11 31.2543 14.9141 31.2708C13.0071 31.2699 11.1186 30.9302 9.35397 30.2708C8.09537 29.8148 6.91387 29.1987 5.84461 28.4408C1.29668 25.2804 -0.854957 20.0182 0.313762 14.9143C1.48248 9.81032 5.76356 5.77289 11.3184 4.53592C16.8733 3.29896 22.7134 5.08261 26.3305 9.12085ZM19.8598 7.91087C18.3072 7.25201 16.6153 6.9107 14.9028 6.91087L14.9138 6.89087C10.8528 6.88811 7.07347 8.78265 4.90001 11.9106C2.72655 15.0386 2.46208 18.9638 4.19927 22.3109C4.69463 21.8363 4.99989 21.2233 5.06564 20.5709C5.46451 18.0583 7.62903 16.0846 10.3845 15.7209C11.9392 15.5923 13.1808 14.4853 13.3565 13.0709C13.7554 10.5583 15.9199 8.58458 18.6754 8.22087C19.0831 8.16423 19.4812 8.06004 19.8598 7.91087ZM5.83341 24.7208C5.87728 24.6841 5.92115 24.6486 5.96502 24.613C6.05275 24.5419 6.14049 24.4708 6.22822 24.3908C7.20388 23.5283 7.83015 22.3897 8.00483 21.1608C8.07566 20.4701 8.41389 19.8249 8.95894 19.3408C9.48342 18.843 10.1894 18.5371 10.9439 18.4808C13.6994 18.1171 15.8639 16.1434 16.2628 13.6308C16.3102 12.9083 16.6503 12.2277 17.2169 11.7208C17.7543 11.2327 18.467 10.9379 19.2238 10.8908C20.4564 10.7362 21.606 10.2365 22.5139 9.46082C23.5476 10.2429 24.4235 11.1837 25.102 12.2408C25.0603 12.2922 25.0125 12.3391 24.9594 12.3808C24.436 12.883 23.7309 13.1956 22.9745 13.2608C20.2155 13.6183 18.0476 15.5951 17.6556 18.1108C17.4962 19.5302 16.2627 20.6508 14.7055 20.7908C11.9424 21.1517 9.76654 23.1235 9.35374 25.6408C9.29472 26.1295 9.11066 26.5988 8.81637 27.0108C7.69118 26.4017 6.68343 25.628 5.83341 24.7208ZM11.6125 28.1609C12.6821 28.4406 13.7895 28.582 14.9023 28.5809V28.5309C18.5749 28.5179 22.0339 26.9547 24.2696 24.2976C26.5053 21.6406 27.2657 18.1892 26.3289 14.9509C25.4964 15.4877 24.5327 15.8309 23.5216 15.9509C21.9688 16.0953 20.7411 17.2149 20.5827 18.6309C20.1826 21.1466 18.0128 23.1212 15.2532 23.4809C13.7004 23.6253 12.4727 24.7449 12.3143 26.1609C12.2162 26.861 11.9784 27.5389 11.6125 28.1609Z" fill="#9893A3" fill-opacity="0.6"/>
<path d="M40.7908 23.3914H43.0369C43.688 23.3914 44.0135 23.0007 44.0135 22.2195V17.3367C44.0135 16.5554 43.688 16.1648 43.0369 16.1648H40.7908C40.1398 16.1648 39.8143 16.5554 39.8143 17.3367V22.2195C39.8143 23.0007 40.1398 23.3914 40.7908 23.3914ZM40.7908 25.1492C38.8377 25.1492 37.8611 24.1726 37.8611 22.2195V10.8914L39.7166 10.0125H39.8143V14.7097C40.0747 14.5079 40.4002 14.407 40.7908 14.407H43.0369C44.9901 14.407 45.9666 15.3835 45.9666 17.3367V22.2195C45.9666 24.1726 44.9901 25.1492 43.0369 25.1492H40.7908Z" fill="#9893A3" fill-opacity="0.6"/>
<path d="M50.5311 12.2488C50.3032 12.0144 50.1893 11.7345 50.1893 11.4089C50.1893 11.0769 50.3032 10.7937 50.5311 10.5593C50.7589 10.325 51.0356 10.2078 51.3611 10.2078C51.6867 10.2078 51.9634 10.325 52.1912 10.5593C52.4191 10.7937 52.533 11.0769 52.533 11.4089C52.533 11.7345 52.4191 12.0144 52.1912 12.2488C51.9634 12.4832 51.6867 12.6003 51.3611 12.6003C51.0356 12.6003 50.7589 12.4832 50.5311 12.2488ZM50.3846 25.5398V14.8953L52.2401 14.0164H52.3377V24.6609L50.4822 25.5398H50.3846Z" fill="#9893A3" fill-opacity="0.6"/>
<path d="M56.7557 25.5398V17.3367C56.7557 15.3835 57.7322 14.407 59.6854 14.407H61.9315C63.8846 14.407 64.8611 15.3835 64.8611 17.3367V24.6609L63.0057 25.5398H62.908V17.3367C62.908 16.5554 62.5825 16.1648 61.9315 16.1648H59.6854C59.0343 16.1648 58.7088 16.5554 58.7088 17.3367V24.6609L56.8533 25.5398H56.7557Z" fill="#9893A3" fill-opacity="0.6"/>
<path d="M71.2322 23.3914H73.283C73.9341 23.3914 74.2596 23.0007 74.2596 22.2195V20.8816C74.2596 20.1003 73.9341 19.7097 73.283 19.7097H71.2322C70.5812 19.7097 70.2557 20.1003 70.2557 20.8816V22.2195C70.2557 23.0007 70.5812 23.3914 71.2322 23.3914ZM71.2322 25.1492C69.2791 25.1492 68.3026 24.1726 68.3026 22.2195V20.8816C68.3026 18.9285 69.2791 17.9519 71.2322 17.9519H73.283C73.6216 17.9519 73.9471 18.0496 74.2596 18.2449V17.3367C74.2596 16.5554 73.9341 16.1648 73.283 16.1648H69.7869V16.0671L70.5682 14.407H73.283C75.2361 14.407 76.2127 15.3835 76.2127 17.3367V24.6609L74.3572 25.5398H74.2596V24.8562C74.0122 25.0515 73.6867 25.1492 73.283 25.1492H71.2322Z" fill="#9893A3" fill-opacity="0.6"/>
<path d="M81.4315 25.5398V16.1843H78.9217V16.0867L79.7127 14.407H81.4315V10.8914L83.2869 10.0125H83.3846V14.407H85.8943V14.5046L85.1033 16.1843H83.3846V24.6609L81.5291 25.5398H81.4315Z" fill="#9893A3" fill-opacity="0.6"/>
<path d="M91.533 23.3914H93.7791C94.4302 23.3914 94.7557 23.0007 94.7557 22.2195V17.3367C94.7557 16.5554 94.4302 16.1648 93.7791 16.1648H91.533C90.882 16.1648 90.5565 16.5554 90.5565 17.3367V22.2195C90.5565 23.0007 90.882 23.3914 91.533 23.3914ZM91.533 25.1492C89.5799 25.1492 88.6033 24.1726 88.6033 22.2195V17.3367C88.6033 15.3835 89.5799 14.407 91.533 14.407H93.7791C95.7322 14.407 96.7088 15.3835 96.7088 17.3367V22.2195C96.7088 24.1726 95.7322 25.1492 93.7791 25.1492H91.533Z" fill="#9893A3" fill-opacity="0.6"/>
<path d="M100.638 25.5398V17.3367C100.638 15.3835 101.615 14.407 103.568 14.407H106.01V14.5046L105.228 16.1648H103.568C102.917 16.1648 102.592 16.5554 102.592 17.3367V24.6609L100.736 25.5398H100.638Z" fill="#9893A3" fill-opacity="0.6"/>
<path fill-rule="evenodd" clip-rule="evenodd" d="M211.124 1.15622V26.4065C211.124 26.7164 211.01 27.0137 210.808 27.2328C210.606 27.452 210.331 27.5751 210.045 27.5751H209.793C209.197 27.5751 208.714 27.0519 208.714 26.4065V1.15622C208.72 0.515649 209.201 -3.62487e-05 209.793 1.91108e-09H210.045C210.636 -3.62487e-05 211.118 0.515649 211.124 1.15622ZM224.356 17.1625C224.584 16.9275 224.891 16.804 225.205 16.8211L225.148 16.8459C225.482 16.809 225.814 16.9324 226.057 17.1834C226.3 17.4345 226.429 17.7882 226.41 18.1513V24.9892C226.41 25.7101 225.871 26.2946 225.205 26.2946C224.54 26.2946 224 25.7101 224 24.9892V18.0643C224 17.7235 224.129 17.3975 224.356 17.1625ZM227.8 20.7621C227.8 20.0755 228.314 19.5189 228.948 19.5189C229.28 19.4859 229.609 19.6109 229.849 19.8616C230.089 20.1122 230.217 20.4636 230.199 20.8243V22.3286C230.199 23.0462 229.662 23.6278 228.999 23.6278C228.337 23.6278 227.8 23.0462 227.8 22.3286V20.7621ZM218.733 31.1059V22.1173C218.374 22.4128 217.932 22.5663 217.482 22.5524C217.068 22.5413 216.668 22.3938 216.334 22.1297V31.1059C216.334 31.8234 216.871 32.4051 217.533 32.4051C218.196 32.4051 218.733 31.8234 218.733 31.1059ZM213.729 25.5238C213.316 25.5104 212.916 25.3631 212.581 25.1011V34.1146C212.581 34.8355 213.121 35.42 213.786 35.42C214.452 35.42 214.991 34.8355 214.991 34.1146V25.1632C214.617 25.4256 214.174 25.5519 213.729 25.5238ZM221.395 19.4816C220.963 19.4784 220.542 19.3308 220.19 19.0589V28.0973C220.19 28.8183 220.73 29.4027 221.395 29.4027C222.061 29.4027 222.6 28.8183 222.6 28.0973V19.0714C222.236 19.3652 221.792 19.5184 221.338 19.5065L221.395 19.4816ZM213.855 24.5665H213.603C213.007 24.5665 212.524 24.0432 212.524 23.3978V4.16484C212.53 3.52428 213.011 3.00859 213.603 3.00863H213.855C214.447 3.00859 214.928 3.52428 214.934 4.16484V23.4227C214.934 24.0681 214.451 24.5913 213.855 24.5913V24.5665ZM217.39 21.6076H217.654C218.243 21.6076 218.721 21.0899 218.721 20.4513V7.14864C218.721 6.50804 218.245 5.98681 217.654 5.97999H217.39C217.105 5.97998 216.832 6.1035 216.631 6.32303C216.431 6.54255 216.32 6.83985 216.323 7.14864V20.4513C216.323 21.0899 216.8 21.6076 217.39 21.6076ZM221.452 18.5616H221.211C220.62 18.5616 220.139 18.046 220.133 17.4054V10.2443C220.113 9.92165 220.219 9.60487 220.423 9.36929C220.627 9.13372 220.913 9.00041 221.211 9.00107H221.464C222.06 9.00107 222.543 9.52429 222.543 10.1697V17.3805C222.546 17.6926 222.433 17.9931 222.231 18.2149C222.028 18.4368 221.752 18.5616 221.464 18.5616H221.452ZM225.01 15.8886H225.262H225.274C225.865 15.8818 226.341 15.3606 226.341 14.72V12.8675C226.335 12.227 225.854 11.7113 225.262 11.7113H225.01C224.419 11.7113 223.937 12.227 223.931 12.8675V14.72C223.931 15.3654 224.414 15.8886 225.01 15.8886Z" fill="#9893A3" fill-opacity="0.6"/>
<path d="M250.997 16.333C250.997 17.8564 250.672 19.0459 250.021 19.9014C249.371 20.751 248.463 21.1758 247.297 21.1758C246.266 21.1758 245.442 20.7803 244.827 19.9893L244.713 21H242.428V7.5H244.968V12.3428C245.554 11.6572 246.324 11.3145 247.279 11.3145C248.439 11.3145 249.348 11.7422 250.004 12.5977C250.666 13.4473 250.997 14.6455 250.997 16.1924V16.333ZM248.457 16.1484C248.457 15.1875 248.305 14.4873 248 14.0479C247.695 13.6025 247.241 13.3799 246.638 13.3799C245.829 13.3799 245.272 13.7109 244.968 14.373V18.126C245.278 18.7939 245.841 19.1279 246.655 19.1279C247.476 19.1279 248.015 18.7236 248.272 17.915C248.395 17.5283 248.457 16.9395 248.457 16.1484ZM259.266 20.0332C258.639 20.7949 257.771 21.1758 256.664 21.1758C255.644 21.1758 254.865 20.8828 254.326 20.2969C253.793 19.7109 253.52 18.8525 253.509 17.7217V11.4902H256.049V17.6338C256.049 18.624 256.5 19.1191 257.402 19.1191C258.264 19.1191 258.855 18.8203 259.178 18.2227V11.4902H261.727V21H259.336L259.266 20.0332ZM268.193 17.4053L269.951 11.4902H272.676L268.852 22.4766L268.642 22.9775C268.073 24.2197 267.136 24.8408 265.829 24.8408C265.46 24.8408 265.085 24.7852 264.704 24.6738V22.749L265.091 22.7578C265.571 22.7578 265.929 22.6846 266.163 22.5381C266.403 22.3916 266.591 22.1484 266.726 21.8086L267.024 21.0264L263.693 11.4902H266.427L268.193 17.4053ZM276.031 11.4902L276.066 13.0371C276.418 12.4629 276.857 12.0322 277.385 11.7451C277.912 11.458 278.498 11.3145 279.143 11.3145C280.643 11.3145 281.595 11.9297 281.999 13.1602C282.339 12.5684 282.793 12.1143 283.361 11.7979C283.93 11.4756 284.557 11.3145 285.242 11.3145C287.281 11.3145 288.321 12.4277 288.362 14.6543V21H287.308V14.7334C287.302 13.8838 287.117 13.2539 286.754 12.8438C286.396 12.4336 285.81 12.2285 284.996 12.2285C284.24 12.2402 283.602 12.4863 283.08 12.9668C282.559 13.4414 282.268 14.0215 282.21 14.707V21H281.155V14.6543C281.149 13.8398 280.956 13.2334 280.575 12.835C280.2 12.4307 279.62 12.2285 278.835 12.2285C278.173 12.2285 277.604 12.4189 277.13 12.7998C276.655 13.1748 276.304 13.7344 276.075 14.4785V21H275.02V11.4902H276.031ZM295.717 21.1758C294.908 21.1758 294.176 20.9766 293.519 20.5781C292.869 20.1797 292.362 19.626 291.999 18.917C291.636 18.2021 291.454 17.4023 291.454 16.5176V16.1396C291.454 15.2256 291.63 14.4023 291.981 13.6699C292.339 12.9375 292.834 12.3633 293.467 11.9473C294.1 11.5254 294.785 11.3145 295.523 11.3145C296.678 11.3145 297.592 11.71 298.266 12.501C298.945 13.2861 299.285 14.3613 299.285 15.7266V16.3154H292.5V16.5176C292.5 17.5957 292.808 18.4951 293.423 19.2158C294.044 19.9307 294.823 20.2881 295.761 20.2881C296.323 20.2881 296.818 20.1855 297.246 19.9805C297.68 19.7754 298.072 19.4473 298.424 18.9961L299.083 19.4971C298.31 20.6162 297.187 21.1758 295.717 21.1758ZM295.523 12.2109C294.732 12.2109 294.064 12.501 293.519 13.0811C292.98 13.6611 292.652 14.4404 292.535 15.4189H298.239V15.3047C298.21 14.3906 297.949 13.6465 297.457 13.0723C296.965 12.498 296.32 12.2109 295.523 12.2109Z" fill="#9893A3" fill-opacity="0.6"/>
<path d="M403.156 19.8352H405.675V30.5703H403.156V19.8352Z" fill="#9893A3" fill-opacity="0.6"/>
<path fill-rule="evenodd" clip-rule="evenodd" d="M409.897 23.2866C408.222 23.8921 407.132 25.3153 407.135 26.8922C407.124 27.9281 407.593 28.9243 408.436 29.6561C409.28 30.3879 410.427 30.7937 411.618 30.7819C413.432 30.7819 415.067 29.8316 415.76 28.3745C416.454 26.9174 416.069 25.2406 414.785 24.1267C413.501 23.0127 411.572 22.6811 409.897 23.2866ZM411.585 25.2431C412.654 25.2272 413.538 25.9632 413.565 26.8922C413.594 27.3523 413.399 27.8017 413.03 28.1316C412.66 28.4616 412.148 28.6419 411.618 28.629C410.549 28.6287 409.68 27.8794 409.671 26.9502C409.662 26.0209 410.516 25.259 411.585 25.2431Z" fill="#9893A3" fill-opacity="0.6"/>
<path fill-rule="evenodd" clip-rule="evenodd" d="M436.344 30.2373V23.246L433.868 23.2679V23.9977C433.265 23.3583 432.35 23.0039 431.4 23.0417C429.026 23.0417 427.102 24.7146 427.102 26.7782C427.102 28.8418 429.026 30.5146 431.4 30.5146C432.351 30.5559 433.267 30.2009 433.868 29.5586V30.2373C433.916 30.6883 433.722 31.1335 433.34 31.4422C432.959 31.7509 432.434 31.8881 431.92 31.8136C431.132 31.8704 430.383 31.503 430.031 30.8868L427.866 31.9742C428.712 33.1721 430.257 33.8591 431.87 33.7549C434.119 33.7549 436.344 32.7113 436.344 30.2373ZM432.663 25.0819C433.425 25.3807 433.902 26.052 433.868 26.7781C433.883 27.248 433.669 27.7016 433.279 28.027C432.889 28.3523 432.359 28.519 431.819 28.4858C430.983 28.4852 430.232 28.043 429.92 27.3686C429.609 26.6943 429.8 25.923 430.403 25.42C431.007 24.917 431.901 24.7832 432.663 25.0819Z" fill="#9893A3" fill-opacity="0.6"/>
<path fill-rule="evenodd" clip-rule="evenodd" d="M419.733 23.3378C418.058 23.9433 416.968 25.3665 416.971 26.9434C416.96 27.9793 417.429 28.9755 418.272 29.7073C419.115 30.4392 420.262 30.8449 421.454 30.8331C423.268 30.8331 424.903 29.8828 425.596 28.4257C426.289 26.9686 425.904 25.2919 424.621 24.1779C423.337 23.0639 421.407 22.7323 419.733 23.3378ZM421.421 25.2943C422.49 25.2784 423.374 26.0144 423.401 26.9434H423.384C423.412 27.4009 423.22 27.8479 422.854 28.1774C422.488 28.5068 421.981 28.689 421.454 28.6803C420.385 28.6799 419.516 27.9307 419.507 27.0014C419.498 26.0721 420.352 25.3102 421.421 25.2943Z" fill="#9893A3" fill-opacity="0.6"/>
<path fill-rule="evenodd" clip-rule="evenodd" d="M439.339 19.9155C438.495 19.9155 437.811 20.5101 437.811 21.2437C437.815 21.9756 438.497 22.5679 439.339 22.5719C440.182 22.5719 440.866 21.9772 440.866 21.2437C440.866 20.5101 440.182 19.9155 439.339 19.9155ZM440.589 23.2141H438.071V30.5703H440.589V23.2141Z" fill="#9893A3" fill-opacity="0.6"/>
<path fill-rule="evenodd" clip-rule="evenodd" d="M450.482 29.5674C451.24 28.8372 451.632 27.8743 451.57 26.8922C451.629 25.9113 451.237 24.9503 450.479 24.2216C449.721 23.493 448.661 23.0569 447.532 23.0098C446.581 22.9701 445.659 23.2988 445.014 23.9074V23.2141H442.495V33.5332H445.014V29.8843C445.659 30.4929 446.581 30.8216 447.532 30.7819C448.662 30.7348 449.724 30.2976 450.482 29.5674ZM447.02 25.1851C448.12 25.177 449.023 25.9366 449.051 26.8921H449.035C449.074 27.3755 448.872 27.8502 448.48 28.1943C448.087 28.5383 447.543 28.7181 446.986 28.6874C445.887 28.6632 445.013 27.8774 445.023 26.9217C445.032 25.9659 445.921 25.1931 447.02 25.1851Z" fill="#9893A3" fill-opacity="0.6"/>
<path d="M459.411 28.3664C459.411 30.0594 457.732 30.7819 455.885 30.7819C454.376 30.8981 452.937 30.2047 452.25 29.0305L454.45 27.9431C454.634 28.49 455.231 28.8516 455.885 28.8115C456.498 28.8115 456.8 28.6437 456.8 28.3518C456.8 27.5417 452.603 27.9723 452.603 25.4326C452.603 23.8271 454.164 23.0171 455.961 23.0171C457.311 22.9814 458.577 23.5848 459.268 24.5934L457.06 25.6005C456.861 25.2067 456.413 24.9521 455.919 24.951C455.482 24.951 455.214 25.0969 455.214 25.367C455.247 26.2062 459.411 25.6443 459.411 28.3664Z" fill="#9893A3" fill-opacity="0.6"/>
<path d="M468.679 23.2141V30.5703H466.16V29.8843C465.566 30.5026 464.667 30.8363 463.743 30.7819C462.064 30.7819 460.578 29.7238 460.578 27.7315V23.2141H463.096V27.4104C463.051 27.7725 463.196 28.133 463.491 28.3919C463.786 28.6509 464.199 28.7809 464.616 28.7459C465.539 28.7459 466.185 28.2788 466.185 27.2352V23.2141H468.679Z" fill="#9893A3" fill-opacity="0.6"/>
<path d="M483.235 26.0602V30.5702H480.717V26.2499C480.717 25.5201 480.306 25.0385 479.5 25.0385C478.694 25.0385 478.174 25.5566 478.174 26.4251V30.5702H475.655V26.2499C475.655 25.5201 475.252 25.0385 474.438 25.0385C473.624 25.0385 473.12 25.5566 473.12 26.4251V30.5702H470.602V23.214H473.12V23.8927C473.655 23.2837 474.508 22.9514 475.387 23.0097C476.27 22.9724 477.111 23.3409 477.603 23.9803C478.174 23.3122 479.099 22.9457 480.054 23.0097C481.968 23.0097 483.235 24.2211 483.235 26.0602Z" fill="#9893A3" fill-opacity="0.6"/>
<path d="M485.385 23.1703C486.424 23.1703 487.266 22.4384 487.266 21.5356C487.266 20.6328 486.424 19.9009 485.385 19.9009C484.347 19.9009 483.505 20.6328 483.505 21.5356C483.505 22.4384 484.347 23.1703 485.385 23.1703Z" fill="#9893A3" fill-opacity="0.6"/>
<path d="M427.586 15.3007C431.452 15.3007 434.586 12.246 434.586 8.4777C434.586 4.70944 431.452 1.65466 427.586 1.65466C423.72 1.65466 420.586 4.70944 420.586 8.4777C420.586 12.246 423.72 15.3007 427.586 15.3007Z" fill="#9893A3" fill-opacity="0.4"/>
<path d="M445.016 15.3007C448.882 15.3007 452.016 12.246 452.016 8.4777C452.016 4.70944 448.882 1.65466 445.016 1.65466C441.15 1.65466 438.016 4.70944 438.016 8.4777C438.016 12.246 441.15 15.3007 445.016 15.3007Z" fill="#CFCFDE" fill-opacity="0.5"/>
<rect x="403.156" y="1.65466" width="14" height="13.6461" fill="#9893A3" fill-opacity="0.5"/>
<path fill-rule="evenodd" clip-rule="evenodd" d="M590.318 16.2874C591.61 10.1857 596.272 5.90265 601.623 5.90265C606.973 5.90265 611.636 10.1857 612.928 16.2874H611.907C610.184 16.2576 608.497 16.8625 607.082 18.0174C607 18.0869 606.915 18.1503 606.827 18.2074H606.707C606.619 18.1503 606.534 18.0869 606.452 18.0174C603.532 15.7099 599.714 15.7099 596.794 18.0174C596.712 18.0869 596.627 18.1503 596.538 18.2074H596.419C596.331 18.1503 596.246 18.0869 596.164 18.0174C594.749 16.8625 593.062 16.2576 591.339 16.2874H590.318ZM610.069 22.5574C610.594 22.0776 611.243 21.8267 611.908 21.8474H613.278V18.6374H611.908C610.738 18.6207 609.595 19.0486 608.648 19.8574C607.555 20.8042 606.065 20.8042 604.972 19.8574C602.985 18.2319 600.347 18.2319 598.36 19.8574C597.267 20.8042 595.777 20.8042 594.684 19.8574C593.726 19.0383 592.567 18.6099 591.382 18.6374H589.97V21.8474H591.34C592.004 21.8267 592.654 22.0776 593.178 22.5574C595.161 24.184 597.798 24.184 599.781 22.5574C600.306 22.0791 600.955 21.8283 601.619 21.8474C602.284 21.825 602.934 22.0761 603.458 22.5574C605.444 24.1828 608.082 24.1828 610.069 22.5574ZM611.908 27.5874C611.243 27.5667 610.594 27.8176 610.069 28.2974C608.082 29.9228 605.444 29.9228 603.458 28.2974C602.934 27.8161 602.284 27.565 601.619 27.5874C600.955 27.5683 600.306 27.8191 599.781 28.2974C597.798 29.924 595.161 29.924 593.178 28.2974C592.654 27.8176 592.004 27.5667 591.34 27.5874H589.97V24.3774H591.382C592.567 24.3499 593.726 24.7783 594.684 25.5974C595.777 26.5442 597.267 26.5442 598.36 25.5974C600.347 23.9719 602.985 23.9719 604.972 25.5974C606.065 26.5442 607.555 26.5442 608.648 25.5974C609.595 24.7886 610.738 24.3607 611.908 24.3774H613.278V27.5874H611.908Z" fill="#9893A3" fill-opacity="0.6"/>
<path d="M624.102 25.1373C623.049 25.1373 622.282 24.804 621.802 24.1373C621.322 23.4573 621.082 22.4907 621.082 21.2373V15.0773H623.382V20.9373C623.382 21.7507 623.502 22.324 623.742 22.6573C623.982 22.9907 624.369 23.1573 624.902 23.1573C625.329 23.1573 625.702 23.0507 626.022 22.8373C626.355 22.624 626.709 22.2773 627.082 21.7973V15.0773H629.382V24.8973H627.502L627.322 23.4573H627.262C626.835 23.964 626.369 24.3707 625.862 24.6773C625.369 24.984 624.782 25.1373 624.102 25.1373Z" fill="#9893A3" fill-opacity="0.6"/>
<path d="M631.295 24.8973V15.0773H633.195L633.355 16.4173H633.435C633.849 15.9773 634.295 15.604 634.775 15.2973C635.269 14.9907 635.822 14.8373 636.435 14.8373C637.155 14.8373 637.729 14.9907 638.155 15.2973C638.595 15.604 638.929 16.0373 639.155 16.5973C639.622 16.0907 640.109 15.6707 640.615 15.3373C641.122 15.004 641.689 14.8373 642.315 14.8373C643.355 14.8373 644.122 15.1773 644.615 15.8573C645.109 16.524 645.355 17.484 645.355 18.7373V24.8973H643.035V19.0373C643.035 18.224 642.909 17.6507 642.655 17.3173C642.415 16.984 642.042 16.8173 641.535 16.8173C640.922 16.8173 640.235 17.224 639.475 18.0373V24.8973H637.175V19.0373C637.175 18.224 637.049 17.6507 636.795 17.3173C636.555 16.984 636.175 16.8173 635.655 16.8173C635.042 16.8173 634.355 17.224 633.595 18.0373V24.8973H631.295Z" fill="#9893A3" fill-opacity="0.6"/>
<path d="M651.911 25.1373C651.457 25.1373 650.997 25.0307 650.531 24.8173C650.077 24.5907 649.644 24.2707 649.231 23.8573H649.171L648.971 24.8973H647.151V10.7773H649.451V14.4173L649.391 16.0573C649.804 15.6973 650.251 15.404 650.731 15.1773C651.224 14.9507 651.724 14.8373 652.231 14.8373C652.844 14.8373 653.391 14.9573 653.871 15.1973C654.351 15.424 654.757 15.7573 655.091 16.1973C655.424 16.624 655.677 17.144 655.851 17.7573C656.024 18.3707 656.111 19.0573 656.111 19.8173C656.111 20.6573 655.991 21.4107 655.751 22.0773C655.524 22.7307 655.217 23.284 654.831 23.7373C654.444 24.1907 653.997 24.5373 653.491 24.7773C652.984 25.0173 652.457 25.1373 651.911 25.1373ZM651.431 23.2373C652.084 23.2373 652.631 22.9573 653.071 22.3973C653.511 21.824 653.731 20.9773 653.731 19.8573C653.731 18.8707 653.564 18.104 653.231 17.5573C652.897 17.0107 652.357 16.7373 651.611 16.7373C650.917 16.7373 650.197 17.104 649.451 17.8373V22.4173C649.797 22.724 650.137 22.9373 650.471 23.0573C650.817 23.1773 651.137 23.2373 651.431 23.2373Z" fill="#9893A3" fill-opacity="0.6"/>
<path d="M657.42 24.8973V15.0773H659.32L659.48 16.8173H659.56C659.907 16.1773 660.327 15.6907 660.82 15.3573C661.314 15.0107 661.82 14.8373 662.34 14.8373C662.807 14.8373 663.18 14.904 663.46 15.0373L663.06 17.0373C662.887 16.984 662.727 16.944 662.58 16.9173C662.434 16.8907 662.254 16.8773 662.04 16.8773C661.654 16.8773 661.247 17.0307 660.82 17.3373C660.394 17.6307 660.027 18.1507 659.72 18.8973V24.8973H657.42Z" fill="#9893A3" fill-opacity="0.6"/>
<path d="M667.886 25.1373C667.206 25.1373 666.573 25.024 665.986 24.7973C665.399 24.5573 664.886 24.2173 664.446 23.7773C664.006 23.3373 663.659 22.804 663.406 22.1773C663.166 21.5373 663.046 20.8107 663.046 19.9973C663.046 19.1973 663.173 18.4773 663.426 17.8373C663.679 17.1973 664.013 16.6573 664.426 16.2173C664.853 15.7773 665.339 15.4373 665.886 15.1973C666.433 14.9573 666.993 14.8373 667.566 14.8373C668.233 14.8373 668.819 14.9507 669.326 15.1773C669.833 15.404 670.253 15.724 670.586 16.1373C670.933 16.5507 671.193 17.044 671.366 17.6173C671.539 18.1907 671.626 18.8173 671.626 19.4973C671.626 19.724 671.613 19.9373 671.586 20.1373C671.573 20.3373 671.553 20.4973 671.526 20.6173H665.286C665.393 21.4973 665.699 22.1773 666.206 22.6573C666.726 23.124 667.386 23.3573 668.186 23.3573C668.613 23.3573 669.006 23.2973 669.366 23.1773C669.739 23.044 670.106 22.864 670.466 22.6373L671.246 24.0773C670.779 24.384 670.259 24.6373 669.686 24.8373C669.113 25.0373 668.513 25.1373 667.886 25.1373ZM665.266 19.0573H669.626C669.626 18.2973 669.459 17.704 669.126 17.2773C668.806 16.8373 668.306 16.6173 667.626 16.6173C667.039 16.6173 666.526 16.824 666.086 17.2373C665.646 17.6507 665.373 18.2573 665.266 19.0573Z" fill="#9893A3" fill-opacity="0.6"/>
<path d="M675.063 25.1373C674.236 25.1373 673.656 24.8907 673.323 24.3973C672.989 23.904 672.823 23.2307 672.823 22.3773V10.7773H675.123V22.4973C675.123 22.7773 675.176 22.9773 675.283 23.0973C675.389 23.204 675.503 23.2573 675.623 23.2573C675.676 23.2573 675.723 23.2573 675.763 23.2573C675.816 23.2573 675.889 23.244 675.983 23.2173L676.283 24.9373C675.976 25.0707 675.569 25.1373 675.063 25.1373Z" fill="#9893A3" fill-opacity="0.6"/>
<path d="M679.492 25.1373C678.666 25.1373 678.086 24.8907 677.752 24.3973C677.419 23.904 677.252 23.2307 677.252 22.3773V10.7773H679.552V22.4973C679.552 22.7773 679.606 22.9773 679.712 23.0973C679.819 23.204 679.932 23.2573 680.052 23.2573C680.106 23.2573 680.152 23.2573 680.192 23.2573C680.246 23.2573 680.319 23.244 680.412 23.2173L680.712 24.9373C680.406 25.0707 679.999 25.1373 679.492 25.1373Z" fill="#9893A3" fill-opacity="0.6"/>
<path d="M684.062 25.1373C683.195 25.1373 682.495 24.8773 681.962 24.3573C681.429 23.824 681.162 23.124 681.162 22.2573C681.162 21.7373 681.269 21.2773 681.482 20.8773C681.709 20.464 682.055 20.1107 682.522 19.8173C683.002 19.524 683.602 19.2773 684.322 19.0773C685.055 18.8773 685.929 18.724 686.942 18.6173C686.929 18.364 686.889 18.124 686.822 17.8973C686.769 17.6573 686.669 17.4507 686.522 17.2773C686.389 17.0907 686.209 16.9507 685.982 16.8573C685.755 16.7507 685.475 16.6973 685.142 16.6973C684.662 16.6973 684.189 16.7907 683.722 16.9773C683.269 17.164 682.822 17.3907 682.382 17.6573L681.542 16.1173C682.089 15.7707 682.702 15.4707 683.382 15.2173C684.062 14.964 684.795 14.8373 685.582 14.8373C686.809 14.8373 687.722 15.204 688.322 15.9373C688.935 16.6573 689.242 17.704 689.242 19.0773V24.8973H687.342L687.182 23.8173H687.102C686.662 24.1907 686.189 24.504 685.682 24.7573C685.189 25.0107 684.649 25.1373 684.062 25.1373ZM684.802 23.3373C685.202 23.3373 685.562 23.244 685.882 23.0573C686.215 22.8707 686.569 22.604 686.942 22.2573V20.0573C686.275 20.1373 685.715 20.244 685.262 20.3773C684.809 20.5107 684.442 20.664 684.162 20.8373C683.882 20.9973 683.682 21.184 683.562 21.3973C683.442 21.6107 683.382 21.8373 683.382 22.0773C683.382 22.5173 683.515 22.8373 683.782 23.0373C684.049 23.2373 684.389 23.3373 684.802 23.3373Z" fill="#9893A3" fill-opacity="0.6"/>
<path fill-rule="evenodd" clip-rule="evenodd" d="M820.263 13.2491C820.263 9.53267 817.875 6.19709 814.248 4.84891C810.621 3.50073 806.5 4.41635 803.869 7.15479H791.946V31.1854H817.12V19.9547C819.118 18.2479 820.261 15.8094 820.263 13.2491ZM815.418 13.2491C815.421 15.0285 814.302 16.6348 812.582 17.3183C810.861 18.0018 808.879 17.6278 807.561 16.3709C806.242 15.114 805.846 13.2219 806.558 11.5775C807.27 9.93323 808.95 8.86084 810.813 8.86084C813.352 8.86083 815.412 10.8241 815.418 13.2491ZM796.79 26.5599H812.276V22.1534C811.793 22.2299 811.304 22.2695 810.814 22.272C805.598 22.267 801.371 18.2302 801.366 13.2491C801.37 12.7565 801.418 12.2651 801.509 11.7803H796.79V26.5599Z" fill="#9893A3" fill-opacity="0.6"/>
<path d="M832.264 24.3854C831.344 24.3854 830.438 24.2388 829.544 23.9454C828.664 23.6388 827.918 23.1988 827.304 22.6254L828.604 20.2854C829.258 20.7121 829.884 21.0454 830.484 21.2854C831.098 21.5254 831.651 21.6454 832.144 21.6454C832.691 21.6454 832.964 21.4854 832.964 21.1654C832.964 20.9921 832.851 20.8521 832.624 20.7454C832.411 20.6388 832.064 20.5121 831.584 20.3654C830.758 20.0721 830.064 19.7988 829.504 19.5454C828.958 19.2921 828.544 18.9854 828.264 18.6254C827.998 18.2521 827.864 17.7588 827.864 17.1454C827.864 16.0654 828.264 15.1788 829.064 14.4854C829.864 13.7921 830.971 13.4454 832.384 13.4454C833.091 13.4454 833.798 13.5588 834.504 13.7854C835.224 13.9988 835.918 14.3921 836.584 14.9654L835.144 17.2854C834.478 16.8721 833.911 16.5788 833.444 16.4054C832.991 16.2321 832.584 16.1454 832.224 16.1454C831.664 16.1454 831.384 16.3321 831.384 16.7054C831.384 16.9054 831.491 17.0588 831.704 17.1654C831.918 17.2721 832.258 17.3921 832.724 17.5254C833.631 17.7921 834.371 18.0654 834.944 18.3454C835.518 18.6121 835.938 18.9388 836.204 19.3254C836.484 19.7121 836.624 20.2188 836.624 20.8454C836.624 21.9521 836.231 22.8188 835.444 23.4454C834.671 24.0721 833.611 24.3854 832.264 24.3854Z" fill="#9893A3" fill-opacity="0.6"/>
<path d="M843.004 24.3854C842.151 24.3854 841.384 24.1454 840.704 23.6654C840.024 23.1854 839.491 22.5321 839.104 21.7054C838.717 20.8788 838.524 19.9388 838.524 18.8854C838.524 17.8454 838.731 16.9188 839.144 16.1054C839.571 15.2921 840.151 14.6521 840.884 14.1854C841.617 13.7054 842.451 13.4654 843.384 13.4654C844.171 13.4654 844.837 13.6254 845.384 13.9454C845.944 14.2654 846.411 14.7121 846.784 15.2854V13.6654H850.084V28.4654H846.284V22.6254C845.671 23.7988 844.577 24.3854 843.004 24.3854ZM844.484 21.1854C845.191 21.1854 845.791 20.8254 846.284 20.1054V18.2254C846.111 17.7588 845.837 17.3854 845.464 17.1054C845.104 16.8121 844.724 16.6654 844.324 16.6654C843.777 16.6654 843.317 16.8921 842.944 17.3454C842.584 17.7988 842.404 18.3454 842.404 18.9854C842.404 19.6388 842.597 20.1721 842.984 20.5854C843.371 20.9854 843.871 21.1854 844.484 21.1854Z" fill="#9893A3" fill-opacity="0.6"/>
<path d="M852.913 20.5854V13.6654H856.713V19.7254C856.713 20.1788 856.813 20.5388 857.013 20.8054C857.227 21.0588 857.513 21.1854 857.873 21.1854C858.167 21.1854 858.467 21.1188 858.773 20.9854C859.08 20.8521 859.387 20.5588 859.693 20.1054V13.6654H863.493V19.9854C863.493 20.3454 863.547 20.5988 863.653 20.7454C863.76 20.8788 863.947 20.9588 864.213 20.9854V24.1854C863.56 24.3188 863.027 24.3854 862.613 24.3854C861.32 24.3854 860.573 23.8988 860.373 22.9254L860.293 22.5454C859.8 23.1988 859.207 23.6721 858.513 23.9654C857.833 24.2454 857.06 24.3854 856.193 24.3854C855.14 24.3854 854.327 24.0588 853.753 23.4054C853.193 22.7521 852.913 21.8121 852.913 20.5854Z" fill="#9893A3" fill-opacity="0.6"/>
<path d="M866.187 21.0054C866.187 20.2988 866.38 19.6788 866.767 19.1454C867.154 18.5988 867.687 18.1721 868.367 17.8654C869.06 17.5588 869.847 17.4054 870.727 17.4054C871.58 17.4054 872.287 17.5388 872.847 17.8054V17.4854C872.847 16.9921 872.7 16.6254 872.407 16.3854C872.127 16.1454 871.667 16.0254 871.027 16.0254C870.44 16.0254 869.887 16.1254 869.367 16.3254C868.86 16.5121 868.327 16.7921 867.767 17.1654L866.667 14.8054C868.054 13.9121 869.634 13.4654 871.407 13.4654C873.074 13.4654 874.36 13.8454 875.267 14.6054C876.187 15.3521 876.647 16.4654 876.647 17.9454V19.9854C876.647 20.3454 876.7 20.5988 876.807 20.7454C876.914 20.8788 877.1 20.9588 877.367 20.9854V24.1854C877.06 24.2521 876.767 24.2988 876.487 24.3254C876.22 24.3654 875.98 24.3854 875.767 24.3854C875.087 24.3854 874.567 24.2654 874.207 24.0254C873.86 23.7721 873.634 23.4054 873.527 22.9254L873.447 22.5454C872.487 23.7721 871.294 24.3854 869.867 24.3854C869.174 24.3854 868.547 24.2388 867.987 23.9454C867.427 23.6521 866.987 23.2521 866.667 22.7454C866.347 22.2254 866.187 21.6454 866.187 21.0054ZM872.347 21.2654C872.68 21.0388 872.847 20.7921 872.847 20.5254V19.7454C872.634 19.6654 872.387 19.5988 872.107 19.5454C871.84 19.4921 871.6 19.4654 871.387 19.4654C870.934 19.4654 870.547 19.5788 870.227 19.8054C869.92 20.0321 869.767 20.3188 869.767 20.6654C869.767 20.9588 869.88 21.1988 870.107 21.3854C870.347 21.5721 870.647 21.6654 871.007 21.6654C871.5 21.6654 871.947 21.5321 872.347 21.2654Z" fill="#9893A3" fill-opacity="0.6"/>
<path d="M886.88 16.9054C886.146 16.9054 885.48 16.9854 884.88 17.1454C884.28 17.3054 883.833 17.5721 883.54 17.9454V24.1854H879.74V13.6654H883.22V15.6654C883.593 14.9588 884.06 14.4188 884.62 14.0454C885.18 13.6588 885.773 13.4654 886.4 13.4654C886.653 13.4654 886.813 13.4721 886.88 13.4854V16.9054Z" fill="#9893A3" fill-opacity="0.6"/>
<path d="M894.24 24.3854C893.013 24.3854 891.967 24.1388 891.1 23.6454C890.247 23.1521 889.593 22.4988 889.14 21.6854C888.7 20.8721 888.48 19.9988 888.48 19.0654C888.48 18.0521 888.7 17.1254 889.14 16.2854C889.58 15.4321 890.227 14.7521 891.08 14.2454C891.933 13.7254 892.987 13.4654 894.24 13.4654C895.493 13.4654 896.547 13.7188 897.4 14.2254C898.253 14.7321 898.9 15.3988 899.34 16.2254C899.78 17.0521 900 17.9521 900 18.9254C900 19.3388 899.967 19.7254 899.9 20.0854H892.52C892.56 20.6454 892.767 21.0521 893.14 21.3054C893.513 21.5454 893.92 21.6654 894.36 21.6654C894.773 21.6654 895.16 21.5721 895.52 21.3854C895.893 21.1988 896.14 20.9388 896.26 20.6054L899.48 21.5254C899.053 22.3654 898.393 23.0521 897.5 23.5854C896.607 24.1188 895.52 24.3854 894.24 24.3854ZM892.44 17.8054H895.92C895.867 17.2988 895.68 16.8988 895.36 16.6054C895.053 16.3121 894.66 16.1654 894.18 16.1654C893.7 16.1654 893.307 16.3121 893 16.6054C892.693 16.8988 892.507 17.2988 892.44 17.8054Z" fill="#9893A3" fill-opacity="0.6"/>
</svg>
